<svg xmlns="http://www.w3.org/2000/svg" role='img' aria-labelledby="Boulder with water pattern on it" viewBox="0 0 243.417 173.244"><path d="M170.58 66.502a39.59 39.59 0 0 0-2.023.022l-1.984.086-1.314 3.06c-1.497 3.483-3.475 6.34-6.409 9.25-2.076 2.06-4.265 3.42-6.961 4.327-2.444.821-6.343.661-8.553-.35-1.066-.488-1.553-.602-1.617-.377-.836 2.946-2.515 5.509-4.833 7.38-5.825 4.7-8.308 6.569-11.323 8.516a90.272 90.272 0 0 0-4.763 3.355c-3.403 2.597-5.988 4.061-9.99 5.658-1.927.77-4.781 2.011-6.343 2.76-3.494 1.676-4.369 2.664-6.04 6.822-1.168 2.907-3.356 6.442-4.854 7.844-1.357 1.27-6.597 4.639-8.798 5.656-4.37 2.019-15.958 5.907-22.759 7.636l-4.015 1.02-.176 1.603c-.097.882-.272 2.05-.388 2.595-.163.757-.13.992.14.992.194 0 .428-.12.52-.269.09-.148.273-.202.404-.121.131.08 1.344-.24 2.694-.714 2.161-.758 2.772-.859 5.1-.845 2.402.014 2.953.12 5.954 1.145 5.448 1.863 6.707 2.94 6.733 5.753.012 1.214-.085 1.489-.7 2-.47.39-.863 1.133-1.153 2.18-1.804 6.509-3.925 10.95-6.635 13.893-2.082 2.261-2.39 2.751-3.372 5.36-1.614 4.288-6.419 9.964-10.926 12.906-4.934 3.221-13.758 5.182-24.609 5.468l-5.339.141-.318 1.356c-.174.746-.78 2.904-1.346 4.796-1.17 3.91-1.67 6.671-1.435 7.924.145.773.34.929 1.942 1.55.98.38 2.854.951 4.163 1.27 2.828.69 4.248 1.36 7.324 3.462 1.78 1.216 4.021 3.361 4.873 4.665.031.046.276-.095.544-.316 1.713-1.404 5.445-4.024 6.493-4.556 2.511-1.277 7.144-3.023 9.794-3.69 1.497-.377 3.496-.909 4.442-1.18.946-.273 4.16-1.173 7.144-2 2.983-.826 6.262-1.834 7.287-2.24 2.053-.814 7.261-3.584 9.095-4.838 2.344-1.603 8.144-4.337 11.267-5.312 1.746-.545 5.199-1.663 7.673-2.484 4.174-1.385 4.679-1.493 7.011-1.503 2.166-.009 2.717.085 3.98.677 2.194 1.026 3.226 2.086 4.518 4.634 1.15 2.27 1.159 2.308 1.136 4.965-.017 1.877-.196 3.293-.599 4.74-.922 3.313-1.513 3.99-4.322 4.946-1.616.55-3.39 1.807-3.39 2.4 0 .213 1.11.66 2.249.905 1.267.273 5.212 2.005 6.152 2.701.562.417.86.861.86 1.285 0 .575-.115.648-1.01.648-1.54 0-3.525-.685-6.2-2.138-2.722-1.48-3.33-1.95-3.675-2.856-.372-.972.685-2.108 3.61-3.878 3.122-1.888 3.606-2.635 3.772-5.812.218-4.197-1.068-7.796-3.19-8.93-1.016-.543-1.46-.594-5.082-.583-4.745.014-5.527.192-12.657 2.884-4.82 1.82-8.765 3.614-10.243 4.658-1.182.835-7.894 4.162-10.132 5.022-4.763 1.831-8.736 3.204-13.27 4.586-12.532 3.82-16.519 5.405-18.994 7.555-.467.405-1.028.796-1.246.867-.218.072.436.274 1.455.45 2.848.492 8.44 2.095 11.377 3.262 9.332 3.708 16.352 5.552 24.474 6.428 5.218.563 7.127.492 14.025-.525 11.485-1.693 21.6-3.774 25.398-5.226 1.528-.584 4.244-1.458 6.035-1.942 1.792-.485 3.626-1.097 4.075-1.36 1.323-.773 1.877-2.182 2.075-5.28.196-3.067.557-3.885 1.982-4.48 1.302-.544 2.667-.464 5.316.312 7.82 2.291 10.311 2.47 13.193.947 2.295-1.213 3.029-1.074 1.044.197-3.004 1.925-4.815 2.037-10.966.683-5.28-1.163-6.827-1.202-7.95-.199-1.23 1.099-1.307 2.393-.278 4.64.45.984.82 1.965.82 2.18 0 .55 1.102.498 3.595-.172 4.942-1.326 4.987-1.33 8.311-.742 1.674.296 4.066.88 5.316 1.299 2.673.895 8.527 4.173 13.205 7.394a302.534 302.534 0 0 0 4.895 3.31c3.605 2.343 7.195 5.807 8.862 8.55l.523.86h-1.452c-.798 0-1.451-.107-1.451-.238 0-.65-2.36-3.223-5.183-5.653-3.663-3.151-4.134-3.451-8.26-5.244-1.702-.739-4.939-2.294-7.195-3.455-6.33-3.261-6.838-3.442-10.054-3.59-2.344-.11-3.522.003-7.54.722-2.62.468-5.953 1.056-7.409 1.305-2.658.456-3.12.756-1.781 1.153.397.118 1.675.493 2.84.834 1.164.34 3.307.972 4.762 1.402 12.578 3.725 17.411 4.88 24.606 5.88 3.688.512 5.854.986 5.611 1.229-.07.07-1.063-.053-2.207-.272-1.144-.22-2.855-.463-3.8-.54-3.451-.283-10.638-1.785-15.743-3.29-1.455-.43-5.801-1.645-9.657-2.703-5.833-1.599-7.434-1.94-9.525-2.032-2.463-.107-2.58-.084-5.821 1.126-1.82.68-3.876 1.302-4.571 1.385-.695.082-1.212.2-1.15.263.062.062 1.762.335 3.777.605 2.015.271 6.938 1.105 10.94 1.852 4.001.747 7.93 1.479 8.73 1.626 2.028.372 5.302 1.208 7.806 1.991 5.43 1.7 16.405 4.838 18.785 5.372 1.455.326 2.765.71 2.91.854.406.4 12.104.15 12.24-.262.08-.235 1.34-.32 4.716-.32 3.62 0 4.608-.075 4.608-.347 0-.19.846-1.53 1.879-2.976 3.37-4.72 3.704-5.794 3.027-9.745l-.462-2.695.697-1.655c.403-.96.86-2.827 1.088-4.445.297-2.116.67-3.442 1.54-5.482 1.338-3.13 1.756-5.197 1.756-8.68 0-2.515-.688-7.1-1.45-9.652-.665-2.233-2.112-5.166-3.268-6.626-3.055-3.857-5.91-9.712-7.842-16.081-2.766-9.117-2.607-18.21.52-29.62.827-3.018 2.12-6.782 6.582-19.17.805-2.234 1.713-5.092 2.017-6.35 1.265-5.232 2.336-7.566 4.876-10.62 2.248-2.703 3.972-4.257 5.622-5.07 1.496-.735 1.942-.83 3.801-.806 1.374.018 2.107-.074 2.107-.264 0-.397-4.634-11.88-5.41-13.406-2.196-4.319-6.012-8.776-9.532-11.131-1.838-1.23-6.081-3.487-7.2-3.83-.434-.134-1.024.138-2.38 1.096-.993.701-2.5 1.69-3.35 2.196-1.757 1.045-4.797 4.113-6.103 6.158-2.284 3.577-3.657 7.017-4.356 10.913-.276 1.536-.574 2.866-.664 2.956-.399.4-.449-.292-.16-2.217.689-4.608 3.551-11.574 6.207-15.106 2.004-2.664 3.112-3.418 8.474-5.765l1.058-.464-.926-.191c-.509-.105-2.117-.494-3.572-.865a74.167 74.167 0 0 0-5.488-1.123l-2.842-.452-.518.628c-.284.345-1.41 2.115-2.503 3.934a209.643 209.643 0 0 1-4.181 6.615c-1.894 2.853-2.419 3.453-3.826 4.366-11.178 7.255-10.964 7.09-12.867 9.932-.674 1.007-1.544 1.933-2.117 2.255-.574.323-1.688 1.512-2.726 2.91-.964 1.3-2.484 3.198-3.377 4.215a390.608 390.608 0 0 0-2.285 2.624c-3.564 4.166-8.878 9.623-11.3 11.603-13.655 11.163-25.948 22.451-27.735 25.466-.346.584-.812 1.834-1.034 2.778-.85 3.606-.38 5.43 1.837 7.141 1.348 1.04 1.725 1.523 1.716 2.204-.002.17-.153.014-.336-.346-.182-.36-1.087-1.183-2.011-1.827-1.952-1.362-2.412-2.218-2.412-4.493 0-2.328.83-4.634 2.44-6.783 1.874-2.502 13.29-14.036 16.784-16.96 10.083-8.436 17.342-15.502 24.432-23.785 3.697-4.317 4.382-5.655 4.16-8.113-.135-1.484-.093-1.661.531-2.24.528-.489.978-.63 2.028-.633 1.421-.005 1.448-.017 6.378-2.898 6.532-3.818 9.815-7.398 14.385-15.685.622-1.129 1.39-2.2 1.707-2.382.506-.289.317-.345-1.54-.462a43.096 43.096 0 0 0-2.077-.067zm-5.07.107c-.083.005-.199.026-.326.065-.255.077-1.464.262-2.687.412-5.113.627-11.222 3.735-14.905 7.584-1.438 1.503-5.493 6.65-5.493 6.972 0 .27 1.906 1.043 3.307 1.341.582.124 2.011.163 3.175.085 2.875-.19 5.674-1.295 8.287-3.27 2.22-1.677 5.407-5.319 6.13-7.004.252-.586.698-1.6.991-2.256 1.009-2.25 1.658-3.771 1.658-3.887 0-.032-.053-.046-.136-.042zm-6.868 3.4c.23 0-.668 1.943-1.138 2.462-.248.274-.69.613-.983.754-.292.142-.148-.077.321-.487.47-.41 1.037-1.191 1.26-1.737.225-.545.467-.992.54-.992zm35.47 3.724c.133-.007.226.01.27.053.072.072-.728.393-1.78.712-3.491 1.06-5.737 4.07-6.623 8.877-.272 1.477-.255 1.758.136 2.295 3.446 4.722 3.592 5.692 1.886 12.506-1.275 5.09-1.082 4.767-3.867 6.481-.933.574-1.406 1.122-1.985 2.301-.744 1.517-.76 1.636-.754 5.914l.006 4.365 1.01 2.646c2.264 5.924 2.358 6.261 2.389 8.508.026 1.993-.032 2.246-.77 3.307-.605.872-1.339 1.432-3.039 2.318-3.21 1.673-6.943 5.401-8.3 8.287-1.2 2.55-1.605 3.757-2.133 6.35-.956 4.695-1.084 8.814-.376 12.097.874 4.056.764 7.532-.318 10.015-.279.638-1.528 2.21-2.84 3.572-4.25 4.41-5.947 8.057-5.832 12.532.06 2.388-.12 2.838-2.659 6.568-4.59 6.744-8.422 9.239-14.185 9.234-2.283-.002-3.227-.159-6.88-1.143-3.683-.992-4.61-1.145-7.143-1.176-3.277-.04-3.94.227-4.754 1.918l-.431.896.872-.177c.48-.097 1.545-.248 2.366-.335 1.433-.152 1.555-.114 3.001.922.987.707 2.024 1.187 3.005 1.392.823.173 2.39.54 3.482.815 1.09.276 3.936.733 6.322 1.017 2.385.284 4.4.579 4.475.654.371.371-7.964-.736-12.107-1.608-3.176-.669-3.743-.875-5.26-1.913-1.85-1.268-1.837-1.267-5.13-.538-.832.184-1.591.256-1.687.16-.364-.364 1.104-2.721 2.142-3.44 2.184-1.512 5.134-1.495 10.053.061 4.385 1.387 5.26 1.47 8.374.798 2.978-.643 4.045-1.073 4.423-1.785.134-.253.248-1.353.252-2.444.01-2.45 1.102-7.167 2.185-9.436.464-.972 1.59-2.521 2.752-3.787 2.187-2.382 3.491-4.731 4.021-7.245l.343-1.625-.135 1.587c-.185 2.175-1.494 4.782-3.744 7.455-1.001 1.19-2.077 2.677-2.39 3.307-.568 1.142-1.75 5.907-2.077 8.38-.209 1.57.252 3.216.9 3.216.474 0 4.173-3.476 6.13-5.762 1.554-1.813 1.805-2.47 2.123-5.553.305-2.972.96-5.147 2.446-8.132.827-1.662 1.611-2.686 3.65-4.763 1.427-1.455 2.705-2.943 2.84-3.307.134-.364.397-2.15.584-3.969.319-3.1.303-3.539-.258-7.011-.686-4.243-.623-7.186.237-11.016.636-2.831 2.562-7.461 3.814-9.167 1.69-2.301 5.278-5.512 7.296-6.529 2.576-1.297 3.296-2.393 3.424-5.21.111-2.442-.371-4.255-2.37-8.914-1.52-3.542-1.886-5.515-1.537-8.292.291-2.317.625-3.414 1.496-4.92.774-1.337 2.673-2.97 3.453-2.97.304 0 .62-.11.704-.245.083-.135.637-1.89 1.23-3.903.805-2.733 1.113-4.307 1.221-6.229.136-2.412.1-2.663-.573-4.039-.395-.806-1.125-1.898-1.622-2.426-1.097-1.163-1.137-1.833-.275-4.606.943-3.037 1.58-4.022 3.797-5.872.966-.806 3.8-1.98 4.725-2.03zm-39.313.523c.218.004.017.173-.447.374-.465.202-1.154.857-1.532 1.456-.377.598-.988 1.202-1.356 1.342-.903.343-1.885.32-2.113-.05-.132-.213.02-.25.513-.126 1.267.317 2-.07 2.685-1.42.603-1.19 1.18-1.594 2.25-1.576zm28.551 4.45c.04.037-.066.262-.369.72-1.24 1.88-2.654 4.315-3.212 5.532-1.053 2.297-2.165 7.638-2.726 13.097-.292 2.838-.825 6.41-1.184 7.937-.36 1.528-.891 3.97-1.181 5.424-.546 2.742-1.305 6.18-2.715 12.303-.452 1.965-1.391 6.073-2.086 9.129-2.213 9.726-3.838 12.806-9.558 18.118-8.187 7.603-9.551 9.32-11.48 14.452-1.483 3.95-2.2 8.257-2.392 14.393-.213 6.772-.743 8.907-2.794 11.242-1.145 1.304-3.808 2.726-5.96 3.182-3.453.732-7.08.322-8.47-.957-1.948-1.79-2.26-5.049-.924-9.63 1.607-5.508 2.502-8.24 3.078-9.393 1.902-3.81 2.933-9.906 2.526-14.928-.245-3.009-.555-3.328-3.23-3.328-2.207 0-4.785.797-7.806 2.414-7.053 3.775-8.473 4.102-14.125 3.26-5.15-.768-9.633-1.737-11.093-2.4-3.082-1.396-5.087-4.59-5.128-8.17-.03-2.673.78-4.808 2.762-7.275 1.055-1.313 2.255-3.338 3.547-5.986 1.752-3.59 2.116-4.145 3.535-5.394 2.486-2.188 2.845-3.63 1.227-4.932-1.607-1.294-2.16-3.773-1.114-4.987.522-.606 1.151-.8 5.162-1.59 4.906-.968 6.32-1.46 7.75-2.693 1.213-1.046 3.555-2.75 6.323-4.6 1.244-.832 3.215-2.37 4.379-3.42 1.164-1.05 3.532-3.051 5.261-4.448 1.73-1.396 3.362-2.895 3.628-3.331 1.052-1.73 1.14-4.663.169-5.634-.206-.205-1.078-.557-1.938-.782-1.44-.376-1.947-.692-1.957-1.223-.002-.113.264-.03.591.182.328.213 1.25.464 2.051.557 2.755.32 3.526.966 3.976 3.34.385 2.031-.113 3.1-.824 1.77-.293-.547-.322-.528-.65.427-.412 1.197-1.122 1.97-4.09 4.457a205.93 205.93 0 0 0-4.497 3.907c-1.237 1.112-3.976 3.247-6.086 4.743-2.11 1.496-4.55 3.283-5.424 3.972-2.315 1.827-3.418 2.297-7.132 3.036-1.834.365-3.678.84-4.098 1.058-.818.423-1.867 1.605-1.867 2.104 0 .168.707 1.101 1.571 2.075 1.626 1.831 1.707 2.104 1.1 3.702-.128.336-.902 1.28-1.72 2.099-.826.826-1.732 2.057-2.037 2.769-1.032 2.408-2.704 5.513-3.988 7.404-1.364 2.01-2.334 4.96-2.334 7.1 0 1.324.624 3.524 1.478 5.21.54 1.067.822 1.31 2.063 1.774 2.5.935 6.955 1.437 11.408 1.286 4.667-.159 6.622-.575 12.653-2.692 3.604-1.266 4.452-1.47 6.086-1.464 2.523.008 3.893.354 4.586 1.157.864 1.002 1.707 3.483 1.987 5.848.442 3.75-.707 10.534-2.416 14.266-1.172 2.558-1.854 5.244-2.023 7.959-.145 2.336.194 6.603.553 6.962.659.656 6.665-.39 7.523-1.31.908-.975 1.206-2.721 2.14-12.531.531-5.583 1.628-9.492 3.983-14.194 2.057-4.107 4.332-6.72 9.474-10.879 3.938-3.185 5.238-4.492 6.749-6.786 1.665-2.528 2.407-4.094 4.331-9.141 2.466-6.472 3.906-10.758 4.579-13.637.323-1.382 1.46-6.085 2.527-10.45 1.944-7.955 2.488-10.83 3.03-16.008.297-2.854.831-5.775 1.353-7.408.569-1.782 2.262-4.91 3.651-6.747.958-1.267 1.751-2.099 1.838-2.018zm-37.539 9.824c.141 0 .257.293.257.652 0 .824-1.332 2.356-2.749 3.163-1.252.714-2.45 1.046-2.644.734-.073-.118.216-.947.642-1.842.736-1.545 1.378-2.19 2.154-2.168.191.006-.021.171-.472.367-.563.246-.956.699-1.257 1.45-.872 2.181-.386 2.334 2.1.661 1.437-.968 2.13-1.93 1.872-2.602-.087-.228-.043-.415.098-.415zm-1.33.3c.12 0 .24.017.33.054.182.073.033.133-.33.133-.365 0-.513-.06-.331-.133a.92.92 0 0 1 .33-.055zm22.977 1.028c1.726-.006 2.773.557 3.41 1.835.579 1.162.796 7.319.342 9.703a835.46 835.46 0 0 0-.82 4.422c-.289 1.577-.83 3.601-1.202 4.498-1.188 2.86-1.693 4.475-2.242 7.17-.295 1.447-.645 2.816-.778 3.043-.334.572-.318-.056.027-.96.156-.41.393-1.637.526-2.729.527-4.297.69-5.032 1.259-5.637.313-.333.802-1.284 1.087-2.113.593-1.722 1.21-5.545.989-6.122-.081-.212-.571-.465-1.088-.562-.517-.097-.94-.266-.94-.375 0-.11.545-.074 1.211.078 1.422.326 1.58.182 1.825-1.66.214-1.608-.269-5.989-.85-7.712-1.1-3.265-3.4-3.28-8.478-.053-4.298 2.73-7.616 7.127-9.875 13.083-.564 1.487-1.175 2.8-1.359 2.916-.183.116-.675.214-1.092.216-.536.003-1.04.304-1.72 1.03-1.411 1.508-2.767 2.276-5.676 3.213-1.722.555-2.92 1.118-3.55 1.672-.524.46-2.162 2.681-3.641 4.937a1235.83 1235.83 0 0 1-6.546 9.9c-1.567 2.333-2.335 5.781-1.369 6.152.862.33 3.866-.83 10.164-3.926 10.891-5.356 18.54-8.405 21.624-8.622 2.363-.165 3.247.168 4 1.508.624 1.11.706 2.04.303 3.454-.668 2.34-1.277 2.023-1.59-.827-.18-1.65-.32-2.03-.946-2.568-.588-.506-.947-.607-1.81-.509-1.012.116-4.634 1.718-7.293 3.227-.655.372-2.382 1.104-3.837 1.629-3.494 1.259-7.26 3.16-9.433 4.762-3.471 2.56-11.442 7.701-13.804 8.905-1.784.91-7.06 2.563-8.827 2.767l-1.108.128-.84-1.68c-1.592-3.186-2.36-3.49-4.74-1.869-1.818 1.239-2.487 2.322-2.241 3.63.288 1.537 1.547 2.634 3.826 3.334 3.742 1.15 6.33.792 12.76-1.764 3.984-1.584 5.203-1.755 9.377-1.32 2.331.242 3.635-.117 4.17-1.151.205-.399.552-.873.77-1.053.604-.502 8.441-2.906 10.53-3.23 2.66-.413 2.494-.14-.24.392-1.274.248-3.977 1-6.007 1.67-3.62 1.196-4.155 1.506-5.21 3.027-.428.617-.486.624-5.292.627l-4.858.003-3.416 1.408c-1.88.775-4.31 1.636-5.4 1.915-2.294.587-3.744.61-6.092.101-3.429-.744-5.333-2.378-5.333-4.576 0-1.243.678-2.172 2.627-3.603 2.169-1.592 3.252-1.157 4.89 1.96.539 1.025 1.082 1.863 1.208 1.863.47 0 6.807-1.883 8.17-2.428.78-.312 2.115-1.08 2.966-1.706.852-.627 2.577-1.804 3.834-2.615 2.756-1.777 5.223-3.58 5.087-3.716-.055-.054-1.248.374-2.653.952-2.86 1.178-5.224 1.55-6.28.988-2.006-1.067-1.053-3.99 3.17-9.722a79.305 79.305 0 0 0 2.514-3.64c2.066-3.247 4.981-7.364 5.923-8.364 1.139-1.209 2.215-1.783 4.528-2.413 2.54-.694 3.696-1.344 5.069-2.853 1.058-1.163 1.376-1.358 2.238-1.374 1-.018 1.01-.03 1.693-1.877 1.185-3.205 3.993-8.258 5.72-10.293 1.915-2.258 3.412-3.406 6.758-5.182 2.06-1.093 2.7-1.31 3.88-1.314zm-50.016 3.453c-.42-.005-.893.013-1.49.04-3.371.157-5.653 1.044-7.237 2.815-.604.675-1.016 1.003-.917.728.166-.46.08-.486-1.075-.328-2.07.284-5.948 2.342-12.205 6.476-2.015 1.331-2.19 1.515-2.031 2.137.405 1.595.44 2.487.145 3.664-.882 3.523-9.263 13.698-13.723 16.662-2.125 1.412-4.476 2.14-7.948 2.463-2.517.234-2.922.353-4.921 1.443-1.85 1.008-2.404 1.188-3.668 1.188-.82 0-1.976-.195-2.57-.433-.617-.246-1.172-.332-1.293-.198-.638.706-1.166 6.803-.636 7.334.242.241.115.267 2.963-.602a346.95 346.95 0 0 1 5.46-1.605c1.6-.454 4.041-1.337 5.424-1.962 1.382-.625 4.418-1.744 6.747-2.486 9.178-2.925 13.08-4.846 15.022-7.395 1.814-2.38 3.038-4.534 3.72-6.544 1.164-3.431 3.073-6.599 4.744-7.872 1.44-1.098 3.371-1.954 6.348-2.814 6.418-1.853 10.924-4.29 13.626-7.366.835-.952 1.876-2.113 2.313-2.58l.793-.85-3.26-.997c-2.276-.696-3.07-.904-4.331-.918zm-2.229 3.46c.102.015.129.066.076.153-.092.148-.52.34-.951.426-.627.125-.838.352-1.054 1.133-.527 1.908-2.41 3.076-6.761 4.194-.867.223-2.118.398-2.778.39-1.61-.02-4.299-.898-4.927-1.61-.433-.49-.312-.46.815.195 1.244.723 1.497.768 4.234.765 2.674-.003 3.088-.075 5.098-.881 2.403-.964 3.765-1.94 3.765-2.696 0-.706 1.062-1.793 1.958-2.004.247-.058.424-.08.525-.065zm98.272 1.572-.834.145c-6.204 1.077-11.493 7.055-13.661 15.442-.17.655-1.066 3.87-1.993 7.144-.926 3.274-1.926 7.024-2.222 8.334-3.823 16.93-4.409 20.911-4.179 28.406.119 3.858.302 5.651.843 8.239 1.117 5.35 3.059 10.756 5.865 16.338 3.338 6.639 4.599 10.765 5.135 16.808.424 4.78-.573 10.485-2.265 12.957-.567.828-.63 1.086-.377 1.557.398.744.187 1.926-.94 5.272-.844 2.51-.929 3.035-.93 5.753 0 3.587-.496 5.984-1.661 8.043-1.04 1.838-3.288 4.238-4.4 4.699-.451.187-.819.43-.819.541 0 .111 4.274.186 9.497.166l9.498-.035-.833-.812c-.458-.447-1.272-1.697-1.809-2.778-1.677-3.377-3.917-13.075-3.955-17.13-.02-2.053.077-2.55.825-4.295 1.644-3.828 2.428-6.236 3.053-9.376.532-2.672.87-3.633 2.137-6.074 1.373-2.646 2.036-4.278 4.768-11.745 1.278-3.493 1.645-6.178 1.815-13.275.192-7.976.872-13.58 2.28-18.785.886-3.277 3.348-7.013 5.891-8.94l.756-.574-.287-3.114c-.158-1.713-.355-5.08-.44-7.48-.21-6.043-1.122-12.7-1.74-12.7-.487 0-3.208 2.823-3.906 4.053-.88 1.548-2.326 6.036-3.342 10.366-.388 1.655-1.05 3.594-1.531 4.493-.836 1.557-.883 1.595-2.993 2.381-3.21 1.196-3.125 1.12-5.853 5.327-.278.428-.288.396-.076-.219.845-2.449 2.895-4.727 5.03-5.59 3.021-1.223 3.107-1.354 4.496-6.84 2.152-8.499 3.894-11.952 6.893-13.665l1.28-.73-.756-2.236c-.415-1.23-1.431-3.843-2.258-5.807-.828-1.965-1.9-4.524-2.384-5.689a976.727 976.727 0 0 0-2.248-5.346zm-52.361 1.579c1.074.003 2.128.339 2.767 1.006 1.12 1.17 1.879 5.598 1.244 7.267-.135.357-.76.994-1.389 1.416-1.11.745-1.147.817-1.343 2.576-.486 4.384-3.031 7.278-6.413 7.294-4.29.02-14.865 1.659-16.151 2.502-.314.205-.888 1.007-1.276 1.782-.387.775-.632 1.112-.544.748.324-1.329 1.056-2.51 1.831-2.952 1.122-.64 5.667-1.501 10.319-1.956 9.15-.895 8.753-.77 10.525-3.322.855-1.23 1.048-1.781 1.319-3.769l.317-2.327 1.117-.708c.614-.39 1.235-1.038 1.38-1.44.324-.891-.075-4.847-.618-6.147-.516-1.235-1.22-1.53-3.362-1.409-1.51.086-1.927.214-2.45.756-.683.708-2.165 4.067-3.731 8.458-1.282 3.591-2.092 5.177-2.925 5.722-.37.242-1.767.728-3.106 1.08-2.252.59-2.59.614-4.493.324-2.462-.376-3.66-.22-4.78.619-1.301.976-1.686 1.142-1.1.474.292-.331.995-.84 1.563-1.13.924-.472 1.334-.508 3.9-.34 2.283.15 3.234.097 4.656-.258 3.728-.929 4.062-1.308 6-6.806 1.727-4.9 2.99-7.675 3.852-8.468.722-.664 1.817-.995 2.89-.992zm-30.262.302c.178.178-2.336 1.83-4.266 2.803-.86.433-2.55 1.098-3.758 1.479-3.754 1.183-3.472.907-5.574 5.455-.303.655-.822 1.355-1.153 1.556l-.603.366.57-.63c.315-.347.961-1.566 1.438-2.709 1.178-2.824 1.726-3.3 5.027-4.372 3.044-.988 4.652-1.734 6.773-3.142.777-.516 1.473-.879 1.546-.806zm-39.236 4.752c-.187.033-.414.184-.707.446-.3.269-1.915 1.421-3.589 2.562-3.83 2.611-5.282 3.64-7.276 5.153-.873.663-2.42 1.795-3.44 2.515-2.16 1.527-9.285 7.217-11.773 9.403-.946.83-2.493 2.033-3.437 2.672-2.014 1.364-2.242 1.878-1.006 2.274 1.934.62 3.41.313 5.688-1.181 1.648-1.081 2.346-1.284 5.639-1.641 3.308-.359 4.612-.776 6.5-2.082 4.148-2.866 10.365-10.03 13.136-15.136 1.163-2.142 1.365-2.985.988-4.127-.21-.638-.411-.913-.723-.858zm23.486 6.93c.254-.034.07.073-.623.426-.56.286-1.163.64-1.339.785-.175.145-1.02.447-1.88.67-.859.225-1.983.393-2.498.374-.805-.028-.75-.06.386-.232 2.018-.303 3.437-.744 4.133-1.283.346-.268.987-.565 1.424-.66.18-.04.312-.068.397-.08zm-33.874 1.23c.346 0 1.318 1.318 1.497 2.03.193.768-.263 1.488-2.524 3.99-.953 1.054-1.864 1.918-2.024 1.918-.284 0 .192-.595 2.961-3.699 1.515-1.698 1.603-2.355.477-3.57-.34-.368-.515-.669-.387-.669zm15.854 14.288c.17 0-.107.416-.616.926-.709.709-1.145.926-1.86.926-.668 0-.936-.117-.936-.409 0-.323.192-.373.913-.238.767.144 1.017.061 1.552-.517.351-.378.777-.688.947-.688zm2.597 3.177c.786.004-2.147 1.25-3.704 1.574-1.71.355-2.08.706-2.82 2.687-.305.817-.79 1.699-1.078 1.96-.394.356-.523.814-.523 1.848 0 1.774-.367 2.786-1.765 4.87-.626.934-1.192 2.065-1.258 2.514l-.412 2.788c-.16 1.084-.53 2.356-.82 2.826-.292.47-.709 1.726-.929 2.791-.917 4.448-2.079 8.214-3.186 10.329a319.907 319.907 0 0 0-3.026 6.027c-4.466 9.125-4.882 9.816-7.587 12.617-3.07 3.178-7.905 6.068-14.604 8.728-5.362 2.128-14.18 4.99-19.772 6.415-1.189.303-3.426.975-4.973 1.492-1.547.518-3.71 1.113-4.808 1.323-2.263.433-2.745.465-2.733.183.023-.552 1.55-1.188 3.631-1.511 1.273-.198 3.054-.667 3.958-1.043.905-.376 2.79-.982 4.188-1.345 1.398-.363 3.47-1.129 4.606-1.701 1.135-.572 3.299-1.417 4.808-1.877 6.001-1.83 8.013-2.688 12.33-5.26a972.382 972.382 0 0 1 5.476-3.232c4.975-2.912 7.755-5.938 11.52-12.54.913-1.6 2.212-3.664 2.886-4.585 2.745-3.755 3.376-5.073 4.52-9.438.73-2.782 1.468-4.647 2.672-6.747 1.156-2.017 1.57-3.358 1.572-5.102.002-1.458.942-3.565 2.166-4.853.837-.88 1.258-2.196 1.268-3.96.005-.746.173-1.235.542-1.568.294-.267.725-1.138.957-1.937.54-1.854 1.23-2.528 3.021-2.95.792-.186 1.882-.56 2.422-.832.54-.271 1.194-.492 1.455-.49zm-11.962 6.07-.926.81c-.51.447-1.521.98-2.249 1.184a19.48 19.48 0 0 1-2.646.515c-1.204.13-1.24.12-.397-.12.51-.144 1.675-.455 2.59-.69.916-.235 2.106-.714 2.646-1.063zm-20.161 6.893c-1.136 0-1.948.195-3.123.75-1.954.925-4.037 1.631-5.953 2.02l-1.455.294-.193 1.54c-.313 2.503-1.487 6.55-2.271 7.83-.488.797-1.209 1.467-2.176 2.024-2.045 1.178-4.14 2.592-5.679 3.835-2.195 1.773-3.74 2.36-6.817 2.588-2.891.214-3.535.46-6.079 2.32-2.723 1.991-4.474 4.59-5.493 8.156-.682 2.383-.682 3.218-.001 3.434.739.235 1.014-.01 1.214-1.078.327-1.743 2.017-2.933 5.044-3.554 2.522-.517 2.927-.742 3.382-1.879.23-.572.416-1.245.417-1.497 0-.252.223-.821.494-1.266.446-.732.752-.865 3.24-1.416l2.748-.608 2.91-3.004c1.6-1.652 3.249-3.13 3.662-3.283.414-.153 1.66-.466 2.769-.695 3.549-.733 4.335-1.487 3.794-3.635-.356-1.415-.033-2.592.874-3.186.989-.648 3.78-1.255 5.383-1.17 1.363.072 1.543.155 2.096.977 1.196 1.78.672 4.042-2.31 9.966-1.243 2.47-1.789 3.232-4.793 6.694-2.393 2.758-8.902 9.343-9.935 10.052-1.488 1.02-4.306 1.903-10.8 3.383-9.087 2.07-9.712 2.202-10.494 2.207-.668.004-.719.1-1.006 1.923-.167 1.055-.37 2.26-.45 2.677l-.145.76 5.915-.13c5.018-.112 6.616-.254 10.545-.94 10.364-1.81 15.193-4.652 20.954-12.335 1.242-1.657 2.133-3.234 2.987-5.291 1.074-2.585 1.432-3.15 3.028-4.784.996-1.018 2.122-2.421 2.502-3.117a36.01 36.01 0 0 1 1.084-1.865c.468-.715 1.796-4.247 2.703-7.188.358-1.165.83-2.653 1.05-3.308 1.138-3.414.653-4.173-2.956-4.627-1.448-.182-2.117-.609-3.02-1.925-.813-1.187-1.838-1.65-3.646-1.65zm157.327 1.895c-.181-.037-.547.31-1.333 1.207-2.512 2.871-3.138 4.832-4.714 14.757-.865 5.448-1.338 10.46-1.346 14.26-.006 2.823-.576 7.413-1.21 9.755-.247.907-1.134 3.137-1.972 4.956-2.134 4.632-2.93 7.063-4.205 12.833-1.133 5.13-1.688 6.7-3.32 9.388-.51.838-1.127 2.288-1.372 3.223-.432 1.647-.428 1.772.129 4.069.316 1.303.88 3.382 1.253 4.619.373 1.237.912 3.38 1.197 4.762.286 1.383.934 3.39 1.44 4.46.507 1.07.923 2.2.925 2.513.002.312.079.848.17 1.192.166.618.192.622 2.709.434 5.547-.414 9.72-2.143 12.982-5.38 4.29-4.258 5.291-9.25 3.35-16.713-.51-1.964-1.283-4.583-1.718-5.82a2735.05 2735.05 0 0 0-2.293-6.483c-2.757-7.764-3.463-12.003-2.995-17.991.28-3.574.862-5.88 2.73-10.81 2.585-6.82 2.854-9.546 1.714-17.368-.586-4.018-1.775-11.006-1.991-11.705-.029-.09-.069-.145-.13-.158zm-41.845.32c.124-.083-.232.795-1.033 2.486-1.79 3.778-2.11 4.364-3.137 5.75-1.993 2.693-1.953 2.513-2.153 9.657-.11 3.917-.348 7.424-.602 8.863-.291 1.65-.42 4.024-.42 7.726-.002 5.94-.209 7.372-1.42 9.841-1.1 2.24-2.025 2.845-4.942 3.233-1.232.164-2.55.457-2.93.651-1.137.581-1.669 2.044-1.68 4.623-.01 2.084.066 2.418.964 4.234.536 1.084 1.616 2.712 2.4 3.617 2.734 3.155 3.793 6.41 3.554 10.922-.074 1.382-.312 3.05-.528 3.704-.53 1.599-.542.847-.026-1.587.3-1.415.372-2.61.25-4.165-.303-3.892-1.175-5.978-3.668-8.772-.758-.85-2.024-2.71-2.812-4.133-1.344-2.424-1.44-2.722-1.542-4.731-.088-1.735 0-2.432.461-3.655.78-2.067 1.612-2.676 5.182-3.79 2.665-.832 3.112-1.059 3.755-1.902l.731-.957.155-7.165.155-7.165.997-3.042.996-3.043-.146-4.383c-.14-4.227-.123-4.432.49-5.755.35-.755 1.37-2.225 2.268-3.268 1.632-1.896 2.361-3.183 2.361-4.167 0-.289.174-.622.386-.74.213-.12.747-.87 1.186-1.668.427-.774.674-1.17.748-1.22zm-40.817 1.243c.291.009-.099.185-.867.392-.768.206-2.732.931-4.365 1.61-2.498 1.04-3.338 1.261-5.285 1.394-1.274.086-2.316.084-2.315-.002 0-.088 1.059-.228 2.352-.312 2.012-.13 2.75-.325 5.094-1.338 2.875-1.244 4.501-1.77 5.386-1.744zm-78.138 5.362c-1.645.066-4.203.756-5.2 1.54-.666.524-.686.62-.514 2.364.274 2.786-.463 3.516-4.386 4.34-2.831.596-3.498 1.013-6.031 3.768-1.267 1.378-2.616 2.666-2.997 2.863-.381.198-1.572.555-2.646.794-2.68.596-3.037.87-3.432 2.635-.347 1.553-1.444 2.953-2.484 3.17-.294.061-1.189.239-1.99.394-1.91.37-3.488 1.283-3.911 2.26-.866 2.002-.967 2.109-1.99 2.109h-.978v1.616c0 .89-.078 2.188-.174 2.886-.159 1.163-.131 1.258.331 1.127l2.622-.733a185.529 185.529 0 0 0 5.291-1.607 136.027 136.027 0 0 1 5.821-1.707c3.5-.913 6.662-1.94 7.805-2.533 1.155-.6 3.568-2.888 6.003-5.69a121.012 121.012 0 0 1 3.765-4.102c2.925-3.01 3.832-4.34 5.298-7.761 2.316-5.409 2.507-6.791 1.046-7.572-.254-.136-.7-.183-1.25-.161zm28.23 4.956c.313.013.272.095-.153.3-.42.203-.634.612-.76 1.456-.103.682-.468 1.515-.872 1.99-.382.45-.932 1.267-1.223 1.815-.291.548-.799 1.48-1.128 2.07-.329.59-.694 1.775-.812 2.632-.153 1.118-.44 1.85-1.013 2.584-.44.564-1.664 2.543-2.718 4.399-1.055 1.855-2.03 3.373-2.167 3.373-.136 0-.02-.327.259-.728.279-.4 1.186-2.016 2.016-3.59.83-1.575 1.84-3.242 2.243-3.704.535-.615.768-1.213.862-2.22.151-1.618 2.257-5.99 3.286-6.824.392-.317.76-1.002.919-1.709.305-1.361.653-1.87 1.261-1.844zm66.4 7.786c.08.081-.128.412-.465.736l-.613.588.465-.736c.255-.405.531-.67.612-.588zm-45.414.52c.137.041-.299.602-1.4 1.652-1.19 1.134-2.644 2.717-3.231 3.517-1.571 2.142-5.042 5.647-7.457 7.533-3.612 2.819-10.479 7.138-22.093 13.894-1.819 1.059-3.724 2.193-4.233 2.52-.51.329-1.581.956-2.381 1.394-4.382 2.4-6.716 3.73-8.763 5-2.926 1.813-3.618 2.042-5.616 1.857-1.11-.102-2.345.007-3.878.344a67.207 67.207 0 0 1-4.365.783c-1.164.16-3.062.654-4.217 1.1-1.154.445-2.98.978-4.058 1.184-3.85.737-13.079.153-15.477-.978l-1.12-.527 1.72.144c7.989.672 14.324.293 17.5-1.046 3.151-1.328 3.536-1.428 5.52-1.445 2.299-.02 3.903-.344 8.448-1.703 3.463-1.035 6.306-2.323 12.189-5.52 3.339-1.815 5.046-2.896 11-6.965 1.298-.887 4.326-2.84 6.727-4.337 9.684-6.04 14.974-9.81 18.848-13.43 1.441-1.346 2.723-2.448 2.85-2.448.126 0 .782-.477 1.457-1.061 1.185-1.026 1.893-1.504 2.03-1.462zm-5.685.43 1.005.024-1.19.33c-1.799.5-2.812 1.11-4.043 2.433-.614.66-2.248 1.866-3.63 2.678-1.383.812-4.74 2.947-7.46 4.744-6.845 4.523-8.216 5.29-14.696 8.223-.471.213-1.215.754-1.653 1.203-.909.929-1.079.614-.243-.449.545-.692 2.369-1.752 3.679-2.137 1.949-.574 9.471-4.823 12.964-7.323 2.287-1.637 5.525-3.71 7.784-4.987.862-.486 2.027-1.344 2.59-1.906 1.657-1.658 3.734-2.86 4.893-2.832zm18.75 4.339c.012.003.02.015.028.035.217.6-1.006 4.472-1.604 5.078-.331.336-1.18.759-1.886.939-1.176.3-1.314.42-1.655 1.444-.366 1.099-1.699 2.195-2.025 1.667-.079-.127.182-.297.58-.377.584-.118.814-.403 1.195-1.48.462-1.31.502-1.344 2.116-1.815l1.646-.48.454-1.446c.25-.795.593-1.98.763-2.636.149-.573.311-.952.389-.93zm61.705 14.249c.068.05-.127.996-.61 2.82-.383 1.445-1.337 3.866-2.244 5.694-2.453 4.947-2.559 6.651-.596 9.626 1.305 1.977 1.903 3.692 2.218 6.351.147 1.25.57 3.524.937 5.052 1.129 4.697.54 8.443-1.69 10.741-.547.564-.854 1.205-.98 2.05-.124.823-.357 1.323-.703 1.508-.487.26-.508.21-.346-.86.269-1.775.804-2.828 1.687-3.324.655-.369.91-.792 1.317-2.178.872-2.974.91-4.818.156-7.693-.365-1.393-.846-3.83-1.069-5.414-.435-3.1-1.217-5.093-2.835-7.225-.785-1.035-.873-1.328-.873-2.911 0-1.87-.015-1.832 2.529-6.522.63-1.164 1.59-3.486 2.132-5.16.57-1.76.901-2.606.97-2.555zm-165.757 13.88-2.09.19c-4.938.448-10.63 2.628-13.243 5.071-1.774 1.66-3.292 3.684-7.05 9.406-2.775 4.225-4.155 6.53-4.155 6.94 0 .08 1.042.632 2.316 1.226 1.273.593 3.03 1.421 3.902 1.84.873.417 2.583 1.59 3.801 2.607 3.572 2.981 3.685 3.016 10.354 3.206 5.57.158 5.744.18 8.333 1.058 3.183 1.08 6.609 3.265 8.608 5.49.852.95 1.758 2.262 2.593 3.642.336-.004.672-.006 1.008-.012a80.981 80.981 0 0 0 3.228-.115c1.238-.077 2.475-.212 3.716-.188 1.006.014 2.012.035 3.018.075.821.027 1.648.083 2.463-.05.22-.036.427-.056.623-.061.46-.013.852.054 1.177.178.3-.102.577-.155.842-.183a.71.71 0 0 1 .428-.126c.038 0 .078 0 .12.005.307.027.614.064.917.13.292.061.588.11.883.157l.268.048c3.587-.408 7.185-.694 10.797-.745.97-.008 1.938-.009 2.908-.005 2.907.012 5.813.075 8.72.167 2.815.053 5.631.029 8.447.053 1.246.011 2.493.026 3.74.051.526-.679 1.086-1.287 1.578-1.682 1.832-1.468 2.403-1.75 5-2.47 1.36-.379 3.698-1.094 5.195-1.59 4.797-1.59 4.038-1.806 8.235 2.352 2 1.983 3.551 3.605 3.445 3.605-.271 0-3.508-2.961-5.41-4.95-1.859-1.942-2.217-2.015-5.042-1.02-7.746 2.73-9.175 3.43-11.37 5.574-.067.065-.135.146-.203.217.353.011.706.02 1.058.034 2.055.091 4.105.25 6.154.436 1.643.123 3.288.217 4.933.314.203-.185.527-.313.968-.315.053 0 .107.001.162.005.457.028.914.062 1.368.121.65.081 1.3.15 1.95.213.346.04.69.089 1.037.12 1.636-.186 3.234-.369 5.34-.595.727-.078 5.469-.141 10.537-.141h9.213l-.181-.602c-.348-1.15-1.509-3.072-2.335-3.868-1.276-1.23-3.808-2.648-5.857-3.281-1.019-.315-1.643-.617-1.387-.67 1.157-.244 5.993 2.066 7.784 3.717.778.717 1.48 1.734 2 2.898l.802 1.793h17.603c9.682 0 17.554-.048 17.493-.107-.06-.06-1.42-.237-3.02-.396-2.934-.291-3.197-.363-14.241-3.896-9.005-2.88-11.945-3.54-26.44-5.932-10.617-1.75-10.085-1.748-19.38-.07-11.016 1.99-16.18 2.55-20.189 2.192-4.164-.372-10.388-1.43-13.948-2.372-2.966-.784-9.072-2.858-13.62-4.626-4.457-1.732-6.278-2.208-10.655-2.782-7.216-.948-7.738-1.16-10.582-4.289-1.098-1.208-2.486-2.494-3.086-2.857-.6-.364-2.186-1.36-3.526-2.213-2.964-1.887-3.202-1.98-5.874-2.316-1.566-.196-2.295-.42-2.758-.846-.889-.816-1.606-2.503-1.613-3.792-.008-1.413.889-4.312 1.62-5.243zm201.401.842-.81.38c-.838.392-1.834 1.838-3.72 5.4-.565 1.067-1.413 2.395-1.886 2.952-.473.557-1.086 1.65-1.363 2.427-.779 2.182-1.432 8.723-1.31 13.12.057 2.074.09 3.771.073 3.771-.018 0-.229-.609-.47-1.353-.553-1.716-.572-5.683-.05-10.638.43-4.068.943-5.552 2.629-7.588.798-.964 4.728-7.266 4.987-7.997.037-.106.485-.256.994-.334zm-51.673.648c.144-.037.04.14-.34.653-.468.633-.605 1.18-.62 2.483-.019 1.622.017 1.714 1.21 3.077.676.773 1.864 2.612 2.641 4.087 1.391 2.642 1.412 2.716 1.401 4.931-.01 1.97-.12 2.495-.9 4.234-.49 1.091-1.007 2.103-1.149 2.249-.302.31-.28.245.878-2.623.75-1.853.836-2.329.754-4.14-.083-1.824-.23-2.316-1.362-4.551-.698-1.379-1.796-3.124-2.44-3.879-1.568-1.837-1.884-3.04-1.261-4.809.26-.74.693-1.464.96-1.608.104-.056.18-.092.228-.104zm-70.636 1.803c.539-.04.924.018 1.424.152.643.171 1.911.312 2.818.313 2.093.002 3.531.4 4.33 1.2.672.67.829 1.897.357 2.779-.149.278-.527.643-.84.81l-.569.305.575-.731c.755-.96.77-2.517.033-3.186-.423-.382-1.166-.53-3.374-.674-1.557-.1-3.223-.329-3.702-.506-.738-.273-1.22-.234-3.175.26-1.267.319-3.196.624-4.288.678l-1.984.098 1.72-.241c.946-.133 2.892-.506 4.325-.83 1.118-.252 1.81-.388 2.35-.427zm55.178 4.19c1.3 0 3.485 1.108 4.151 2.511.656 1.382.254 4.027-.852 5.607-.273.391-1.917.917-1.917.614 0-.113.24-.422.532-.686.63-.571 1.32-2.732 1.32-4.137 0-1.334-.744-1.99-2.691-2.374-1.182-.232-1.542-.412-1.542-.77 0-.535.408-.764 1-.765zM108 207.356c.044-.01.08-.005.102.017.07.071-.168.408-.531.75-.363.34-.66.499-.66.35 0-.295.777-1.05 1.089-1.117zM6.486 209.444c.073 0 .317.358.543.794.226.437.351.794.278.794-.072 0-.317-.357-.542-.794-.226-.436-.352-.794-.279-.794zm1.706 1.805c.235-.02.576-.017.966.005 1.28.081 1.468.174 1.93.956.696 1.18 1.965 2.093 4.011 2.885 3.73 1.445 5.205 2.124 6.278 2.891l1.12.8 3.148-.169c1.731-.093 3.371-.248 3.643-.344.382-.135.427-.1.197.149-.194.21-1.537.37-3.837.456l-3.538.133-1.19-.814c-.655-.448-2.798-1.494-4.763-2.324-3.396-1.436-4.02-1.848-5.47-3.612-.448-.545-.81-.7-1.638-.7-.584 0-1.118-.09-1.186-.198-.034-.055.095-.094.33-.114zm69.114 1.88c3.56-.003 5.204.196 10.024 1.207 5.064 1.062 6.549 1.439 11.51 2.916 8.105 2.413 8.74 2.551 12.435 2.712l3.44.15-1.323.348c-1.671.441-4.015.422-6.189-.05-1.833-.397-2.182-.499-8.099-2.358-7.662-2.408-18.204-4.417-23.178-4.416-2.284 0-2.79.096-5.027.958-8.34 3.212-11.666 4.242-12.354 3.825-.248-.15-1.166-.494-2.039-.764-2.058-.637-.841-.723 1.588-.113 1.63.41 1.768.404 3.562-.14 1.026-.312 3.442-1.173 5.37-1.913 5.62-2.16 6.493-2.36 10.28-2.363zm143.673 2.93c.148 0 .022.313-.279.696-.3.383-.794 1.544-1.095 2.58-.3 1.036-1.22 3.22-2.043 4.854-.823 1.634-1.656 3.032-1.851 3.107-.226.087-.168-.13.157-.59.994-1.406 2.65-5 3.327-7.218.693-2.272 1.295-3.429 1.784-3.429zm-146.91 2.521c2.562.028 6.094.24 7.708.537 1.504.276 2.961.386 3.798.286 1.864-.223 9.693.12 9.693.425 0 .135-.447.18-.992.099-.546-.082-2.54-.175-4.432-.208-1.892-.032-3.856.015-4.366.106-.525.094-2.072-.05-3.572-.334-1.862-.35-3.9-.503-6.879-.514-2.328-.008-4.084-.11-3.901-.226.216-.137 1.404-.187 2.942-.17zm-79.07 2.242c-.097 0-.429.446-.738.992-.31.545-1.452 2.167-2.54 3.603-1.087 1.436-2.035 2.835-2.107 3.108-.087.334.108.668.591 1.012.808.575 1.702.81 6.141 1.618 1.692.307 3.439.78 3.882 1.05.443.269 1.279 1.181 1.857 2.027 1.246 1.821 2.298 2.86 3.271 3.228.39.147 2.235.358 4.101.468 2.588.153 3.116.24 2.226.368-.642.092-2.368.067-3.836-.055-3.256-.272-4.226-.83-5.91-3.402-1.344-2.053-2.449-2.73-5.155-3.161-3.402-.542-6.07-1.303-6.97-1.99-.48-.365-.935-.664-1.014-.664-.313 0-1.468 2.957-1.629 4.17-.143 1.075-.06 1.514.494 2.596a7.599 7.599 0 0 0 1.1 1.597c.484.06.967.118 1.45.18 1.478.234 2.95.502 4.434.698 1.896.214 3.815.227 5.72.256 1.735 0 3.47 0 5.204.002 1.622.002 3.243.004 4.865.013 1.672.01 3.346.023 5.018.077 1.45.059 2.904.143 4.34.371.934.168 1.864.366 2.79.583a.943.943 0 0 1 .35-.047l.243.009c.256.013.514.028.766.08.218.045.436.087.653.134.383-.053.766-.097 1.147-.165 1.524-.244 3.052-.403 4.599-.34 1.17 0 2.34 0 3.509-.004l.924-.005c-2.634-4.055-5.906-6.66-10.207-8.15l-2.458-.852-5.688-.006c-6.744-.007-6.636.026-10.583-3.332-2.098-1.785-3.19-2.464-6.59-4.103-2.241-1.08-4.154-1.964-4.25-1.964zm41.29 1.863c.003-.019.083.046.24.187.227.202 1.142.33 2.353.33 1.6 0 2.142.111 2.822.577 1.204.825 2.353 2.673 3.177 5.112.986 2.92 2.86 6.578 3.712 7.248.55.433 1.08.558 2.377.558.917 0 1.742.119 1.832.264.378.611-3.878.02-4.607-.64-.682-.618-2.982-5.113-3.598-7.033-.735-2.292-1.588-3.79-2.755-4.845-1.04-.938-1.154-.976-3.031-.976-1.549 0-2.024-.095-2.302-.463-.149-.197-.222-.3-.22-.319zm-15.252 1.484c.11-.022.147.049.147.206 0 .247-.514.547-1.37.802-1.524.452-2.239.511-2.431.2-.071-.115.427-.233 1.106-.262.758-.033 1.516-.262 1.965-.594.29-.215.473-.33.583-.352z" style="fill:#f1f2da;fill-opacity:1;stroke-width:.264583" transform="translate(12.892 -66.498)"/></svg>