<?xml version="1.0" encoding="UTF-8" standalone="no"?>
<svg
   xmlns:dc="http://purl.org/dc/elements/1.1/"
   xmlns:cc="http://creativecommons.org/ns#"
   xmlns:rdf="http://www.w3.org/1999/02/22-rdf-syntax-ns#"
   xmlns:svg="http://www.w3.org/2000/svg"
   xmlns="http://www.w3.org/2000/svg"
   version="1.1"
   id="svg6352"
   viewBox="0 0 89.743676 87.606917"
   height="24.724619mm"
   width="25.32766mm">
  <defs
     id="defs6354" />
  <metadata
     id="metadata6357">
    <rdf:RDF>
      <cc:Work
         rdf:about="">
        <dc:format>image/svg+xml</dc:format>
        <dc:type
           rdf:resource="http://purl.org/dc/dcmitype/StillImage" />
        <dc:title></dc:title>
      </cc:Work>
    </rdf:RDF>
  </metadata>
  <g
     transform="translate(-366.55674,-659.98732)"
     id="layer1">
    <g
       id="g6314"
       style="display:inline"
       transform="translate(-496.49653,101.67999)">
      <path
         style="display:inline;opacity:1;fill:#f3574d;fill-opacity:1;stroke:none;stroke-width:4;stroke-linecap:butt;stroke-linejoin:miter;stroke-miterlimit:4;stroke-dasharray:none;stroke-opacity:1"
         d="m 907.92714,558.30733 a 23,23 0 0 0 -23,22.99999 23,23 0 0 0 17.82031,22.35156 c -1.80364,-1.89191 -3.32264,-4.04424 -4.48828,-6.39844 0.63466,-0.86672 1.38286,-1.64314 2.22461,-2.31055 0.90726,2.07555 2.1166,4.00172 3.58204,5.71875 a 26,26 0 0 1 -0.26367,-3.46874 26,26 0 0 1 24.78711,-25.95704 23,23 0 0 0 -20.66212,-12.93553 z m 21.54883,15.89451 a 23,23 0 0 0 -6.78125,1.12305 23,23 0 0 0 -15.75586,23.80861 c 0.55542,-1.03711 1.17691,-2.03769 1.86915,-2.99219 0.85215,-1.15502 1.79925,-2.23751 2.83009,-3.23634 1.03462,0.33092 2.01934,0.8008 2.92772,1.3965 -1.70351,1.51236 -3.16749,3.26811 -4.35155,5.20506 a 26,26 0 0 1 11.23241,-2.59177 26,26 0 0 1 24.31446,16.8242 23,23 0 0 0 5.91601,-23.64649 23,23 0 0 0 -22.20118,-15.89063 z m -46.59375,0.2344 a 23,23 0 0 0 -18.7031,15.65624 23,23 0 0 0 14.76755,28.98242 23,23 0 0 0 26.71681,-9.96092 c -2.33336,1.11243 -4.82044,1.88266 -7.39064,2.2617 -0.63289,-0.87179 -1.14685,-1.82537 -1.52538,-2.83398 2.29587,-0.22565 4.54046,-0.79873 6.66015,-1.68946 a 26,26 0 0 1 -21.48047,-25.54491 26,26 0 0 1 0.95508,-6.87109 z m 37.91405,25.48828 a 23,23 0 0 0 -8.23633,1.82615 c 2.57155,0.46657 5.0664,1.31173 7.39456,2.52735 0.006,1.07843 -0.13461,2.15229 -0.41602,3.19337 -2.00298,-1.1675 -4.16813,-2.02036 -6.41993,-2.53906 a 26,26 0 0 1 7.28906,17.98243 26,26 0 0 1 -9.75195,20.29296 23,23 0 0 0 24.31056,-1.68554 23,23 0 0 0 5.08788,-32.12697 23,23 0 0 0 -19.25783,-9.47069 z m -8.97264,8.04686 c 0.33937,2.56496 0.30379,5.17229 -0.12889,7.73634 -1.02758,0.33913 -2.095,0.53888 -3.17579,0.59179 0.50075,-2.27615 0.64762,-4.61146 0.44726,-6.92578 a 26,26 0 0 1 -22.91211,13.82617 26,26 0 0 1 -14.27734,-4.29297 23,23 0 0 0 9.11327,22.61524 23,23 0 0 0 32.12501,-5.08789 23,23 0 0 0 -1.19141,-28.4629 z"
         id="path5065-4-7-01-8-6-1" />
      <path
         style="display:inline;opacity:1;fill:#ffcc00;fill-opacity:1;stroke:none;stroke-width:2;stroke-linecap:round;stroke-linejoin:round;stroke-miterlimit:4;stroke-dasharray:none;stroke-opacity:1"
         d="m 913.14258,590.35938 a 3,3 0 0 0 -2.29883,1.23437 3,3 0 0 0 0.66406,4.19141 3,3 0 0 0 4.18946,-0.66407 3,3 0 0 0 -0.66407,-4.1914 3,3 0 0 0 -1.89062,-0.57031 z m -14.0586,2.47851 a 3,3 0 0 0 -1.67968,0.57031 3,3 0 0 0 -0.66407,4.19141 3,3 0 0 0 4.19141,0.66406 3,3 0 0 0 0.66406,-4.1914 3,3 0 0 0 -2.51172,-1.23438 z m 21.05469,10.11523 a 3,3 0 0 0 -2.98242,2.07032 3,3 0 0 0 1.92578,3.78125 3,3 0 0 0 3.7793,-1.92774 3,3 0 0 0 -1.92578,-3.77929 3,3 0 0 0 -0.79688,-0.14454 z m -23,4.1211 a 3,3 0 0 0 -0.88476,0.14648 3,3 0 0 0 -1.92579,3.7793 3,3 0 0 0 3.78126,1.92773 3,3 0 0 0 1.92578,-3.78125 3,3 0 0 0 -2.89649,-2.07226 z m 12.97071,6.23242 a 3,3 0 0 0 -3,3 3,3 0 0 0 3,3 3,3 0 0 0 3,-3 3,3 0 0 0 -3,-3 z"
         id="path5561-2-6" />
    </g>
  </g>
</svg>
