<svg xmlns="http://www.w3.org/2000/svg" 
role='img' aria-labelledby="Silhouette of fancy koi" viewBox="0 0 232.4063 235.01369"><path d="M-56.769612 76.631834c1.01228 15.74315 5.73708 25.666956 23.63357 49.639176 1.09862 1.4716 2.90257 3.9216 4.00877 5.44442l2.01127 2.76878.15636 4.74204c.38478 11.67013 3.70788 23.29146 9.52694 33.31703.59124 1.01865 2.0877 3.38513 3.32546 5.25885 2.12775 3.22098 2.22336 3.42659 1.75328 3.77031-.27345.19996-.71497.36355-.98115.36355-.46015 0-.45758.0517.0522 1.05098.88801 1.74065 2.01665 2.80513 4.5779103 4.31767 1.34051.79165 2.67543 1.58011 2.96647 1.75216.48419.28622.47295.2976-.13229.13393-2.4586-.66486-9.0647103-4.87666-12.8322903-8.18135-2.46023-2.15796-2.7963-2.32237-1.63303-.79888 1.16245 1.52242 1.20679 2.06029.24396 2.95929-.68215.63693-.85157.67068-2.71198.54027-1.0914-.0765-2.2225-.22067-2.51354-.32036-.82565-.28281 5.8714 6.21511 7.88 7.64569 3.55687 2.5333 8.0988903 4.67431 13.7338703 6.47384 6.0398 1.92882 13.47294 2.59596 19.6507997 1.76372 3.12718-.42127 5.13905-.87024 4.11137-.91749-1.20412-.0553-2.53496-.69902-3.5844-1.73361-.64481-.63568-1.59038-1.30693-2.10128-1.49167-1.23122-.44522-1.17284-.71041.17822-.80969 1.0378-.0763 1.14821-.16419 1.76352-1.40428.77619-1.56435 1.14354-1.88238 2.55332-2.21053.58208-.13549.81375-.25909.51482-.27468-.85503-.0446-2.97636-1.51775-3.5571-2.47027-.78886-1.29384-.68177-2.81963.35546-5.0646 1.147-2.48252 1.89289-3.0768 3.86175-3.0768.82797 0 2.2416.25029 3.15412.55845 1.85318.62583 2.0387.96987.26172.48536-.63316-.17264-2.00385-.32929-3.046-.34812-1.68079-.0304-1.97508.0405-2.60544.62722-1.25352 1.1668-1.83335 2.59504-1.82604 4.49792.0111 2.88228 1.19738 3.96876 4.33342 3.96876 1.26501 0 1.596-.085 1.596-.41002 0-1.80998 4.24338-5.67541 6.23033-5.67541.57011 0 .91904.9038 1.09864 2.84574.14447 1.56198.27554 1.89536 1.05122 2.67381.86967.87277.87336.88611.19843.71671-1.02063-.25616-3.36526-1.63823-4.09256-2.41241-.59061-.62868-.6083-.72658-.2461-1.36208.21464-.3766.65814-.86095.98556-1.07635.57849-.38056.59429-.36643.55928.50054-.0262.64782-.068.7249-.15272.28141-.0944-.49425-.1885-.55116-.49313-.29833-.59575.49442-.44398 1.47902.32069 2.08051 1.22705.96521 1.45299.76044 1.36547-1.23757l-.0782-1.78594-.9555-.0799c-1.8199-.15224-3.47955 2.02096-2.43079 3.18294.26173.28999 1.24978.91738 2.19567 1.39419 2.99822 1.51139 3.35792 2.11888.52916.8937-1.38245-.59877-2.82254-1.37668-3.20021-1.72871-.7662-.71418-.9518-.60682-1.54716.89493-.30665.77349-.27429.96189.34734 2.02263.71743 1.2242 2.09371 2.54839 2.64864 2.54839.17857 0 .73324-.42154 1.23261-.93676.59523-.61412 1.39876-1.07944 2.33299-1.35103.91024-.26461 1.46932-.58363 1.54763-.88307.14606-.55855.97906-.97382 2.36928-1.18112l1.01576-.15147-1.05772.40848c-1.51649.58565-1.91166 1.03072-1.4331 1.61403.33818.41219.3151.44081-.23998.29771-.84568-.21802-3.02734.47089-3.64196 1.15004-.356.39337-.50641.95059-.50641 1.87605 0 1.32036.0368 1.38114 1.36615 2.25454.39482.25942.3282.26818-.3553.0468-1.32721-.42994-2.28582-.21289-2.47325.56-.48152 1.9855 1.07605 3.9408 4.30667 5.4064l2.05052.93024v-.62247c0-.99594.67161-2.33223 1.709-3.4004.52927-.54497 1.05653-.99086 1.17169-.99086.11515 0 .34005.2868.49976.63733.2639.57921.19584.6999-.74637 1.32342-1.16557.77134-1.43531 1.44841-1.44016 3.61482-.003 1.1751.14698 1.70161.73671 2.59275.95567 1.44411 1.37389 1.57848 2.64184.84874.85475-.49193 1.41642-.59552 3.12942-.57719 1.14823.0123 2.0877-.066 2.0877-.17398 0-.10798-.47302-.7138-1.05115-1.34626-1.0404-1.13819-1.42966-2.19919-1.27677-3.48004.0757-.63456.0252-.65902-1.24396-.60138-2.32014.10537-3.07558.34095-3.8946 1.21453l-.78946.84205.41851-.83653c.6122-1.22367 1.58191-1.86776 3.14606-2.08965l1.38407-.19634-.82592-.34387c-1.06398-.44297-1.71349-1.98433-1.88555-4.47466-.22109-3.19997.99778-4.94966 3.96824-5.69644 1.24458-.31288 1.25681-.32656 1.26039-1.40902.007-2.22933.66791-3.0038 1.10926-1.30058.196.75638.33127.83576 1.88591 1.10649.92112.1604 2.12424.29165 2.67359.29165.84158 0 .97126.0729.82372.46302-.34108.90185-1.32204 2.13819-2.02691 2.55457-1.27088.75073-3.19665.38862-4.00616-.7533-.13744-.19387-.25945-.1865-.39688.0239-.10914.16713-.88748.38976-1.72965.49474-1.91786.23906-2.67566.81096-2.67566 2.01928 0 1.46955 2.65423 4.91945 3.5258 4.58274 1.41741-.54758 4.09445-.95338 5.75032-.87167 1.71572.0847 1.87156.0511 1.65364-.35607-.31876-.5956-.30905-2.79207.0132-2.99124.1396-.0863.47883-.0164.75383.15539.42576.26589.71579.14935 1.95303-.78478.79917-.60338 1.52792-1.09705 1.61945-1.09705.0915 0-.13066.43778-.49377.97284-.66115.97427-1.07967 2.12204-.85551 2.3462.0657.0657 1.0027-.18452 2.0823-.55597 1.20785-.41559 2.85342-.73576 4.278-.83235 1.27331-.0863 2.31482-.22864 2.31448-.31624-.001-.33819-2.15418-5.12973-2.89635-6.44633-.42967-.76223-.86181-1.89189-.96031-2.51035-.0985-.61846-.21563-1.12448-.26028-1.12448-.0446 0-.89263.16702-1.88441.37115-.99178.20414-2.54738.45395-3.45688.55515-1.65604.18426-2.09579.48521-1.14838.78591.27791.0882.64705.33119.82032.53997.23338.28121.0853.26141-.57142-.0764-.71299-.36677-1.66308-.46222-4.85521-.48783-4.9939-.04-7.44514-.38991-11.85636-1.69227-4.06379-1.19978-6.69034-2.35668-10.31595-4.54379-4.70186-2.83636-12.46696-8.12909-13.6787297-9.3235-.65485-.64546-2.20266-2.03143-3.43958-3.07994-4.79561-4.0651-8.42613-8.54917-10.09267-12.46548-.93332-2.19326-.96008-2.6478-.0517-.87777.78448 1.52856 2.79068 4.66436 3.72402 5.82083 1.47931 1.83297 5.50465 5.68837 7.2834 6.97591 7.0328697 5.0907 18.3887997 11.67339 23.3767997 13.55082 5.84092 2.19847 10.7533 3.03041 17.69658 2.99702 6.07227-.0292 10.69295-.62511 22.61816-2.91695 4.17705-.80276 5.10406-1.07083 6.35-1.83629.80241-.49297 2.08401-1.03915 2.84799-1.21374 3.12602-.71438 1.42977-.9454-8.53281-1.1621-5.10644-.11108-8.99139-.0376-13.6224.25779-8.13921.51907-13.46831.52387-17.86464.0161-3.45508-.39908-9.49467-1.4396-9.32733-1.60694.0493-.0493 1.7518.0928 3.78328.31595 4.46478.49033 16.45189.57749 19.70088.14325 8.35407-1.11656 21.49051-1.68463 25.70375-1.11153 2.04739.27849 4.60753.8995 6.15283 1.49249.16995.0652.32711-.12185.34924-.4157.0644-.85482 2.25571-3.48691 3.86143-4.63813.81189-.58208 1.45132-1.15135 1.42097-1.26504-.0304-.11369-.96968-.60425-2.08738-1.09013-1.1177-.48589-2.5389-1.25607-3.15822-1.71153-1.27723-.93928-2.19115-1.03611-3.11014-.32951-.48903.376-.59445.64103-.46311 1.1643.25904 1.03213 1.58032 2.18743 2.93566 2.5669 1.59581.4468 1.70975.70993.40301.9307-1.38417.23385-3.49951-.28047-4.16667-1.01308-1.14757-1.26015-1.35591-3.64272-.41224-4.71432.41438-.47056.20536-.50612-5.31383-.90397-1.43773-.10363-2.40135-.32779-3.0744-.71515-.88405-.50879-1.08879-.53171-2.08472-.23332-.60741.18199-1.44476.65197-1.86077 1.04439-.86212.81326-1.90214 3.67022-1.6759 4.60373.18794.77546 1.10062 1.79025 1.64171 1.8254.2293.0149.0458.11567-.40767.22395-1.13395.27072-2.36695.0509-2.8773-.51308-.29134-.32193-.42891-.98014-.43416-2.07728l-.008-1.60602-1.36773.5021c-1.59666.58616-4.42334 1.32661-5.0643 1.32661-.24485 0-.79321-.34803-1.21858-.7734-.61782-.61782-.77288-1.0037-.77081-1.91823.003-1.39378 1.03984-3.73121 2.1782-4.91118.45416-.47076.77436-.89771.71155-.94877-.12715-.10336-4.45759.20042-8.71317.61124-1.52797.1475-3.35641.26801-4.0632.2678-1.06513-.00026-1.2575.0715-1.12391.41962.0887.23101.22231.91562.29704 1.52136l.13587 1.10135-.42647-1.32292c-.23457-.7276-.47426-1.37223-.53267-1.4325-.13571-.14006-3.3222-.0294-3.5704.124-.10261.0634.0392.84087.31525 1.72766.54417 1.74842.66003 3.4173.23724 3.4173-.14552 0-.26458-.27605-.26458-.61344 0-1.23134-.85479-3.45706-1.62255-4.22482-.43035-.43034-.83322-.73168-.89526-.66963-.062.062.11923.58256.40283 1.1567.28361.57414.59499 1.46062.69196 1.96994l.17633.92604-.63343-.57081c-.82375-.74232-2.85858-1.79015-3.06858-1.58015-.0898.0898.0445.39296.29843.67359.60204.66525.85771 2.53376.41903 3.06234-.53317.64243-.79585.4658-.79585-.53513 0-1.90728-1.00347-3.2988-2.37886-3.2988-.52746 0-.53655.0357-.14968.58804 1.09138 1.55817.0724 1.66125-2.10735.21319-.87-.57797-1.66421-1.05422-1.76492-1.05833-.1007-.004.10623.49854.45984 1.117.63825 1.1163.89137 3.10885.39492 3.10885-.13992 0-.38117-.47083-.53613-1.0463-.33092-1.22896-1.34397-2.51667-2.416-3.07104-.90697-.46901-.89911-.49634-.23307.81005.29104.57086.52805 1.39971.52668 1.84188-.002.77413-.0309.75439-.76875-.53196-.42144-.73476-.92634-1.46649-1.12199-1.62608-.19565-.15959-1.2487-.42518-2.34011-.59021-4.40041-.66535-8.51291-1.88909-12.08115-3.59494-1.91521-.9156-4.2369297-2.17103-5.1593697-2.78985-2.58532-1.73434-6.24231-5.5846-7.65039-8.05467-3.46914-6.08564-5.57833-13.79258-4.79809-17.53208.97422-4.66916 4.71413-8.86603 12.46626-13.98946 9.8683097-6.52204 15.5885997-11.92945 18.1918997-17.196856 1.27318-2.57611 1.42997-4.50232.60048-7.37734-.81371-2.82034-.83009-6.46921-.0389-8.66661.64925-1.80317 2.03959-3.6282 4.11054-5.39572l1.49907-1.27943-.72591-.52917c-2.45435-1.78915-3.63947-3.87586-4.01741-7.07372l-.14808-1.25288-1.45521 1.85586c-2.07276 2.64346-3.83766 5.62662-4.68912 7.92595-.60197 1.62558-.73484 2.41494-.73484 4.36563 0 2.47924.56968 4.83956 1.38932 5.75631.65907.73715.13677.88414-.62472.17581-1.06119-.98711-2.10901-2.6245-2.59424-4.05392-.35936-1.05861-.38874-1.54457-.15997-2.64583.4373-2.10509 2.90735-6.89369 5.13137-9.948 4.27873-5.87609 5.34923-7.08711 10.53977-11.92329 9.20052-8.5724 15.58249-12.9915 22.77191-15.76805 5.4112-2.08981 9.49004-2.87356 17.23853-3.31242l5.53778-.31365-2.23049-.75666c-3.75578-1.27409-5.4173-1.54213-10.56488-1.70438-4.21314-.1328-5.4659-.0721-8.99583.43561-6.3144.90828-12.6904 2.73128-18.51052 5.29247-1.35304.59541-2.52104 1.0216-2.59556.94708-.0745-.0745.38738-.35999 1.02644-.63437.63906-.27439 1.99537-.88909 3.01401-1.366 1.01865-.47691 2.62599-1.15536 3.57188-1.50766.94588-.35231 2.46919-.93711 3.38511-1.29957 2.27591-.90065 9.08981-2.4124 12.59633-2.79466l2.88457-.31446-1.29707-.45032c-.71338-.24768-2.15327-.82323-3.19975-1.27898-2.69315-1.17292-5.26063-1.45381-11.59107-1.26811-5.88486.17263-8.50836.53788-13.83924 1.92674-8.89328 2.31698-16.38932 6.09532-23.9961797 12.09515-2.97823 2.34906-11.40482 10.72212-13.63107 13.54449-2.49784 3.16668-5.7144303 8.14194-7.0126003 10.84672-2.2963 4.78441-4.64241 12.72232-5.78714 19.58036-.68428 4.09951-1.66334 13.511736-2.66963 25.664586-.50578 6.10812-1.60862 15.07891-2.09801 17.06562-.34925 1.41779-.35581 1.37016-.25517-1.85208.23265-7.44873.91813-25.09202 1.17188-30.1625.56784-11.346616 2.57046-20.402456 5.68825-25.722136.70386-1.20096.81768-1.54364.46095-1.38776-.26054.11385-1.34045.26069-2.3998.32631-1.54411.0956-2.23588.003-3.48809-.46484-2.36292-.88367-3.50537-2.02409-5.06042-5.05145-1.90875-3.71595-3.34038-4.80295-5.54415-4.20953-.92633.24943-1.14713.47519-1.87506 1.91721-1.27037 2.51659-1.85012 5.90326-1.89062 11.04428-.0344 4.36434.26706 6.89234 1.26195 10.58334.21573.80036.38611 1.6338.37861 1.85208-.0393 1.14494-1.94357-5.4593-2.34144-8.12047-.41313-2.7633-.35411-8.18268.11333-10.40478.21879-1.0401.6993-2.74453 1.06781-3.78761.3685-1.04308.73277-2.08044.80948-2.30525.10604-.31075-.19748-.49272-1.26625-.75912-3.96166-.98747-6.69974-3.95181-8.02424-8.68732-.56256-2.01133-.42105-3.10214.67326-5.18977.44746-.85362.75422-1.61137.68171-1.68388-.33435-.33435-2.99612.62398-4.47451 1.61098-4.79286 3.19977-7.83275 8.36077-9.02011 15.31395-.394 2.30727-.68044 8.06961-.5229 10.51952zm22.58836 14.41979c.31256.72736.31256 1.14511 0 .66146-.14106-.21828-.24994-.57547-.24193-.79375.01-.26169.092-.21663.24193.13229zm3.175-7.80521c.17634-.27286.25775.33216.26053 1.93625.002 1.28322.1968 3.66447.43237 5.29167.43415 2.99885 2.36605 9.774136 3.32037 11.644766.28686.56229.47205 1.07185.41154 1.13237-.44322.44321-3.62892-8.722176-4.27845-12.309256-.42555-2.35019-.51633-7.12331-.14636-7.6958zm16.69479 69.320826c.10219.36381.19767.48128.21217.26105.0347-.52688 1.82093-3.17146 2.1421-3.17146.13726 0-.0451.43417-.40518.96483-1.40147 2.06518-1.91834 6.30665-1.02817 8.43714.59977 1.43543 3.07808 3.91933 5.3404803 5.35251 2.01628 1.27726 2.07137 1.58353.29339 1.63109-1.08919.0291-1.37473.56781-1.01597 1.91663.74653 2.80666 2.66154 5.24849 4.14911 5.29053.93215.0263 4.59523-.60961 5.56683-.96645l.99107-.364-1.19062-.0201c-2.54717-.043-4.51269-1.1787-4.93209-2.84969-.18684-.74444.34554-2.58537.87465-3.02449.28202-.23406.35327-.12391.35327.54609 0 1.28228.65207 2.28651 1.77578 2.7348 1.51793.60556 4.87405 1.57074 5.00533 1.43947.0637-.0637-.92997-.5611-2.20816-1.10532-2.95159-1.2567-3.19441-1.48933-.94133-.90177 2.6996.704 3.1408.65519 3.84043-.42486.32876-.50752.65728-.92276.73004-.92276.0728 0 .40793.4254.74484.94534.4014.6195 1.07813 1.15083 1.96329 1.54147l1.35074.59612-1.24301.313c-.93498.23543-1.37578.52469-1.77876 1.16723-.72404 1.15452-.53833 2.7445.4165 3.56581.64123.55155.94647.59572 4.1173997.59572 3.57438 0 4.20529.23007 2.53952.92608-.48693.20344-1.89884.51644-3.13759.69555-2.6403297.38175-3.4361397.16771-4.8714897-1.31022-.76728-.79004-.89519-1.10499-.89519-2.20408v-1.28233h-.9372c-2.26211 0-6.03312 1.15367-7.50846 2.29709-.34294.26578 1.33965 1.47617 2.48028 1.78423.73434.19833 2.93639.80413 4.89344 1.34623 2.82543.78264 3.84716.95582 4.96094.84087.77147-.0796 1.40266-.0969 1.40266-.0384s-.38217.30401-.84928.54556c-.71271.36856-1.32849.41053-3.82953.261-2.40408-.14373-3.13005-.10071-3.75507.2225-.69414.35895-.92052.35739-2.1745-.015-1.91684-.56923-2.83387-1.3389-4.95781-4.16108-3.80503-5.05593-7.7446303-13.2616-8.4764603-17.65538-.27924-1.67649-.28664-6.79116-.008-5.80054zm.23854-1.98437c.14333-.33355.22739-.38245.22739-.13229 0 .21828-.10232.635-.22739.92604-.14333.33354-.22739.38245-.22739.13229 0-.21828.10233-.635.22739-.92604zm4.6276803-44.81301c.68352-1.61936 1.3209-2.94443 1.4164-2.94462.32077-.00053-.18955 14.34144-.5743 16.13992-.33293 1.55626-.38541 1.64431-.55193.92604-.10122-.43656-.47298-1.98437-.82615-3.43958-.3531703-1.45521-.6976603-2.88396-.7655503-3.175-.0679-.29104-.0824-1.43666-.0323-2.54583.0763-1.68838.29339-2.49592 1.3338603-4.96093zm3.46868 52.80654c.23289-.48838.67938-1.04385.99219-1.23438.52754-.32132.5234-.29717-.0572.33335-1.28301 1.39329-.94773 4.07154.63993 5.11182.58912.38601.88648.39736 2.62389.10017 1.9459-.33286 2.78609-.25906 2.78609.24471 0 .14448-.50492.39865-1.12205.56483-.61713.16618-1.43918.52795-1.82678.80395-.95521.68017-1.61935.63115-2.59723-.19168-1.72092-1.44806-2.32821-3.86772-1.43883-5.73277zm5.46354 22.95613c1.76969-.91009 2.97482-1.0026 1.94682-.14943-.75662.62793-.67069 1.30882.26932 2.13416 1.85279 1.62678 3.72226 2.23031 6.05808 1.95579 1.40198-.16478 1.40468-.1669 1.26982-.99797-.0743-.45807.041-1.24652.25621-1.75211l.39136-.91927-.13629 1.12195c-.0849.69914-.0114 1.27246.19518 1.52135.4198397.50588 1.8278397.50257 2.5000697-.006 1.01291-.76613 1.32951-.24129.38517.6385-.41354.38527-.78671.48105-1.45297.37293-.49309-.08-1.04636-.0256-1.2294897.12093-.51171.40942-3.91072 1.18558-4.60815 1.05225-.71705-.13707-.80126.1218-.20152.61953.34291.28459.56888.28555 1.25677.005 1.21347-.49431 5.0416197-1.59674 5.1540897-1.48427.18029.1803-.91343.63515-2.4814597 1.03198-.86315.21844-2.07728.54857-2.69806.73363l-1.1287.33646-1.13511-1.18027c-1.23947-1.28878-2.60459-2.40445-4.34656-3.55232-.61846-.40753-1.12448-.83549-1.12448-.95101 0-.11553.38696-.40905.8599-.65227zM10.277278 59.192784c4.28633-3.43937 13.08623-9.39198 16.66022-11.26966 1.11055-.58345-.40638.47858-2.64583 1.85239-7.98315 4.89734-15.0592497 10.18542-21.0234697 15.71116l-2.39216 2.21629 2.65436-2.61317c1.4599-1.43724 4.49599-4.0909 6.7468797-5.89701zm.58678 104.758666c1.4501.65822 1.70834.64851 1.94769-.0733.17918-.54034.2156-.50997.39445.32894.10837.50833.1428.97849.0765 1.04478-.13266.13266-3.5431197-1.49313-3.5431197-1.68904 0-.067.5060197.10786 1.1244797.38859zm2.73223 13.52012c1.72318-.60319 4.02938-.47122 5.54581.31736 1.51413.78738 1.38931.8348-.80356.30531-2.04837-.4946-4.03484-.49184-4.99118.007-.92184.48078-1.03679.48904-.8976.0645.0596-.1819.57558-.49425 1.14653-.6941zm5.66829-10.61683c.22104-.34202.25704-.33504.26054.0505.002.24608-.11502.52099-.26054.61093-.33485.20695-.33485-.14331 0-.66146zm8.6127-119.428026c.23546-.0904.34167-.046.24897.10398-.0889.14386-.27368.26156-.41062.26156-.38058 0-.29672-.18965.16165-.36554zm1.16967 145.430456c.28598-.46904.79155-.90814 1.12349-.97577 1.8303-.37295 2.85206-.33578 3.9206.14262 1.40864.63066 1.27076.86572-.2088.35597-1.26882-.43714-2.45362-.28992-3.70359.46022-.88013.52818-1.1393.82807-.50541.58482.19496-.0748.5072.048.69385.27289.28797.34699.25432.40892-.22219.40892-.62772 0-.7706.74346-.24407 1.27.50358.50358.64832.40089 1.5105-1.07157.78439-1.33964.80775-1.35611.65644-.46302-.34378 2.02915-1.87948 2.98621-2.99758 1.86811-.68571-.68571-.6944-1.75243-.0232-2.85319zm1.06555-146.652416c.58208-.29696 1.05833-.48039 1.05833-.40763 0 .0728-.47625.37525-1.05833.67221-.58208.29696-1.05833.48039-1.05833.40763 0-.0728.47625-.37526 1.05833-.67221zm4.10804-2.06557c.0815.0815-.0654.22941-.32632.32876-.37708.14359-.40747.1132-.14811-.14811.17948-.18082.39297-.26211.47443-.18065zm.80049-.41664c.23546-.0904.34167-.046.24897.10399-.0889.14385-.27368.26155-.41062.26155-.38058 0-.29672-.18965.16165-.36554zm14.43664 120.512346c.44221-1.26853.5312-.84484.10791.51374-.20223.64904-.37565.98948-.38538.75653-.01-.23294.11513-.80457.27747-1.27027zm27.70091 4.14721c1.66246-1.55505 2.38605-1.95236 2.5896-1.42193.30271.78886-.0234 1.3275-.91407 1.50966-.49191.1006-1.3427.62826-1.91663 1.18869-.89428.87324-1.03206.9348-1.03206.46113 0-.31177.54707-1.05839 1.27316-1.73755zm-109.78162 10.82658c1.18073 2.83537 2.08419 4.30646 4.76128 7.7527 3.94653 5.0804 8.6908 9.26187 14.39323 12.68578 6.1026803 3.66425 14.4050903 5.93908 24.13415 6.61269 7.84468.54313 10.04538.98528 12.19749 2.45061 1.94107 1.32164.63226 2.05439-2.8485 1.59475-1.06736-.14094-1.99287-.20922-2.0567-.15172-.0638.0575.14453.64089.46302 1.29644.81593 1.67943.77173 2.07617-.20947 1.87993-.97939-.19588-1.37414.39674-1.15672 1.73653l.1502.92562-1.15299-.17975c-.63414-.0989-1.73367-.43912-2.4434-.75613-.70972-.31701-1.3348-.57638-1.38906-.57638-.34697 0 .0687.67216 1.17322 1.89691 1.51269 1.67742 2.29581 2.78192 2.5477 3.5932.1602.51598.0897.59531-.52937.59531-.39281 0-1.12148-.25171-1.61925-.55935-.49777-.30764-.97254-.49184-1.05505-.40934-.31776.31776.93104 1.94701 2.36487 3.08535l1.49968 1.19063-.71888.3188c-.39538.17533-1.13559.32241-1.64491.32683-1.16335.0101-6.4551297-1.75687-9.0323497-3.01597l-1.94786-.95163 1.71979 1.61031c3.39838 3.18202 7.0616797 5.14745 12.1645597 6.52652 2.16275.58448 3.0822.68296 6.48857.69498 3.46446.0122 4.30494-.0743 6.61458-.68093 4.86995-1.27911 9.43056-3.39803 13.36146-6.20794 2.25886-1.61469 5.55625-3.36534 5.55625-2.94992 0 .12237.62508.62332 1.38906 1.1132.76399.48988 2.08265 1.33686 2.93036 1.88216 3.419 2.19935 11.57139 5.53119 23.46183 9.58873 3.0844 1.05253 2.93328 1.21845-.92604 1.01671-5.93093-.31003-10.56806.42846-15.0436 2.39577-2.532 1.113-3.84876 1.99916-5.74821 3.8685-.79892.78626-1.68635 1.52625-1.97205 1.64442-.41.16958-.0794.35466 1.56847.87819l2.08795.66334-.96107.3304c-1.156.39741-2.28878 1.11002-2.28878 1.43983 0 .34515 2.47918 1.20894 4.59149 1.59976 1.0757.19902 2.7978.28059 4.23333.20052 3.59906-.20076 1.84421.32248-2.07795.61957-1.74625.13227-3.8932.3121-4.77101.39962-1.16275.11592-1.87182.0439-2.612-.26539-.55879-.23348-1.44793-.42186-1.97586-.41862-1.54587.009-2.73464 1.30805-2.05203 2.24156.29605.40488.60468.41901 3.28917.15064 3.1166-.31157 4.00336-.19123 7.19569.97652l1.19062.43553-2.64583.4604c-6.81588 1.18602-6.34685 1.14475-7.59423.66837-1.58202-.60418-2.02311-.56002-2.21943.22221-.4323 1.7224.69904 4.03692 3.12041 6.38381 5.7032 5.52779 14.02767 7.64739 24.15575 6.15061 3.32622-.49157 7.31162-1.88976 10.85258-3.8074 6.66717-3.61066 13.60686-10.37667 17.597742-17.15734.74034-1.25788 1.42845-2.28626 1.52913-2.2853.10068.00097 1.84993.44173 3.88722.97947 3.69694.97581 3.71475.97772 9.12812.97454 3.0551-.002 5.922-.12995 6.56432-.29345 1.10415-.28106 1.14882-.26795 1.40669.41277.43874 1.15822 1.26329 1.83342 3.24783 2.65959 3.51583 1.46364 7.06372 1.68448 9.53067.59323 1.3428-.59398 4.18308-3.04318 4.45856-3.84465.25166-.73218 5.55252-3.33197 9.73934-4.77665 3.31066-1.14235 5.55419-2.52613 7.9379-4.89599 3.48981-3.46954 4.72845-6.0643 4.93182-10.33144.25006-5.24679-.59356-8.23489-4.18316-14.81667-.99206-1.81901-2.35606-4.55744-3.03112-6.08541-.67506-1.52797-1.39916-2.97036-1.60911-3.20531-.20994-.23495-.9447-.49386-1.63279-.57535-3.37049-.39919-7.20357-2.76225-11.81228-7.28218l-3.05184-2.99305 1.24105-.54898c.79714-.35261 1.27522-.44645 1.33659-.26236.29344.88034 2.24969 3.50785 3.2896 4.41839.66341.58087 2.48831 1.70466 4.05534 2.49731 4.56367 2.30843 7.00753 2.1517 7.00102-.44899-.002-.62198-.29491-1.4858-.78624-2.31511-.99606-1.68126-1.20465-1.92385-2.65086-3.08297-1.57894-1.2655-2.78266-1.84509-5.95312-2.86639l-2.64584-.8523-2.57883.33466-2.57883.33467-4.03575-3.95895c-5.12044-5.02298-9.14794-7.72528-14.75138-9.8976l-1.19062-.46157-.06-2.07791c-.23324-8.07987-2.36616-17.61138-6.29688-28.13935-4.35836-11.67331-12.14956-25.87456-17.201232-31.35313-1.31903-1.4305-1.31995-1.42366-.17747 1.32292 1.72051 4.1362 2.25838 8.11389 1.54847 11.45149-.79321 3.72928-2.96408 6.96773-5.39572 8.0492-.61846.27506-1.13709.64337-1.15251.81846-.0734.83364.11415 1.98982.45613 2.81153.35664.85698.34169.94246-.27805 1.58933l-.65496.68363.49436 2.24714c.66372 3.01695 1.26561 4.32344 3.29179 7.14521 3.29499 4.58879 4.65626 7.6865 4.65626 10.59576 0 1.54412-.5881 3.42387-1.07119 3.42387-.18284 0-.18169-.16564.004-.51177.39971-.74686.33505-2.62301-.14712-4.26885-.44714-1.52627-2.21061-4.65362-4.46563-7.91938-2.85565-4.1356-4.29915-7.44105-4.59866-10.53037l-.19752-2.03733-.58178 1.19062c-.47889.98006-.91553 1.37779-2.4689 2.24896-2.43042 1.36303-3.54135 2.66711-4.24467 4.98265-.71598 2.3572-.55975 4.43912.48639 6.48145.6559 1.28048.97945 1.58766 2.60116 2.46952 1.01864.55392 1.69015 1.00898 1.49224 1.01123-.53098.006-3.24414-1.49115-4.3418-2.39593-1.16862-.96328-2.36839-3.33228-2.40556-4.7499-.0152-.57868-.10657-1.05215-.2031-1.05215-.0965 0-.53282.40696-.96954.90436-.96555 1.0997-1.90257 3.50103-2.09972 5.38104-.11602 1.10634-.2166 1.33188-.492 1.10332-.19039-.15801-.48699-.72426-.6591-1.25832-.66278-2.05653-.77792-2.12144-1.45762-.82181-.33762.64554-.61923 1.6406-.6258 2.21125-.0102.88874.15573 1.19822 1.15736 2.15795 2.25433 2.16002 5.2561 3.46838 13.60433 5.92962 4.93283 1.4543 9.56351 3.11531 12.743022 4.57085 1.09141.49963 3.53219 1.41628 5.42396 2.037 1.89177.62071 3.8563 1.35632 4.36562 1.63469l.92604.50613-1.05833-.0935c-.58208-.0514-3.20146-.52587-5.82083-1.05433-2.61938-.52846-6.727032-1.27887-9.128132-1.66759-2.40109-.38872-4.54422-.77001-4.7625-.84732-.2437-.0863-.16467.11473.20476.5209.67838.74584 1.0022 1.70859 1.39565 4.14946.32425 2.01161 1.0184 3.45584 2.43362 5.0634.57649.65484 1.33543 1.75617 1.68653 2.44739.63565 1.25145 1.35227 1.75457 1.02345.71855-.10738-.33831.1183-1.15607.60763-2.20175.87094-1.86116 2.339402-3.24635 4.359432-4.11223 1.17167-.50224 1.35588-.51105 3.22185-.15403 3.6243.69344 4.49765.99743 5.70458 1.98561.65485.53616 1.88182 1.36186 2.72662 1.8349.91758.51379 1.78343 1.24834 2.15058 1.82445 4.88624 7.66738 5.78499 8.76334 8.15478 9.94426 1.66266.82854 1.21172.9066-.5333.0923-1.61831-.75515-3.35147-2.51316-6.21569-6.30482-1.98712-2.63056-2.57279-3.21606-4.22864-4.2274-1.7302-1.05674-2.08052-1.17205-3.50956-1.1552-.87312.0103-1.91286.11041-2.31052.22247-.52418.1477-1.19804.0136-2.45018-.48769-2.35127-.94128-3.34065-.91245-4.21169.12271-.94932 1.12821-1.07811 1.87913-.71875 4.19063.31815 2.04641 1.17578 4.00985 2.81904 6.45384.97534 1.4506 4.06065 4.73607 5.42575 5.77775 1.37649 1.05037.75082 1.20606-1.12812.28073-2.07125-1.02004-5.35651-4.01694-6.71534-6.12592-.61072-.94786-1.217132-1.5979-1.491962-1.59927-.62837-.003-2.42998 1.842-3.12089 3.19629-1.1845 2.32181-.94349 6.96411.5894 11.35349.43197 1.23693 1.08524 3.14193 1.45172 4.23333.36647 1.09141.7353 2.16297.81962 2.38125.0843.21828.22568-.15253.31413-.82402.33651-2.55463 2.896802-6.62499 5.552342-8.82713 2.08962-1.73285 5.76884-3.25803 9.27649-3.84548 2.17445-.36416 6.78887-.19325 7.25068.26856.18816.18816.021.22293-.53613.1115-1.30921-.26184-5.61539.38053-7.96399 1.18802-4.98103 1.71255-9.12178 4.92994-10.85117 8.43143-.97844 1.98105-.99623 2.07175-.99464 5.07222.002 2.95112.0328 3.11815.91809 4.90719.64971 1.313 1.53488 2.47179 3.04109 3.98116 2.4557 2.46084 4.77107 3.79942 7.98227 4.61474 1.95175.49555 1.99022.51851.62464.37279-1.7112-.1826-4.98131-1.24235-6.48229-2.10072-1.17138-.66989-1.08243-.67979-6.53741.72764-3.999742 1.03196-6.247342 3.16681-6.682292 6.34707-.2331 1.7044.36779 2.3185 2.30564 2.35628 1.16277.0227 1.25975.0586.59531.22032-1.75529.42732-3.47059 1.57796-3.85651 2.58697-.22767.59523.15946 2.19271.53137 2.19271.10723 0 .50763-.35092.88978-.77981.95006-1.06628 2.01428-1.20586 6.150262-.80665l3.50769.33856 2.08489-1.07344c2.37344-1.222 4.09346-1.71906 7.95484-2.29882 3.35951-.50441 5.23025-.5017 2.58143.004-4.04641.77212-9.19593 2.78591-11.55826 4.52002-1.15856.85046-1.32873.89993-2.23495.64971-1.11278-.30726-2.89049-.0169-4.245792.69344-.63869.33475-.9102.71531-1.12829 1.58142-.31919 1.26762-.42012 1.31007-1.77186.74528-4.12402-1.72313-5.95874-5.50366-4.66413-9.61066l.45819-1.45352-.78892-.54521c-.4339-.29986-1.64877-1.42132-2.69972-2.49214l-1.91082-1.94694-.99958.35053c-2.01548.7068-4.04233 3.55947-4.04233 5.68934 0 .34234-.15972.61433-.36076.61433-.28996 0-.3126-.27257-.11538-1.38906.46486-2.63166 1.86976-4.8459 3.65132-5.75478l.99194-.50605-.60534-1.26829c-1.10125-2.30731-1.09478-2.96688.0506-5.14982.59209-1.1285 1.77208-2.73472 2.82234-3.84182 1.4536-1.53226 2.28042-2.13854 4.24845-3.11525 1.49391-.74141 2.97766-1.27598 3.81774-1.37548.75578-.0895 1.37414-.25892 1.37414-.37647 0-.11755-.31576-.78558-.70169-1.4845-2.29328-4.15319-3.34678-6.40243-4.31799-9.21907-.59976-1.73937-1.20127-3.27328-1.33668-3.40869-.36823-.36822-3.08331-.22349-4.46728.23813-1.79445.59856-3.68474 2.16802-4.62835 3.84282-.76513 1.35802-.81811 1.62307-.7934 3.96875.0207 1.9639.18495 3.00532.75113 4.7625.73433 2.27902 2.2568 4.95909 3.45837 6.0879 1.25755 1.18141.6854 1.87929-.88421 1.07854-1.19623-.61027-5.03306-1.15888-6.39036-.91373-3.22763.58298-5.55159 3.24265-5.16443 5.91048.40092 2.76263 2.99001 6.69378 6.13314 9.31223.75334.62759 1.33042 1.18035 1.28241 1.22836-.29692.29692-2.41542-1.25988-4.12726-3.03297-2.24808-2.32852-3.59282-4.22038-5.29943-7.45555-.63961-1.2125-1.91501-3.20679-2.83423-4.43177l-1.6713-2.22725h-2.2398c-2.64191 0-3.74988.38849-4.63087 1.62372-.53489.74996-.63434 1.20174-.63272 2.8742.001 1.30932.16669 2.38941.48628 3.175.62675 1.54067 2.32758 4.06496 3.69915 5.49011 1.36585 1.4192.90811 1.46843-.67737.0728-1.7532-1.54323-4.08575-4.7148-4.79095-6.51423-.33871-.86429-1.03829-2.16468-1.55461-2.88976-.51633-.72508-1.26354-1.97318-1.66047-2.77354-1.03359-2.0841-1.626-2.6488-2.75997-2.6309-1.43215.0226-2.74382.56994-3.13451 1.30798-.38144.72056-.25458 3.42387.21914 4.66986.14537.38236.20387.75564.13.82951-.21584.21584-1.9902-1.07046-3.8898-2.81986-1.04864-.96573-1.99691-1.62118-2.34545-1.62118-.3218 0-1.16675.31658-1.87766.70351-.99043.53906-1.29258.85137-1.29258 1.33606 0 .98801.69362 2.08873 1.71338 2.71897 1.09408.67618 1.20042.8865.2692.53245-1.47585-.56112-2.18588-1.08242-3.70237-2.7183-2.94335-3.17507-4.10164-4.64958-4.43285-5.64303-.28326-.84965-.5158-1.05399-1.65257-1.45225-1.4504-.50814-3.22898-.62971-3.81209-.26056-.51954.3289-1.61186-.21659-1.61186-.80494 0-.32601.33285-.57581 1.05594-.79245l1.05594-.31637-1.38667-.91235c-1.60834-1.0582-1.70206-1.17955-1.92356-2.49059l-.166-.98256-1.0242.53384c-2.97193 1.54906-14.4558597 2.21447-20.8947897 1.2107-8.99017-1.40147-15.8487403-4.31371-21.9604103-9.32465-2.73863-2.24539-4.23739-3.73597-7.30655-7.26665-4.72091-5.4308-7.01154-7.62547-6.97282-6.68073.004.10914.46388 1.29286 1.02091 2.6305zm55.79085 40.40411c4.43198-.028 5.23805-.18234 9.45823-1.81091 1.01865-.39309 1.73302-.60709 1.5875-.47554-.577.52157-3.64963 1.64277-6.36584 2.32288-2.44514.61224-3.23442.69758-5.393.58314-2.07156-.10982-3.45772-.33271-3.45408-.5554.00026-.0208 1.87557-.0497 4.16719-.0642zm6.43388 4.37545c1.39254-.28416 3.94355-.99092 5.66892-1.57056 1.72536-.57965 3.18369-1.00723 3.24074-.95019.14128.14128-3.60267 1.5629-5.9194 2.24766-2.18911.64704-6.63449 1.36024-8.16799 1.31045-.7881-.0256-.58543-.0965.79375-.27753 1.01864-.13374 2.99144-.47567 4.38398-.75983zm-2.5319-10.87976c1.16417-.29974 2.62268-.83322 3.24115-1.18551.61846-.35229 1.12448-.58099 1.12448-.50823 0 .66681-5.46809 2.58667-7.11993 2.49981l-.68528-.036.66146-.11252c.3638-.0619 1.61395-.35777 2.77812-.65752zm45.01229 38.91729c3.82009-.95462 7.45732-2.9514 10.34512-5.67931 1.6246-1.53464 1.83375-1.51162.32633.0359-3.31028 3.39836-7.01658 5.33136-12.15978 6.34183-1.69054.33214-.61391-.1731 1.48833-.69844zm30.125762-105.23888c.0708.0708.64882 1.37054 1.28455 2.88837 1.66711 3.9803 2.09584 5.91927 2.09213 9.46202-.004 4.25238-.46967 4.3353-.68551.12219-.19215-3.75054-.7953-6.80545-1.97428-9.99952-.78592-2.12919-.95447-2.71064-.71689-2.47306zm6.05358.2241c.1891 0 1.20967 3.08144 1.88377 5.68773.90433 3.49643 1.40615 6.69253 1.5696 9.99681.15062 3.0449-.0213 2.35858-.78087-3.11683-.52247-3.76641-1.48016-8.37453-2.1995-10.58333-.55729-1.71122-.6224-1.98438-.473-1.98438zm11.59444 80.51719c.21106.0845.14837.14715-.15986.15985-.27891.0115-.43518-.051-.34726-.13897.0879-.0879.31612-.0973.50712-.0209zm7.63878 12.0221c5.92787-1.74331 8.24414-1.94104 11.48113-.98008 2.16922.64397 3.21985 1.3752 3.46425 2.4111.12299.52132.0157.85522-.41232 1.28324l-.57856.57857-.46482-.75408c-1.17936-1.9133-2.52731-2.32174-7.68432-2.32839-2.90051-.004-4.20141.107-5.33239.45395-1.74914.53659-2.42513.58042-2.28096.14791.057-.17105.87061-.53655 1.80799-.81222zm3.15745 3.75232c1.18277.45612 3.12278.95123 4.31113 1.10023 1.18835.14901 2.21309.32337 2.27718.38746.27307.27307-3.16376.0757-4.83035-.27739-1.7018-.36056-4.34335-1.60472-4.04356-1.9045.0743-.0743 1.10284.23807 2.2856.6942zm3.97082-1.95008c1.64783.43659 3.32435 1.12656 3.13344 1.28955-.0499.0426-1.58704-.2936-3.41586-.74712-2.62328-.65053-3.12591-.84289-2.38125-.91134.51913-.0477 1.71779.11829 2.66367.36891zm12.68-53.34131c.91306.46581 3.61113 1.60877 6.34055 2.686.34761.13718.5794.30204.5151.36634-.17301.17301-4.59476-1.51445-6.53169-2.49268-.92423-.46678-1.62038-.90873-1.547-.98212.0734-.0734.62376.11672 1.22304.42246zM3.1508383 147.12731c.15978-.0987.90369.42288 1.65365 1.15951 1.75359 1.72244 3.8375 2.95972 7.1976697 4.27348 4.52397 1.76879 6.42815 1.97042 14.66633 1.55303 3.85874-.1955 7.99072-.35546 9.18218-.35546h2.16629l-1.37254-.46485c-.7549-.25566-3.53823-1.06014-6.18517-1.78772-7.83242-2.15295-10.6419-3.26717-14.48265-5.7437-2.57422-1.65986-4.48951-3.74834-5.63379-6.1432-.5256097-1.10007-1.0847197-2.08759-1.2424697-2.1945-.50386-.3415-3.06437-.21637-3.84627.18797-1.05083.54341-1.93665 2.07752-1.93665 3.35401 0 1.54814.31647 1.70046 1.88329.90649.74045-.37521 1.49907-.68148 1.68581-.68058.18674.00079-.0174.18774-.45364.41519-1.18565.61822-1.66792 1.13607-2.0027 2.15048-.16624.50369-.58601 1.41203-.93282 2.01852-.68784 1.20288-.79736 1.62997-.34652 1.35133zm14.0405397 47.11182c.55469 1.00539 1.63452 1.9732 2.53211 2.26943.72136.23807 1.29825.20368 2.89624-.17264l1.99546-.46992-1.18354-.60149c-1.34128-.68166-2.0504-1.85805-2.0504-3.40149 0-.95857-.013-.97051-.8599-.79309-1.66959.34977-3.10311 1.13529-3.37451 1.8491-.3105.81668-.31553.66747.0445 1.3201zm6.24039-62.51173c.25466.22486 1.58193 1.02682 2.94949 1.78214 5.89695 3.25697 6.99055 4.36046 7.35283 7.41938.14009 1.18282.0856 1.35727-.65571 2.09857-1.03584 1.03584-2.32331 1.0803-3.93482.13589-.63125-.36993-1.14773-.56529-1.14773-.43412 0 .60639 2.33506 2.78672 4.17802 3.90117 4.43351 2.68098 8.38819 6.24423 10.01943 9.02773.56747.96831.77226 1.12777 1.24454.96907.31092-.10448 3.1649-.16287 6.34218-.12976 5.55893.0579 9.45227-.18772 12.67781-.79991.83675-.15881 1.52136-.31195 1.52136-.34032 0-.0284-.66449-1.29119-1.47663-2.80627-2.64327-4.9311-5.07169-7.87372-8.90695-10.79297-2.99205-2.27743-6.14822-3.7227-12.10919-5.545-12.1156-3.70382-18.51765-5.43556-18.51765-5.00898 0 .063.20836.29852.46302.52338zm13.1954 10.35124c5.81103 2.15221 8.26175 3.40873 10.62458 5.44741 1.78631 1.54125 6.13122 6.89328 5.59614 6.89328-.14454 0-.64593-.16235-1.1142-.36077-.79898-.33855-1.7642-1.30321-5.15987-5.15685-1.69902-1.92817-3.24599-2.97815-7.73683-5.25125-3.3794-1.71052-4.24315-2.32489-2.20982-1.57182zm15.15117.16985c.12902 0 1.0067.77592 1.95039 1.72427 2.18057 2.19132 3.61492 4.89978 3.82567 7.22399.19089 2.10522-.24001 2.1261-.63818.0309-.34663-1.82396-1.65745-4.18528-3.88297-6.99481-1.62464-2.05098-1.58252-1.98438-1.25491-1.98438zm-9.37711 60.32501c.52822 1.87649 1.07614 3.00926 1.92898 3.98799.43459.49874 1.00575 1.32352 1.26925 1.83284l.47908.92605.24126-.91638c.51183-1.94403 1.11861-2.41125 4.14627-3.19258l1.17129-.30227-.87359-.68369c-1.01292-.79273-2.12411-2.99408-2.12785-4.21543-.002-.79847-.0674-.8534-1.2117-1.02501-2.40439-.36056-5.45105.76087-5.38181 1.98096.013.22929.17448.95268.35882 1.60752zm1.45646-11.51617c1.26913.65629 1.90025.49564 3.15446-.80296.63631-.65884 1.11256-1.23691 1.05833-1.28461-.0542-.0477-1.09135-.17061-2.30471-.27316-2.0136-.17017-2.1983-.14609-2.11667.27595.0492.25431.62522.7363 1.28007 1.07109 1.32303.6764.78763.84926-.70227.22674-1.16349-.48614-1.14982-.48606-1.14982-.007 0 .21454.35128.57173.78061.79375zm7.91915 10.72242c.53112 1.34861.41011 1.33974 3.28788.24112 2.11098-.80588 5.29846-1.36523 6.29493-1.10465.54578.14272.54764.13011.10641-.72313-.34241-.66215-.407-1.20508-.27194-2.28604.17214-1.37775.15611-1.42568-.56943-1.70309-1.3169-.5035-5.61081-.44017-7.01988.10354-2.18742.84406-2.85895 2.85437-1.82797 5.47225zm3.50406 6.52594c.60023 1.14016 1.12676 2.11337 1.17006 2.1627.0433.0493.52692-.40642 1.0747-1.01275 1.24134-1.37401 2.91201-2.22775 5.10192-2.60716.93012-.16114 1.75304-.35491 1.82872-.43059.0757-.0757-.0223-.62198-.21765-1.21401-.67418-2.04279-2.73164-3.0623-5.7038-2.82632-2.09972.16671-3.40095.79945-3.92795 1.91002-.6083 1.2819-.53434 1.72281.674 4.01811zm3.73733-42.58138c.47294-.0715 2.08028-.28926 3.57187-.48393s2.71198-.45716 2.71198-.58331c0-.43196 3.3063-3.67606 4.23334-4.15371l.92604-.47713-.9589-.18082c-.52739-.0994-2.43239-.20014-4.23333-.22376-3.08666-.0405-3.35185-.002-4.62429.66924-1.11734.58952-1.44775.93977-1.91823 2.03343-.31261.72668-.56838 1.8182-.56838 2.42561 0 1.09624.006 1.10342.8599.97438zm-.0575 21.56595c.31537 1.87298 1.047 3.91139 1.81837 5.06622.37757.56527.8802 1.31741 1.11695 1.67141l.43046.64364.54507-.87766c1.85718-2.99043 6.47258-5.49072 9.42219-5.10426.73846.0968 1.61054.34593 1.93797.55371.71757.45539.71715.4682.0661-2.01566-.66378-2.53256-.66619-4.56734-.007-6.01927.30188-.66507.39383-1.12448.22507-1.12448-.34788 0-14.71487 2.86934-15.36534 3.06873-.36889.11307-.4567.42071-.43191 1.51316.0171.75418.12608 1.93519.24215 2.62446zm4.41677 12.63741c.0827.21828.47182 1.11125.86473 1.98437.39291.87313.92735 2.15305 1.18763 2.84427.26029.69123.54637 1.25581.63574 1.25463.0894-.001.17805-.69604.19707-1.54414.091-4.0563 3.78496-7.67891 8.0888-7.93251 1.16061-.0684 2.18914.0372 2.97657.30546.66174.22548 1.20317.34939 1.20317.27534 0-.074-.36575-1.0132-.81278-2.08701-1.26442-3.03728-3.07901-4.41082-6.3101-4.77638-3.21782-.36405-6.12009 1.12147-7.49534 3.83651-.6124 1.20898-.7243 1.75361-.70672 3.43951.0115 1.10169.0885 2.18167.17123 2.39995zm4.94813 6.87917c.43405 1.56398 1.11139 2.87301 1.95092 3.77031.75269.80449 1.11091.91958 1.11091.3569 0-.47641 2.72993-2.84546 4.10364-3.56116.58065-.30252 1.99592-.72984 3.14503-.94959 2.34503-.44846 2.59586-.58054 1.97065-1.03771-.39941-.29205-1.51938-3.55246-1.94608-5.66532-.10112-.50071-.45546-1.05232-.83624-1.30182-.86502-.56678-4.33279-.76957-5.90328-.3452-1.51176.40849-3.27315 2.12117-3.67678 3.57508-.37644 1.35599-.34049 3.63893.0812 5.15851zm7.19045-20.63751c.4076 2.30442 1.65222 5.30063 3.23029 7.77645l.82488 1.29414.47217-.85745c1.86348-3.38405 5.9073-6.32234 9.67352-7.0289l.99853-.18732-.92851-1.13313c-1.01227-1.23534-3.31825-5.75918-3.31825-6.5097 0-.82311-.50632-.81278-1.01318.0207l-.49217.8093-.82389-1.32538-.8239-1.32537-1.53228.0116c-2.73959.0208-5.28038 1.36655-6.00659 3.18153-.63343 1.5831-.69457 2.8202-.26062 5.27352zm11.51826 32.53268c.42097 1.06511 1.12748 2.00084 2.69195 3.5653l2.12117 2.12118.48372-1.13897c.63081-1.48531 2.98681-3.7672 4.81104-4.65971 1.64506-.80485 5.502052-1.55357 7.299742-1.41702l1.20905.0918-2.24994-2.25233c-2.28988-2.29232-3.796682-4.6565-4.513042-7.08098-.3219-1.08948-.36651-1.12447-1.43297-1.12447-3.60247 0-8.14989 2.75414-10.18426 6.16809-.87608 1.47018-.97472 3.85922-.23646 5.72708zm.52243-40.87736c.50525 3.46801 1.50473 5.79263 3.46163 8.0512.55361.63895 1.00656 1.42417 1.00656 1.74493 0 .52243.72171 1.45897 1.12429 1.45897.0861 0 .23838-.38695.33834-.85989.36087-1.70725 1.77263-3.93097 3.16122-4.97936.73741-.55676 1.63583-1.13149 1.99647-1.27718l.65572-.26489-.60887-.18021c-.38854-.115-.88228-.71827-1.36445-1.66715-.41557-.81782-1.63541-2.67758-2.71076-4.13279-1.07536-1.4552-2.23945-3.15184-2.58688-3.77031-.34743-.61846-.73357-1.12448-.85809-1.12448-.12452 0-.66814.22999-1.20805.51109-1.14015.59361-2.12284 1.94553-2.45534 3.37794-.26161 1.127-.26407.96866.0482 3.11213zm.0668-13.1132c.38548.31727.60949.31727 1.56573 0 1.02572-.34033 1.05749-.37698.39304-.45351-.39758-.0458-1.10216-.0458-1.56573 0-.76374.0754-.80063.11802-.39304.45351zm67.393812 97.92247c1.40583-6.51229 2.2583-12.84068 2.52456-18.74134.0996-2.20706.25827-4.01283.3526-4.01283.34594 0 3.96187-2.55491 5.61692-3.96875 3.22771-2.7573 5.82685-6.3218 6.31709-8.66335.38518-1.83978.19619-7.39991-.4175-12.2828l-.4212-3.35135.90926-1.80802c.50009-.99441 1.69324-3.61958 2.65144-5.83372 1.50755-3.48352 2.32534-5.7935 5.21813-14.7395.95628-2.95731.39053-2.21206-2.39491 3.15478-1.05738 2.0373-2.60952 5.01386-3.4492 6.61459-3.87264 7.3826-4.49925 8.65556-4.97685 10.11037-.79342 2.4169-.89891 3.93168-.44749 6.42608.5791 3.19999.78927 8.01313.43324 9.92188-.66662 3.57391-2.89082 6.49727-7.63373 10.03331-2.86966 2.13945-4.31419 4.004-4.45909 5.75562-.0521.62942-.14284 6.20456-.20171 12.38919l-.10705 11.2448z" style="fill:#f1f2da;fill-opacity:1;stroke-width:.264583" transform="translate(55.510282,-31.172884)"/></svg>