<svg xmlns="http://www.w3.org/2000/svg" role='img'
aria-labelledby="Silhouette of fancy koi fish" viewBox="0 0 164.83569 208.54503"><path d="M70.10076 30.799534c-6.41526 1.14765-11.48321 3.39103-17.4625 7.72996-5.12338 3.71783-8.93397 7.3288-12.08048 11.44764-1.43019 1.87215-4.98514 7.50931-4.98514 7.90505 0 .10377.74414.40876 1.65364.67776 2.3072.68239 3.93944 1.39305 4.5827 1.99525.54343.50874.55276.50754 1.1706-.15011.74809-.79631.82505-.80042 2.85373-.15233 2.12032.67736 4.28699 1.6823 6.02732 2.79557 1.93313 1.23661 3.9711 2.25007 4.52467 2.25007.25154 0 .76948-.29905 1.15098-.66455.54006-.51741 1.48056-.83963 4.24781-1.45533 4.84724-1.07848 6.93731-1.87751 8.97813-3.43232 2.16496-1.64938 5.73179-4.93141 5.55625-5.11261-.0728-.0751-.78714.0194-1.5875.20997-6.37187 1.51729-7.75917 1.87608-9.37123 2.42361-1.00683.34196-1.87572.57663-1.93087.52148-.26854-.26854 5.96174-2.19319 10.77293-3.32796 1.84375-.43486 2.67218-.76591 3.10886-1.24232.75005-.8183.75189-1.27405.007-1.7956-1.54725-1.08374-8.10373.294-13.30258 2.79532-.87313.42008-1.34938.57465-1.05834.34348.29105-.23117 2.01137-1.13634 3.82295-2.01147 2.64914-1.27975 3.63527-1.92084 5.03861-3.27566 1.87417-1.80935 2.79894-2.30865 5.69053-3.07238 1.80568-.47692 1.81861-.48625.51615-.37247-3.13394.27377-10.27419 3.18132-14.06376 5.72684-.69798.46884-1.09047.67344-.87218.45466.37238-.37324 1.70744-1.32076 5.82083-4.13117.94588-.64627 2.22236-1.6342 2.8366-2.19541 1.71448-1.56644 3.81849-2.80878 5.80825-3.42956 3.37784-1.05383 3.25085-.98961 2.00244-1.01275-1.47026-.0273-7.54736 1.99349-10.57301 3.51572-1.27778.64286-3.5734 1.89786-5.10136 2.78888-1.52797.89102-2.51678 1.39609-2.19736 1.12237.31942-.27371 2.60929-1.70819 5.08859-3.18772 5.66427-3.38016 5.85382-3.5413 6.03275-5.12877.0774-.68642.0646-1.24804-.0284-1.24804-.39918 0-7.90597 4.16593-10.03719 5.5702-1.28272.84518-2.18347 1.35748-2.00169 1.13844.98823-1.19074 12.24172-7.78949 14.37769-8.4307l1.04797-.3146-2.63547-.8344c-3.03656-.96139-3.41218-.99105-4.94521-.3905-1.19423.46783-5.45895 2.96016-7.72132 4.51238-1.23411.84674-1.26902.8566-.41998.11867 1.16883-1.01587 5.62114-3.80398 7.91276-4.95512 4.03936-2.02906 9.95913-3.61972 15.00377-4.03157l2.61576-.21355-1.71979-.20208c-.94588-.11114-2.36674-.31375-3.15745-.45025-2.10622-.36358-8.55378-.25923-10.99776.17798zm-7.54062 21.63417c0 .0549-.20836.2633-.46302.46302-.41965.3291-.42901.31975-.0999-.0999.34564-.44073.56292-.58089.56292-.36312zm8.46666 5.58014c0 .17274-4.30708 1.46948-4.77615 1.43795-.21077-.0142.62881-.36625 1.86574-.78242 2.20965-.74345 2.91041-.90129 2.91041-.65553zm-50.6677-20.88087c-8.26502 1.22426-16.791 5.70468-22.51094 11.82954-1.87392 2.00657-5.2937 6.89464-6.53818 9.34533-.36364.7161-1.21204 2.23264-1.88533 3.37008-4.40202 7.43663-5.63174 12.26439-5.37022 21.08297.15781 5.32164.54529 8.02384 2.08302 14.52649.60554 2.56069 1.32074 5.608296 1.58933 6.772456l.48835 2.11667-.14486-2.38125c-.0797-1.30969-.43188-4.702966-.78268-7.540616-.93339-7.55013-1.27318-12.25334-1.145-15.84854.0625-1.75213.18618-3.25829.2749-3.34701.27353-.27353 1.53029.70664 2.44937 1.91032.7939 1.03975.87742 1.32272.90391 3.06252.0551 3.61876.9145 6.75498 2.75095 10.03885 1.20534 2.15535 2.2575 3.09422 5.02965 4.48803 1.82669.91843 2.62649 1.5594 5.07956 4.070806 1.60132 1.6394 3.20916 3.13639 3.57296 3.32663.3638.19024 1.67306.41044 2.90947.48933l2.24801.14343.49043 1.05833c.76013 1.64038 1.44724 2.24939 2.53415 2.2461 1.18233-.004 3.26706-.62501 4.46209-1.3301l.90922-.53645.93888.73627c.51638.40495 1.62359 1.27205 2.46046 1.92689.83687.65485 2.63339 2.0957 3.99225 3.2019 5.64596 4.59615 13.95121 9.97269 19.43752 12.58319 3.01822 1.43614 9.06452 3.90619 13.06335 5.33668 9.57686 3.4259 12.12499 4.71363 4.2734 2.15963-3.14253-1.02223-4.44253-1.32098-5.74807-1.32098h-1.6871l.15061.8599c.32476 1.8541 1.73507 6.91938 2.21674 7.96162.27968.6052.91728 2.07854 1.41688 3.2741 2.09832 5.02131 7.25494 12.48569 12.20697 17.67 1.60241 1.67757 1.6056 1.59608.0199-.50812-1.38393-1.83652-2.42346-4.00372-2.94091-6.13122-.24444-1.00503-.79807-2.83935-1.23029-4.07628-1.14007-3.26269-1.16552-3.5822-.0964-1.21039 1.14063 2.53052 1.58735 3.06247 2.57175 3.06247.93132 0 .96826-.48129.22016-2.86784-.7286-2.32433-.65169-3.20902.0951-1.09381.78903 2.23485.87124 2.37069 2.40063 3.96653 1.34452 1.40293 2.92044 2.37637 3.84715 2.37637.74679 0 .68821-.17659-.47849-1.44231-1.32217-1.43438-2.24616-3.04674-2.94387-5.13701-.72231-2.16396-.52813-2.40167.25383-.31073 1.23564 3.30405 3.69806 6.39666 6.30897 7.92357.97069.56767 2.05644 1.11867 2.41277 1.22444l.64787.19231-.69347-.82413c-.76223-.90587-1.69779-3.18713-1.94752-4.74885-.088-.55031-.0205-1.51864.15001-2.15184.19509-.72449.21572-1.21079.0557-1.3118-.13989-.0883-.5098-.7057-.82202-1.37204-.40075-.85528-1.0516-1.56865-2.21345-2.42608-1.82901-1.34979-4.66081-3.87233-4.36805-3.89102.10347-.007.84987.52698 1.65866 1.18575.80879.65877 3.10537 2.40571 5.10353 3.8821 3.98593 2.94512 6.08095 4.93703 9.82337 9.33993 5.460477 6.42419 5.119497 6.10604 8.048287 7.50932 3.079243 1.47538 4.527463 2.65395 6.613843 5.38242 2.51155 3.28451 4.32302 7.69503 4.91998 11.9791.51432 3.69091.95016 9.5937.93773 12.7l-.0127 3.175.45624-2.24896c.25093-1.23693.88173-3.79561 1.40177-5.68595 1.01262-3.68089 1.14997-5.5031.67827-8.99843-.6554-4.85647-.65329-4.6302-.0431-4.6302.30596 0 .67778.227.82626.50445.94424 1.76431 1.25192 15.82298.44642 20.39763-.63067 3.58175-1.63756 6.5762-3.33624 9.92187-3.80687 7.49787-9.15521 12.55478-16.076853 15.20084-1.56652.59886-3.230667 1.25935-3.698097 1.46776-.56335.25117-.90675.28691-1.01855.10601-.22305-.36091-4.05723-2.22346-7.52428-3.65512-2.89467-1.1953-11.57102-5.22848-12.04811-5.60053-.15078-.11759-1.08136-.43492-2.06797-.70518-1.65778-.45413-1.87777-.60305-2.90085-1.9637-.99406-1.32206-3.61716-4.28866-15.15108-17.13511-8.79118-9.7916-16.92946-15.35499-27.89241-19.06746-1.81901-.61599-3.99865-1.44561-4.84365-1.8436l-1.53636-.72362.90332.95257c2.6826 2.82884 5.17236 6.35137 15.35359 21.72235 6.62652 10.0043 11.26637 15.37492 17.64146 20.41996 4.44789 3.51991 9.8194 6.64838 13.62435 7.93507 1.16416.39368 1.93807.72246 1.71979.73062-1.28963.0482-8.3778-3.03746-12.56245-5.46876-5.0003-2.90519-10.27554-7.39047-13.41932-11.40979-.75544-.96583-1.95431-2.48528-2.66414-3.37654-1.82984-2.29756-5.20155-7.20239-6.97977-10.15347-1.94193-3.22277-6.21042-10.15282-6.34215-10.29671-.63806-.69696.86882 4.28647 2.35346 7.78316 2.69917 6.35724 6.84352 13.40974 10.72812 18.25625 2.13019 2.65768 6.72897 7.18171 9.0425 8.89552 7.35427 5.44788 16.08152 9.1598 25.13541 10.69073 1.09141.18455 1.61058.34775 1.15371.36267-.45687.0149-1.82608-.15935-3.04271-.38727-7.69771-1.44205-13.26319-3.5682-23.27212-8.8905-2.53319-1.34704-5.12793-2.47578-7.54062-3.28025-5.88229-1.96136-8.24821-3.27685-11.6977-6.50411-.8324-.77877-1.96692-1.95173-2.52116-2.60658-.55424-.65484-.86826-.90876-.69784-.56426.74608 1.50806 5.31215 6.2506 9.12157 9.47408 2.59216 2.19346 7.71521 5.98374 9.95066 7.36198 2.39938 1.47932 2.53552 1.62851.75315.82534-.79387-.35774-2.87214-1.03059-4.61839-1.49524-9.51083-2.53067-12.68192-3.7862-17.06563-6.7568-3.31566-2.24684-1.75354-.71107 2.51354 2.47115 6.17696 4.60653 10.73848 7.05182 15.94428 8.54723 1.63884.47077 2.9319.90375 2.87348.96217-.13206.13206-12.35409-2.33356-16.83338-3.3959-4.10517-.97361-7.24574-1.92412-9.17159-2.77582-.81264-.35938-1.5421-.58885-1.62102-.50993-.0789.0789-.0199.1435.13123.1435.1511 0 1.21275.61265 2.3592 1.36145 2.68027 1.75059 8.50135 4.65108 11.82676 5.89297 2.46184.91939 6.77369 2.07562 9.00402 2.41445.56057.0852.95655.21751.87996.2941-.20126.20126-7.74051-.90788-11.18333-1.64524-3.58995-.76887-8.55843-2.25668-11.22106-3.36014-2.89006-1.19772-9.54296-4.52256-12.35457-6.17429-1.33798-.78602-2.50475-1.42913-2.59283-1.42913-.43834 0 .5002.94526 2.75836 2.77812 7.4339 6.03381 14.21526 9.62485 22.44509 11.88572 4.39471 1.2073 7.31605 1.55425 13.33572 1.58379 2.71625.0133 4.91022.0528 4.87548.0876-.28354.28463-7.63809.51506-10.33623.32385-9.08847-.64407-20.50617-4.8633-27.5318-10.17394-3.26401-2.46725-6.84547-5.53983-9.06425-7.77634-1.79805-1.81243-1.65406-1.53765 1.23121 2.34949 3.22308 4.34225 4.47433 5.79354 8.22216 9.53662 7.94123 7.93118 15.88253 11.18771 27.2679 11.18189 7.22748-.004 10.03659-.46568 22.88646-3.76397 7.53884-1.93506 9.49507-2.25094 17.33021-2.79834 6.73595-.47061 15.26104-1.47781 19.058467-2.25168 15.019053-3.06068 28.230473-11.62196 36.052013-23.36244 2.21028-3.31773 5.37976-9.69362 6.66761-13.41291 1.31956-3.81085 3.23619-11.67627 3.70524-15.20548 1.75949-13.23855.77461-27.13469-2.66868-37.65387-1.99881-6.10632-4.9268-12.56988-8.04888-17.76799-4.68744-7.80435-9.96132-15.08954-14.37714-19.86016-8.16009-8.815726-19.825333-19.581576-25.57196-23.600346-6.73672-4.71117-15.64724-8.73785-25.13542-11.35873-3.28084-.90626-4.0712-.9574-9.68309-.6266l-3.46538.20428-.16169-.80846c-.40864-2.04321-3.79962-4.29079-6.47424-4.29118l-1.39585-.00021.38186.7276c.21002.40018.88212 1.20385 1.49354 1.78594 2.12571 2.0237 2.63938 4.4042 1.48441 6.87916-.63186 1.354-2.1931 2.97105-3.54197 3.66857-3.35939 1.73721-8.79076 2.16058-13.00466 1.01372-1.2211-.33234-3.34206-.82495-4.71323-1.0947-1.37117-.26974-2.53468-.53245-2.58557-.58381-.0509-.0514 2.07006-.099 4.71323-.10592 2.64317-.007 5.66627-.1564 6.71799-.3322 3.86496-.64603 6.77392-2.21774 8.12175-4.38818.69166-1.11378.77119-1.46597.75109-3.32627-.0291-2.69523-.52154-3.78517-1.97237-4.36568-1.79594-.71859-4.75097-1.23636-6.59949-1.15633l-1.75555.076-.89029-1.16132c-1.97662-2.57838-6.15966-4.02389-12.13507-4.19345-6.73253-.19104-13.43158 1.13985-17.42922 3.46264-2.53591 1.47347-4.4775 2.06247-7.50776 2.27756-1.75289.12442-2.3151.0847-2.3151-.16342 0-1.50786 4.28229-8.32126 7.43301-11.82638 2.70918-3.01392 8.35954-6.78802 13.60136-9.0849 4.52041-1.98076 11.3538-3.25226 17.72708-3.2985 2.41614-.0175 2.89043-.0723 1.98438-.22926-1.90953-.33076-11.02644-.22094-13.62604.16413zm-1.3099 19.84145c-1.99526.33484-3.93052.49892-4.51094.38244-.63382-.12719 3.33533-.71478 4.8948-.72462l1.71979-.0108-2.10365.35303zm-2.52656 2.10088c0 .0698-.47151.36746-1.04779.66146-1.09961.56097-2.78203.69797-3.44247.28029-.65017-.41118-.0599-.66403 1.93174-.82745 1.04338-.0856 2.04589-.17491 2.22779-.19844.1819-.0235.33073.0143.33073.0841zm8.54851 4.06769c-.28034.3851-1.03307.96763-1.67274 1.29451-1.13329.57912-1.31224.59024-6.99597.43496-3.20811-.0876-6.42824-.25187-7.15584-.36495l-1.32292-.2056 1.71979-.0402c1.80497-.0422 4.30203-.52494 5.7537-1.11229.74987-.30341.96033-.28761 1.65787.12444.52478.30999 1.59659.52364 3.12318.62254 2.0006.12962 2.50063.0725 3.59126-.40989.82298-.36405 1.32139-.76828 1.4221-1.1534.0933-.35693.20166-.45309.27216-.2416.0644.19323-.11225.66641-.39259 1.05151zm30.19141 9.92327c.49866.66789.50905.77761.13617 1.43852-.35561.6303-.56324.71548-1.74398.71548-1.27823 0-1.32442.0245-.99738.52917.1886.29104.4241 1.25944.52333 2.15199.32274 2.90332-.61361 4.38581-3.00845 4.76312l-1.23815.19507 1.14436.20482c1.82842.32725 2.89391 2.09076 2.93634 4.85996.0263 1.71412-.64209 2.95336-1.97943 3.67018-.57362.30747-1.09182.58806-1.15156.62355-.0597.0355.11852.31551.39614.62227.60851.67241.88104 4.31881.39118 5.23411-.37627.70306-1.17777.771-.95886.0813.29117-.91739.22247-3.6275-.12029-4.74541-.29993-.97824-.44256-1.12448-1.09664-1.12448-1.00097 0-.96119-.42116.0591-.62521 1.05889-.21178 2.24636-1.41977 2.57864-2.62322.5672-2.0542-.6726-4.73485-2.64033-5.70885-.90855-.44972-1.01647-.56735-.52067-.56752.95422-.00026 2.64375-1.06671 3.25374-2.05369.40589-.65674.54324-1.31531.536-2.56996-.0108-1.8775-.33034-2.69694-1.19132-3.05536-.46605-.19401-.36598-.23269.51664-.19969 1.39475.0521 2.34039-.56252 2.74323-1.78313.35318-1.07016.65274-1.07707 1.43224-.033zm8.7261 3.4183c.39259.63425-.22799 1.02607-1.31157.82808-.78272-.14301-.80607-.11915-.71641.73198.19208 1.82319-1.92608 3.66994-4.16304 3.62962-.81791-.0147-.75701-.0575.52158-.36637 1.83349-.44288 2.53706-1.22399 2.78708-3.09425.10337-.77322.37739-1.62.60893-1.88172.52583-.59436 1.86677-.50432 2.27343.15266zm9.43072.99072c.83498.44687 1.1366 1.25554.78496 2.10449-.4865 1.17451-3.60174 2.52063-5.82337 2.51633-1.87784-.004-4.49792-.94542-4.49792-1.61675 0-.51415.20915-.45798 1.10659.29716.66882.56277 1.04952.66059 2.55174.65565 2.99167-.01 4.53522-1.02426 4.92292-3.23534.19114-1.09004.2224-1.11366.95508-.72154zm-28.45403.94826c-1.76039.64517-5.35102 1.16358-7.90602 1.14146-3.11183-.0269-2.71876-.14317 1.68831-.4992 1.96453-.15871 4.22672-.45064 5.02708-.64873 1.93079-.47788 2.50371-.47476 1.19063.007zm14.29602 4.23497c.73992.48481 1.71127 2.88385 1.71127 4.22648 0 1.13367-.52264 2.18886-1.76555 3.56462-.77394.85666-1.11327 1.04068-1.90326 1.03217l-.9614-.0104.79375-.35278c1.53793-.68354 2.09031-1.58291 2.2036-3.5878.13356-2.36373-.76695-4.56073-2.12657-5.18825l-.87078-.4019 1.1431.15162c.62871.0834 1.42784.33818 1.77584.5662zm10.48563 1.42529c.34282 1.63449-.0238 2.8817-1.20729 4.1076-.82843.85808-1.36179 1.16941-2.25695 1.31744-1.06196.17561-1.12003.22199-.61754.49326 1.496.8076 2.13628 2.44304 1.55165 3.96334-.55447 1.44186-1.76146 2.23519-4.32563 2.84318-2.80632.66539-3.21385.59286-.99256-.17665 2.30717-.79926 3.54925-1.44259 3.84828-1.99322.73775-1.35841-1.37145-4.19904-3.71964-5.00956l-1.45156-.50103 1.98438-.0161c3.60305-.0292 5.55625-1.72968 5.55625-4.83732 0-1.24129.0241-1.28162.71819-1.20071.58229.0679.75495.25896.91242 1.00976zm11.94413 2.86438c-.0657.97121-.24101 2.01699-.38961 2.32397-.42958.88742-1.88741 1.43052-3.73526 1.39154l-1.64467-.0347 1.46175-.18868c.80396-.10377 1.71417-.32377 2.02269-.48889.66504-.35592 1.1868-1.66897.8681-2.18464-.17933-.29017-.35006-.24305-.86202.23791-.6974.65517-3.04059 1.63535-3.90943 1.63535h-.54553l.54837.69714c.4304.54717.54837 1.07715.54837 2.46365 0 2.53113-.78226 3.2521-4.31426 3.97625-.84487.17322-1.49343.39442-1.44125.49156 1.23653 2.30192 1.74525 5.003736 1.22057 6.482516-.36343 1.02433-.81588 1.3864-2.74111 2.19358-.85097.35678-.95465.46789-.52916.56707 1.48515.3462 2.49387 1.71357 3.03047 4.10799.21879.97631.19781 1.42931-.0975 2.10457l-.37628.86046-.0216-1.66418c-.0142-1.09646-.19899-2.01194-.54163-2.68355-.61822-1.21183-2.52605-2.919-3.29789-2.95105-.47002-.0195-.45388-.0514.11377-.22468 1.45588-.44446 2.92084-1.38652 3.30184-2.12328.45851-.88667.52561-3.128.13566-4.531746-.15446-.55604-.71138-1.35121-1.34433-1.91942l-1.08063-.9701-.66052.51957c-1.81203 1.42534-5.43836 1.991-7.89265 1.23116-.83026-.25705-1.17237-.2586-1.5875-.007-.29104.17624-.81312.40549-1.16018.50945l-.63103.189.734-.96232c1.11336-1.45969 1.3161-3.71824.51854-5.77674-.21135-.54547.11896-.59923.7676-.12493.68643.50193 1.00206 2.28726.69274 3.91832-.14452.76202-.2249 1.42335-.17863 1.46962.29504.29504 4.7086.37804 5.70434.10727 1.19219-.32418 3.59263-2.30016 4.03287-3.31976.15763-.36507.20904-.0779.16578.92605l-.0627 1.4552 1.05068-.0643c1.44185-.0882 3.29168-.73915 4.22572-1.48691.67196-.53796.77849-.80164.77849-1.9271 0-1.94189-.93964-3.4865-2.64816-4.35313-1.07279-.54416-1.30714-.77458-1.12279-1.10399.20225-.36141.46736-.29413 2.01076.51035 1.5501.80797 1.93112.90399 2.97488.74971 1.54696-.22866 3.13455-1.12373 3.60427-2.03207.20402-.39452.37094-1.4626.37094-2.37351v-1.65619l1.02625 1.134c1.01453 1.12104 1.02489 1.15416.90683 2.89982zm-38.82391-2.10062c-.0797.12902-.56302.31301-1.07395.40886-1.0276.19278-1.14816.43328-.49016.9778 1.19179.98625 1.81725 4.02239.9975 4.84214-.58427.58427-.60327.54401-.29258-.62.51712-1.93737-.79307-4.51387-2.55472-5.0239l-.83796-.2426 1.05833-.0391c.83712-.0309 2.79699-.33625 3.25676-.50735.045-.0168.0165.0751-.0632.20416zm-4.5826.20522c-.1819.0734-.47956.0734-.66146 0-.1819-.0734-.0331-.13345.33073-.13345.3638 0 .51263.0601.33073.13345zm-4.99084 4.04674c.36631.13927.86439.63683 1.10685 1.1057.49217.95175.61461 3.02823.22013 3.73313-.18919.33806-.25478.0526-.24799-1.07924.008-1.28596-.11256-1.6987-.73183-2.51126-.66716-.87541-.86505-.97279-1.98437-.97643-.90027-.003-1.13381-.0748-.84643-.26053.5096-.32933 1.6338-.33448 2.48364-.0114zm54.11111 1.67971c.48086.38567.53408.5519.27619.86264-.1757.2117-.42358.94226-.55084 1.62346-.12726.6812-.49861 1.52911-.82522 1.88424-.86912.94503-2.52968 1.62179-3.99559 1.62842-1.12075.005-1.26012.065-1.08994.46883.49183 1.167.44769 3.168166-.097 4.399606-.45484 1.02823-.77206 1.34044-1.8866 1.85682-1.33647.61919-1.33786.62115-.55312.7781 1.07823.21564 1.66532 1.22872 1.99947 3.45029l.28154 1.87173 1.05079.31676c1.51931.45798 4.38476.4416 5.05651-.0289.98692-.69127 1.26794-1.80553.80099-3.17597-.48265-1.41649-.20489-1.53389.93416-.39484.7146.7146.78629.92462.63613 1.86364-.21664 1.35476-.52875 1.83795-1.67078 2.58657-1.4144.92716-3.22996.87261-5.44423-.16357l-1.78394-.8348-.63976 1.01344c-.92553 1.46614-1.89525 2.14262-3.02552 2.11061l-.95651-.0271.88917-.21006c1.15686-.27332 1.60957-.75257 1.90211-2.01364.40642-1.75194.29448-3.33567-.3065-4.33671-.97028-1.61616-1.57755-2.11528-2.59704-2.13453-.92856-.0175-.92241-.0242.33254-.36152 2.54049-.68282 3.66841-2.23424 3.84144-5.283756.0946-1.66793.0491-1.87058-.52383-2.3317l-.62747-.505.66146.21503c1.11866.36364 3.25673.22394 4.28695-.28011 1.20891-.59148 1.53413-1.47456 1.47987-4.01827-.0492-2.30634.12525-2.65672.93883-1.88566.33557.31802.87816.7932 1.20577 1.05595zm-85.43346 5.13831c1.26056 1.14495 2.43198 3.02558 2.76447 4.438136.17838.75785.15455.74588-.52688-.26459-.39254-.582076-1.26513-1.663416-1.9391-2.402966-.67398-.73955-2.05532-2.3469-3.06967-3.57188l-1.84426-2.22723 1.69222 1.45521c.93072.80036 2.24617 1.95836 2.92322 2.57332zm86.89794-2.58189c.56161.28633 1.12257.45789 1.24656.38126.124-.0766.22546.0421.22546.26384 0 .22175-.25672.54057-.57048.70849-.48626.26024-.64361.21279-1.06586-.32142-.55795-.70588-1.07197-1.55277-.94246-1.55277.0471 0 .54516.23427 1.10678.5206zm-60.54265 3.85007c1.61377 1.23088 1.92516 4.973936.56764 6.823296-.27919.38034-.3348.14253-.34319-1.46743-.0117-2.23766-.3929-3.715446-1.30536-5.060026-.54084-.79697-.57916-.96234-.22298-.96234.23654 0 .82329.29992 1.30389.6665zm12.81697.54196c.1893.22809.3527.99912.36313 1.71341.0161 1.104476-.0967 1.408476-.75419 2.032686l-.77313.73398.42732-.69528c.69457-1.13011.71639-3.109046.0417-3.783736-.34816-.34816-.35343-.41577-.0324-.41577.21086 0 .53826.18662.72756.41471zm20.60868 3.921956c.72688 1.50154.90475 2.56101.68074 4.05481-.14811.98766-.41021 1.47482-1.1953 2.22166-.9627.91579-.98476.97442-.51725 1.37472 1.12349.96196 1.19707 4.0514.11783 4.94709-.34933.28992-.34911.21795.002-.62214.21832-.52249.39675-1.28123.39653-1.68608-.00053-1.02489-.80395-2.52096-1.5511-2.88852-.62425-.3071-.62357-.30858.35055-.77083 1.41377-.67088 1.86591-1.51248 1.84379-3.43194-.025-2.16955-.84848-3.84329-2.51479-5.111466-1.80427-1.37317-1.60942-1.56449.27578-.27077 1.07381.736896 1.74916 1.435326 2.11132 2.183466zm32.978147-1.874546c-.31062 1.553106-1.768517 2.564956-3.695637 2.564956-.72437 0-1.34645-.16159-1.60064-.41577-.67362-.67362-.47693-.95236.36484-.51706.42934.22201 1.07504.40367 1.43491.40367.85898 0 2.204257-1.1529 2.683407-2.299666.46525-1.11351 1.05061-.92356.81312.26387zm-7.026147.1961c.61969.870266.94233 2.566716.58723 3.087586-.12069.17702-.96991.51412-1.88715.7491-1.8303.4689-3.68017.35035-4.79431-.30724-.61521-.36311-.5389-.37911 1.09112-.22884 3.13093.28862 4.78454-.97096 3.84933-2.93211-.55285-1.159336-.55196-1.174636.0686-1.174636.28113 0 .76946.36276 1.08517.80614zm9.768337 3.298066c.4434 1.38418.80618 2.78625.80618 3.11569 0 .86983-2.89241 5.4801-3.43812 5.4801-.0996 0-.31494-.29371-.4785-.65268-.16356-.35898-.71698-.92453-1.229817-1.25678-1.05045-.68054-1.1846-1.00095-.41906-1.00095.882477 0 3.020657-.81821 3.647267-1.39569.70602-.65067.76414-1.66784.2013-3.5232-.44543-1.46833-.52701-3.2832-.14758-3.2832.13869 0 .61494 1.13252 1.05833 2.51671zm-45.407827.0827c1.19097 1.74992 1.66317 5.18031.8636 6.2738-.32837.44905-.35518.30751-.23214-1.22532.17038-2.12262-.4129-4.35719-1.37272-5.25889-.73665-.69205-.87934-1.12994-.29515-.90577.20602.079.6724.58134 1.03641 1.11618zm53.39347 3.25168c.60712.30924.84588 1.50012.47855 2.38693-.41919 1.01203-2.65247 2.08485-4.73265 2.27347-1.706793.15477-2.297213-.27537-.72761-.53009 1.84213-.29893 2.77604-.88268 3.06053-1.91302.17106-.61951.17765-1.20666.0183-1.62586-.13722-.36089-.24948-.7645-.24948-.89691 0-.2597 1.44554-.0545 2.15238.30548zm-14.63027 3.81862c.16888.37065.30706.95303.30706 1.29419 0 .90003-1.68965 1.50632-4.65573 1.67061-2.65471.14705-3.75931-.0988-5.00157-1.113l-.79375-.64806 1.69103.67429c1.43913.57385 2.01061.65959 3.83646.57556 1.17999-.0543 2.50262-.27507 2.93918-.49061.66892-.33025.80655-.56842.87511-1.51438.0926-1.27834.35684-1.42608.80221-.4486zm10.31164 2.62036c.10316 1.62762-.50754 3.29076-1.600833 4.35966-.4538.44367-.76828.86349-.69885.93292.0694.0694 1.251503.19823 2.626823.28622 2.1117.1351 2.64458.0851 3.42661-.32165 1.26299-.65687 1.84869-1.93173 1.86226-4.0535l.011-1.71979.42073.77723c.2314.42747.48124 1.53098.55519 2.45225.10988 1.36891.0473 1.77132-.34243 2.20197-.63429.70088-2.78405 1.31525-4.6053 1.31614l-1.47334.00079 1.1797 1.01728c1.16176 1.00181 1.18132 1.04604 1.28663 2.9097l.10693 1.89235h1.73525c1.92758 0 2.70295-.42921 2.70295-1.49622 0-.94958.43872-.74757 1.45815.6714 1.15772 1.61146 2.03787 2.00319 3.96099 1.76291 1.6787-.20974 2.25378-.78144 2.25378-2.24051 0-.65036.0825-.83755.28155-.63853.15485.15485.24415.79184.19844 1.41553-.11208 1.52918-.86838 2.07027-3.19771 2.28778l-1.78708.16688-.96439-1.08097-.96439-1.08097-1.06776.54473c-.88094.44942-1.40711.52295-3.00726.42026l-1.93949-.12447-.94279 1.28434c-1.07285 1.46152-1.57586 1.66085-3.344023 1.32517-.69122-.13123-1.25677-.19732-1.25677-.14686 0 .0505.23768.48157.52818.95803.64285 1.05437.72712 3.81896.15041 4.93421-.59306 1.14684-2.43619 2.67895-3.22279 2.67895-.62592 0-.57182-.0805.57764-.85989 2.13181-1.44541 2.71587-3.40807 1.95798-6.57949-.20137-.84266-.49159-1.32853-.93543-1.56607-.60786-.32531-.87736-.79471-.44505-.77515.10914.005.67469.23902 1.25677.52019 2.997133 1.44771 5.536753-.52999 5.028953-3.91624-.33776-2.25234-1.25968-3.4861-3.452143-4.61985-.74241-.3839-.91582-.37753-2.24896.0827-.79448.27426-1.94718.50254-2.56155.50729l-1.11704.009.65402 1.23003c.85803 1.61373.87511 3.24592.0441 4.21206l-.60995.70911.10897-1.71132c.0779-1.22317-.01-1.93065-.30642-2.48028-.840677-1.55632-.681647-1.51238-3.272517-.90412-2.17685.51106-2.46254.65299-3.22544 1.60231-.46037.57287-1.12504 1.11387-1.47705 1.20222-.61195.15359-.62159.18874-.21995.80172.55503.84709.35374 2.27287-.60004 4.25009-.40837.84657-.77846 1.60023-.82242 1.67481-.044.0746.70195.61035 1.6576 1.19062 1.55058.94152 4.58105 3.11358 8.451117 6.05727.7276.55344 3.4256 3.01785 5.99555 5.47649 2.569953 2.45863 4.864463 4.47024 5.098903 4.47024.75454 0 2.47267-1.33574 2.83238-2.20199.39839-.95939.45709-2.50273.15024-3.94958-.1904-.89775-.15767-.99218.34387-.99218.80325 0 2.05183-.70954 2.4029-1.36552.32335-.60417.38018-2.2289.11204-3.20265l-.16281-.59121.54315.62462c.37104.4267.54315.99386.54315 1.78983 0 1.56265-1.30739 3.08769-2.67498 3.12028l-.903.0215.46607.91584c.92758 1.82268.45361 4.03191-1.17104 5.45837l-.9222.8097 2.97986.58075c2.38748.46529 3.21653.5277 4.17041.31393 2.62877-.58912 3.23124-1.27268 3.02386-3.43088-.13956-1.45241-.0797-1.54719.5925-.93881.37354.33804.75371.35831 2.40208.1281 1.08206-.15112 2.24876-.48746 2.60742-.75166.63342-.46661 1.31888-2.36331 1.33017-3.68065.003-.32742.11614-.59532.25186-.59532.66876 0 .59148 2.29588-.12468 3.70417-.76127 1.49699-1.56019 1.93095-3.79278 2.06019l-2.08857.1209-.12785 1.13425c-.0703.62383-.38182 1.49092-.69223 1.92686-.68752.96554-.69874 1.10781-.0874 1.10781.74976 0 2.59535 1.49834 3.06521 2.48849.97827 2.06155.17659 4.32741-1.84792 5.22295-1.25592.55555-2.11857.45628-4.8656-.55992-.79831-.29531-1.54135-.53693-1.6512-.53693-.33869 0 1.40292 2.63794 1.92668 2.91824.27126.14517 1.04648.33979 1.72272.43248.96158.1318 1.13179.22321.78106.41949-.24666.13804-.85254.2038-1.3464.14614l-.89794-.10482.44973.67392c.75854 1.13665 1.79201 3.23974 2.41146 4.90725l.58973 1.5875 2.1724.71438c1.76588.58069 1.99911.71467 1.24636.71599-.50933.00079-1.39773-.16639-1.97425-.37173-.57651-.20533-1.0838-.33774-1.1273-.29424-.0435.0435.0835.54416.28232 1.11256.19878.5684.56536 1.95619.81462 3.08398.24926 1.12779.55639 2.05052.68251 2.05052.12613 0 .50913-.10638.85112-.23641.51519-.19587.95251-.0144 2.55057 1.05833 2.21148 1.48454 2.1297 1.6364-.2699.50121-1.83343-.86736-2.73382-.99617-2.95391-.42261-.21666.5646.10112 1.48073.51362 1.48073.20131 0 .36601.0976.36601.21696 0 .388 1.91844 2.46994 2.48825 2.70032.50459.20401.48908.22569-.17238.24095-.47486.011-1.08219-.30426-1.75186-.90927-.56376-.50932-1.07012-.92611-1.12524-.92619-.0551-.00008-.0895 1.63703-.0763 3.63802.0131 2.00099-.0635 5.23868-.17038 7.19485l-.19427 3.55668 1.29486 1.16419c1.75172 1.57495 1.65488 1.99281-.11201.48331l-1.40687-1.20193-.95602 3.53775c-2.01093 7.4414-4.84193 12.91376-8.7508 16.91539-2.71691 2.78138-7.29825 5.6748-10.480063 6.61884-1.69838.50391-1.60562.49456-1.60562.1618 0-.14552.15218-.26458.33819-.26458.18601 0 1.16827-.40283 2.182813-.89518 3.43035-1.66471 7.68443-5.07789 9.88663-7.93236 1.68701-2.18667 4.3852-7.06206 5.28577-9.5509 2.0095-5.55355 2.82756-12.52133 2.39904-20.43373-.29077-5.36881-.52274-6.68585-1.96135-11.13591-1.81991-5.62955-5.5437-12.28221-9.8071-17.52067-4.06267-4.99184-12.261813-12.56163-18.26999-16.86762-1.87851-1.34629-4.48702-3.34497-5.79671-4.44149-1.30969-1.09652-2.90768-2.34648-3.55109-2.7777-1.94226-1.3017-.37701-.96679 2.51854.53889 1.39924.7276 2.6369 1.32292 2.75035 1.32292.30702 0 .99515-1.57129 1.31692-3.00707.19654-.87703.19971-1.57259.0104-2.2758-.28353-1.05294-.65184-1.33172-1.75942-1.33172-.36958 0-.58411-.11539-.49191-.26458.0899-.14552.42439-.26525.74322-.26606 1.17086-.003 2.57986-.57041 2.99691-1.20691.57478-.87721.50667-2.8478-.14138-4.09112-.28613-.54896-.45273-1.06561-.37021-1.14813.30268-.30268 1.67797 1.79754 1.83981 2.80958.15258.95421.22566 1.03148.85652.90566.37934-.0756 1.43385-.22156 2.34336-.32425.9095-.10269 1.65365-.2963 1.65365-.43025s-.18583-.6029-.41295-1.0421c-.63883-1.23537-.30201-1.50012.52652-.41386.908227 1.19076 1.838337 1.27431 3.922947.3524 2.27438-1.00584 3.636383-3.00679 3.636383-5.34232 0-1.01761.0763-1.20403.46302-1.1306.35214.0669.48283.40047.54573 1.39306zm4.01833 35.22551c0 .0854.69614.88903 1.54698 1.78594.85083.89691 2.11898 2.34512 2.8181 3.21824 1.37299 1.71473 3.12278 2.7322 5.6195 3.26765 2.69675.57835 4.5675-.7942 4.5675-3.35112 0-1.27551-.65164-2.15753-2.25683-3.05468-1.01426-.56689-1.31401-.62502-1.99632-.38717-.45354.15811-1.86144.22675-3.23579.15777-2.02625-.1017-2.72756-.26166-4.19552-.95697-1.61841-.76656-2.86762-1.06264-2.86762-.67966zm5.87052-32.95574c.43817.79608.90958 1.58552 1.04757 1.75431.17012.20809.0552.44496-.35704.73576-.57137.40308-.63537.39528-1.06435-.12963-.81607-.99854-1.38606-4.12892-.71083-3.90384.15838.0528.64647.74732 1.08465 1.5434zm-33.76812 1.96378c.74481 1.13673 1.20948 3.10269 1.00361 4.24614l-.19055 1.05833-.21564-1.4552c-.11861-.80037-.5644-2.13982-.99065-2.97657-.56793-1.11486-.67571-1.52135-.40339-1.52135.20438 0 .56287.2919.79662.64865zm-21.85432.91968c.53716 1.00369-.55712 2.15262-1.54611 1.62333-.70922-.37956-.84597-.92714-.39305-1.57379.49098-.70096 1.5757-.72867 1.93916-.0495zm15.53683 9.25848c1.01412.80172 5.59861 4.04737 8.15363 5.77246.58209.39301 2.90381 2.07902 5.15938 3.7467 2.25557 1.66767 4.99401 3.68917 6.08542 4.49221 8.776657 6.45776 16.5921 14.64558 20.18902 21.15097 2.10321 3.80388 2.34925 4.28168 2.20478 4.28168-.0629 0-.8359-1.11377-1.71775-2.47505-3.23013-4.98627-7.16218-9.25651-12.267383-13.32246-2.13211-1.69809-2.82767-2.1973-9.334717-6.69961-2.18281-1.51032-4.88541-3.43689-6.00577-4.28128-3.6493-2.75037-11.37041-10.06504-14.56375-13.7971l-1.39089-1.62554 1.19062.94102c.65485.51756 1.68868 1.33476 2.29741 1.816zm37.78697-.24348c.10078.16307-.35003.26459-1.17501.26459-1.23103 0-1.33853.0503-1.33853.62577 0 .34418.22492.91173.49983 1.26122.27491.34949.67816 1.06222.89611 1.58385.9638 2.30671 4.86417 3.71685 7.9275 2.8661 1.28173-.35596 1.52447-.86509 1.52447-3.19747 0-2.36357.35205-2.164.91656.51958.60925 2.89631.5156 4.56407-.21526 3.83322-.0994-.0994-1.41156-.15005-2.91601-.11266-3.0327.0754-3.98724-.1842-5.71805-1.55503-1.14984-.91069-1.3923-.96034-1.8713-.38318-.6814.82104-1.78215 1.20438-2.69849.93977l-.85891-.24803.90521-.0239c.49787-.0131 1.12294-.22091 1.38906-.46175.6733-.60932.64823-2.45679-.0453-3.33848-.58982-.74983-.69771-2.03467-.21166-2.52072.38335-.38335 2.75957-.42541 2.98979-.0529zm-8.68598 8.18649c.84245.51368 1.99302 2.22094 2.32856 3.45518.14106.51888.0472.45516-.43555-.29557-1.10417-1.71721-2.043673-2.64448-2.733043-2.69747-.36876-.0283-.66822-.14041-.66546-.24904.003-.10863.005-.31657.005-.46209 0-.40913.57862-.31311 1.500483.24899zm14.83939 6.78267c-.2604.26039-.72946-.13936-.72946-.62168 0-.40388.0348-.40315.44728.009.246.246.37298.52157.28218.61236zm-44.47506 3.35324c-.0734.1819-.13345.0331-.13345-.33073 0-.3638.06-.51263.13345-.33073.0734.1819.0734.47956 0 .66146zm57.22168 2.48763c.22156 1.21712-.0772 2.53385-.68861 3.03534-.40013.32818-.42332.29891-.23561-.29745.45859-1.45687.47045-2.65062.033-3.31828-.2398-.36598-.35743-.79254-.2614-.94792.28871-.46715.94869.40792 1.15264 1.52831zm3.39818 10.01393c.60303.94589.99266 1.71979.86585 1.71979-.28578 0-1.60052-1.53806-1.60052-1.87238 0-.52203-.53526-.20623-.92373.54499-.22448.4341-.75741.96988-1.18428 1.19062-1.0096.52209-3.41753.50956-4.1097-.0214-.50151-.38469-.48767-.39462.26458-.19002.43657.11874 1.35221.21518 2.03478.21432 1.00959-.001 1.39138-.1456 2.04723-.77395.4434-.42481.88046-1.16825.97123-1.65208.0908-.48383.24898-.8797.35158-.8797.10261 0 .67995.77391 1.28298 1.71979zm-3.27574 10.96401-.70935.67766.43458-.65419c.53944-.81201.58481-2.87665.0676-3.07512-.2991-.11478-.26239-.38909.19844-1.48276l.56543-1.34193.0763 2.59934c.074 2.52005.0547 2.62002-.63302 3.277zm-95.31463 16.22193c1.08067 1.49159 2.6105 3.60495 3.39963 4.69635.78912 1.09141 2.19549 3.11547 3.12528 4.49792 4.15053 6.17123 10.92005 13.65347 14.93235 16.5045 2.00865 1.42728 2.36391 1.85361.66146.79378-4.62712-2.88055-10.95295-9.63877-15.75446-16.83132-1.75966-2.63593-4.72524-6.93591-7.30176-10.58727-.69311-.98227-1.20782-1.78594-1.14379-1.78594.064 0 1.00061 1.22039 2.08129 2.71198zm89.56644.65872c.88617.65256.16416.56689-.81185-.0963-.78521-.53357-.96827-.8032-.84846-1.24976.084-.31318.15995-.80753.16875-1.09857.009-.29105.24777.0661.53106.79375.2833.7276.71552 1.47051.9605 1.65091zM46.8132 198.37816c1.55184 2.05868 4.02676 5.01549 5.49983 6.57069l2.6783 2.82763-2.72265-2.64584c-2.84923-2.76883-10.34604-12.37318-10.34604-13.25455 0-.10705.46553.46994 1.03452 1.28219.56898.81226 2.3042 3.1612 3.85604 5.21988zm27.19017 29.02042c-.18191.0734-.47956.0734-.66146 0-.1819-.0734-.0331-.13345.33073-.13345.3638 0 .51263.0601.33073.13345zm3.97378-190.491866c.25743.0671.61462.0627.79375-.01.17913-.0725-.0315-.12736-.46806-.12197-.43656.005-.58312.0647-.32569.13177zm-1.17912.26197c.19099.0764.4192.067.50712-.0209.0879-.0879-.0684-.15045-.34727-.13896-.30823.0127-.37092.0754-.15985.15985zm31.13815 52.24619c-1.01865.14982-1.90011.31972-1.9588.37754-.0587.0578.96637 1.20806 2.27794 2.55606 3.23197 3.32178 9.34694 10.143556 11.59822 12.938826 1.65532 2.05531 5.93324 7.46277 6.60347 8.34707.19148.25263.28032.0381.32154-.77628.0968-1.91334.65282-4.50241 1.26853-5.90711.66518-1.5176 1.76567-2.22971 3.44576-2.22971.78912 0 1.16584.18951 1.87824.94488.49013.51968.89502 1.08523.89978 1.25677.005.17154.2217-.30468.48211-1.05827 1.17406-3.39756 2.9595-4.59329 7.1369-4.77964 2.30004-.10261 2.7984-.0351 4.92806.66807 2.33145.76975 2.35677.77219 1.5875.15312-1.64291-1.32212-11.50904-6.011096-18.0614-8.583866-8.37265-3.2875-16.7229-4.74362-22.40785-3.90746zm-93.0002 21.032776c.003 5.75816 3.59897 16.23894 7.29471 21.25925 1.30737 1.77594 2.08677 2.34281 2.3343 1.69776.2031-.52928-.3036-2.59846-.95611-3.90434-.27972-.55981-.44074-1.08567-.35782-1.16858.0829-.0829.15075-.004.15075.17521 0 .38446 2.63651 3.1163 3.65725 3.78949 1.2409.81838 1.21841.50763-.0486-.67231-.82513-.7684-1.22736-1.35876-1.22736-1.80144 0-.36216-.35718-1.63719-.79374-2.8334-1.0526-2.88417-.99118-2.99787.2376-.4399 1.09902 2.28788 2.60103 4.21595 3.45909 4.44034.68638.17949.69796-.23434.0168-.59891-.62489-.33443-1.54199-3.12163-1.73186-5.2634l-.13196-1.48844.37508 1.62227c.59569 2.57647 1.52353 3.98292 3.5452 5.37394 1.21323.83477 1.38369.46753.28035-.60401-.64239-.62389-1.00844-1.29806-1.23299-2.27088-.47674-2.06537-.36898-2.46032.22247-.81532.61251 1.70358 1.88012 3.05276 3.10727 3.30719l.87097.1806-.79853-1.14794c-.84854-1.21983-1.63098-3.7723-1.56524-5.10613l.0396-.80431.10868.79375c.26796 1.957.65904 2.78355 1.86798 3.94791.72825.7014 1.50177 1.20651 1.85041 1.20833l.59907.003-.65198-.99218c-1.43695-2.18676-1.52416-4.62659-.22075-6.1756.66698-.79266.77309-.82659 2.17229-.69467l1.47105.1387-1.18528-.51872c-.6519-.2853-1.54487-.79006-1.98438-1.1217-.43949-.33164-2.16831-1.46999-3.8418-2.52966-1.67348-1.05968-4.70958-3.08339-6.74687-4.49713-4.78071-3.31749-5.44649-3.65336-7.54062-3.80409-.94589-.0681-1.92816-.20822-2.18282-.31142-.41424-.16787-.46293.004-.46217 1.6266zm14.1973 12.59602c-.0734.1819-.13345.0331-.13345-.33073 0-.36381.0601-.51263.13345-.33073.0734.1819.0734.47955 0 .66146zm.26459 2.11666c-.0734.1819-.13346.0331-.13346-.33073 0-.3638.0601-.51263.13346-.33073.0734.1819.0734.47956 0 .66146z" style="fill:#f1f2da;fill-opacity:1;stroke-width:.264583" transform="translate(15.97891,-30.401006)"/></svg>