<?xml version="1.0" encoding="UTF-8" standalone="no"?>
<!-- Created with Inkscape (http://www.inkscape.org/) -->

<svg
   role='img'
   aria-labelledby="Rising pale full moon"
   viewBox="0 0 30.374096 30.374096"
   version="1.1"
   id="svg22314"
   inkscape:version="1.2 (dc2aedaf03, 2022-05-15)"
   sodipodi:docname="rising-moonV2.svg"
   xmlns:inkscape="http://www.inkscape.org/namespaces/inkscape"
   xmlns:sodipodi="http://sodipodi.sourceforge.net/DTD/sodipodi-0.dtd"
   xmlns:xlink="http://www.w3.org/1999/xlink"
   xmlns="http://www.w3.org/2000/svg"
   xmlns:svg="http://www.w3.org/2000/svg">
  <sodipodi:namedview
     id="namedview22316"
     pagecolor="#505050"
     bordercolor="#eeeeee"
     borderopacity="1"
     inkscape:showpageshadow="0"
     inkscape:pageopacity="0"
     inkscape:pagecheckerboard="0"
     inkscape:deskcolor="#505050"
     inkscape:document-units="mm"
     showgrid="false"
     inkscape:zoom="2.0838024"
     inkscape:cx="-65.265305"
     inkscape:cy="53.987844"
     inkscape:window-width="1920"
     inkscape:window-height="1002"
     inkscape:window-x="-8"
     inkscape:window-y="-8"
     inkscape:window-maximized="1"
     inkscape:current-layer="layer1" />
  <defs
     id="defs22311">
    <radialGradient
       inkscape:collect="always"
       xlink:href="#linearGradient928"
       id="radialGradient11928"
       cx="186.32602"
       cy="223.59578"
       fx="186.32602"
       fy="223.59578"
       r="57.267578"
       gradientUnits="userSpaceOnUse"
       gradientTransform="matrix(0.26457163,-0.00248811,0.00221716,0.23576024,36.152256,70.48062)" />
    <linearGradient
       inkscape:collect="always"
       id="linearGradient928">
      <stop
         style="stop-color:#bebebe;stop-opacity:1;"
         offset="0"
         id="stop924" />
      <stop
         style="stop-color:#ffffff;stop-opacity:1;"
         offset="1"
         id="stop926" />
    </linearGradient>
    <linearGradient
       inkscape:collect="always"
       xlink:href="#linearGradient21917"
       id="linearGradient21919"
       x1="15.803927"
       y1="92.904716"
       x2="13.884359"
       y2="92.42482"
       gradientUnits="userSpaceOnUse"
       gradientTransform="matrix(0.26458333,0,0,0.26458333,136.30423,104.51305)" />
    <linearGradient
       inkscape:collect="always"
       id="linearGradient21917">
      <stop
         style="stop-color:#000000;stop-opacity:1;"
         offset="0"
         id="stop21913" />
      <stop
         style="stop-color:#000000;stop-opacity:0;"
         offset="1"
         id="stop21915" />
    </linearGradient>
    <radialGradient
       inkscape:collect="always"
       xlink:href="#linearGradient21150"
       id="radialGradient21152"
       cx="-211.66388"
       cy="44.000546"
       fx="-211.66388"
       fy="44.000546"
       r="52.975555"
       gradientTransform="matrix(0.31730534,0.00437766,-0.00441632,0.32010802,148.03655,103.15898)"
       gradientUnits="userSpaceOnUse" />
    <linearGradient
       inkscape:collect="always"
       id="linearGradient21150">
      <stop
         style="stop-color:#bbbbbb;stop-opacity:1;"
         offset="0"
         id="stop21146" />
      <stop
         style="stop-color:#ededed;stop-opacity:1;"
         offset="1"
         id="stop21148" />
    </linearGradient>
    <linearGradient
       inkscape:collect="always"
       xlink:href="#linearGradient21917"
       id="linearGradient21524"
       x1="-27.866241"
       y1="-14.591085"
       x2="-29.785809"
       y2="-10.272058"
       gradientUnits="userSpaceOnUse"
       gradientTransform="matrix(0.26458333,0,0,0.26458333,136.30423,104.51305)" />
  </defs>
  <g
     inkscape:label="Layer 1"
     inkscape:groupmode="layer"
     id="layer1"
     transform="translate(-66.694444,-98.656961)">
    <g
       id="g22885">
      <path
         id="path791"
         style="fill:url(#radialGradient11928);fill-opacity:1;fill-rule:evenodd;stroke:url(#linearGradient21919);stroke-width:0.0700042"
         d="M 81.881631,98.692101 A 15.152046,15.152046 0 0 0 66.729584,113.84415 15.152046,15.152046 0 0 0 81.881631,128.99619 15.152046,15.152046 0 0 0 97.033677,113.84415 15.152046,15.152046 0 0 0 81.881631,98.692101 Z" />
      <path
         id="path17543"
         style="fill:url(#radialGradient21152);fill-opacity:1;stroke:url(#linearGradient21524);stroke-width:0.025735"
         d="m 81.590692,99.231603 c -0.03453,0.0016 -0.07064,0.0068 -0.104903,0.01602 -0.123224,0.03318 -0.151541,0.08721 -0.08217,0.156579 0.05656,0.05657 0.144868,0.06415 0.288354,0.02429 0.109493,-0.03047 0.132509,-0.05651 0.110588,-0.125574 -0.01527,-0.04813 -0.108287,-0.07613 -0.211874,-0.07131 z m -2.874243,0.540535 c -0.06894,0.0055 -0.154359,0.03371 -0.236161,0.08165 -0.131506,0.07707 -0.175788,0.129332 -0.155029,0.183453 0.01363,0.0355 0.0465,0.0406 0.202571,0.0305 0.225867,-0.0147 0.353467,-0.07264 0.353467,-0.160716 0,-0.03401 -0.01971,-0.08176 -0.04341,-0.10542 -0.014,-0.01399 -0.03409,-0.02299 -0.05891,-0.02739 -0.01861,-0.0033 -0.03955,-0.0039 -0.06253,-0.0021 z m 8.153508,0.937932 -0.205156,0.0563 c -0.263475,0.0722 -0.711282,0.28883 -0.780831,0.37724 -0.06835,0.0868 -0.06854,0.16341 0,0.27957 0.0327,0.0554 0.06913,0.19109 0.09147,0.3421 0.05908,0.39979 0.194209,0.54062 0.575158,0.59945 0.106035,0.0164 0.222405,0.0453 0.258899,0.0641 0.11593,0.0596 0.470098,0.33294 0.591179,0.45631 0.06421,0.0654 0.151333,0.13678 0.19327,0.15864 0.04193,0.0219 0.08968,0.0397 0.106453,0.0398 0.06171,3.3e-4 0.176831,-0.0563 0.242879,-0.11937 0.101666,-0.097 0.237119,-0.10511 0.436149,-0.0264 0.27745,0.10994 0.394817,0.13122 0.526066,0.0946 0.152895,-0.0427 0.178072,-0.0784 0.154513,-0.2129 -0.03255,-0.18595 -0.02343,-0.24322 0.05064,-0.33125 0.06543,-0.0778 0.06982,-0.0983 0.05788,-0.24701 -0.01945,-0.24222 -0.117997,-0.4195 -0.361218,-0.65216 -0.226425,-0.21659 -0.245741,-0.27935 -0.09819,-0.30954 0.04748,-0.01 0.104225,-0.0355 0.12609,-0.0574 0.03582,-0.0358 0.03492,-0.0459 -0.0046,-0.10645 -0.05729,-0.0874 -0.161982,-0.15017 -0.414445,-0.24805 -0.271655,-0.10532 -0.521911,-0.12352 -0.822689,-0.0605 l -0.221175,0.046 -0.251148,-0.0713 z m -9.660393,0.6258 c -0.07161,-0.006 -0.160951,0.0245 -0.270267,0.0904 -0.08435,0.0508 -0.269746,0.15093 -0.411861,0.22221 -0.357545,0.17934 -0.46481,0.25235 -0.862997,0.58549 -0.191074,0.15986 -0.442673,0.35256 -0.559139,0.4284 -0.224357,0.14611 -0.232711,0.1596 -0.244429,0.38189 -0.0077,0.14651 -0.01796,0.15434 -0.315743,0.24546 -0.468275,0.14331 -0.513832,0.3819 -0.115756,0.60565 0.225319,0.12665 0.249934,0.18127 0.136943,0.30024 -0.164536,0.17327 -0.382888,0.23054 -0.6165,0.16175 -0.176321,-0.0519 -0.37362,-0.0585 -0.502295,-0.016 -0.158133,0.0522 -0.279569,0.22051 -0.279569,0.38706 0,0.0998 0.143169,0.37488 0.221692,0.42633 0.06174,0.0405 0.07272,0.0393 0.202571,-0.0145 0.170434,-0.0706 0.219625,-0.0557 0.219625,0.0667 0,0.0634 0.019,0.11202 0.06253,0.15554 0.07986,0.0798 0.169421,0.0802 0.243395,0.002 0.04655,-0.0495 0.06206,-0.10784 0.0801,-0.30024 0.01381,-0.14738 0.03544,-0.24618 0.05633,-0.25941 0.07958,-0.0505 0.146157,-0.0203 0.252181,0.11317 0.169018,0.21267 0.230881,0.23209 0.466122,0.15089 0.18674,-0.0645 0.368374,-0.1774 0.416512,-0.2589 0.02167,-0.0367 0.07051,-0.1001 0.108003,-0.14056 0.06785,-0.0732 0.06901,-0.0732 0.291972,-0.0558 0.212373,0.0166 0.227204,0.0145 0.278536,-0.0418 0.02978,-0.0327 0.07435,-0.10443 0.09974,-0.15917 0.05761,-0.1242 0.154715,-0.1841 0.353467,-0.21911 0.234942,-0.0414 0.259069,-0.0748 0.238228,-0.32504 -0.01654,-0.1987 -0.01513,-0.20836 0.04858,-0.2682 0.07729,-0.0726 0.08578,-0.17236 0.0279,-0.33642 -0.08082,-0.22905 -0.02895,-0.35878 0.164331,-0.41082 0.165923,-0.0447 0.17713,-0.0782 0.143144,-0.4253 -0.01712,-0.17449 -0.0151,-0.18229 0.05633,-0.25373 0.04055,-0.0406 0.123403,-0.10997 0.183968,-0.15348 0.06056,-0.0435 0.116642,-0.10402 0.12454,-0.13539 0.0154,-0.0613 -0.02747,-0.16537 -0.06821,-0.16537 -0.01368,0 -0.02481,-0.0408 -0.02481,-0.0909 0,-0.0502 -0.0179,-0.12507 -0.03927,-0.1664 -0.0404,-0.0781 -0.09427,-0.12026 -0.165882,-0.12609 z m 3.190503,0.33228 c -0.127301,0 -0.283703,0.23148 -0.283703,0.42013 0,0.14695 -0.04597,0.23691 -0.148828,0.29093 -0.144738,0.076 -0.146981,0.21128 -0.0062,0.36484 0.04298,0.0469 0.07803,0.10163 0.07803,0.12144 0,0.081 -0.29231,0.27933 -0.390674,0.2651 -0.03446,-0.005 -0.103151,-0.0683 -0.170532,-0.1571 -0.129916,-0.17117 -0.26991,-0.27595 -0.36897,-0.27595 -0.09337,0 -0.180152,0.10863 -0.265617,0.33228 -0.09521,0.24919 -0.176195,0.31552 -0.439249,0.35967 -0.257651,0.0432 -0.340812,0.0859 -0.38809,0.19895 -0.05112,0.12239 -0.0067,0.21235 0.137976,0.27957 0.124579,0.0579 0.130116,0.0782 0.05581,0.20412 -0.02944,0.0499 -0.04523,0.10406 -0.03514,0.12041 0.02721,0.044 0.240769,0.0118 0.526066,-0.0796 0.134448,-0.043 0.319858,-0.0852 0.411861,-0.0935 0.148135,-0.0134 0.176118,-0.008 0.241329,0.0434 0.06715,0.0533 0.07259,0.0697 0.0615,0.185 -0.01368,0.14227 -0.07627,0.24128 -0.19637,0.31161 -0.06283,0.0368 -0.160855,0.0519 -0.427881,0.0656 -0.316246,0.0162 -0.351164,0.0231 -0.410828,0.0791 -0.03593,0.0337 -0.06511,0.0812 -0.06511,0.10593 0,0.0975 -0.0414,0.12722 -0.337964,0.24443 -0.560366,0.22147 -0.716658,0.47409 -0.490926,0.79375 0.110133,0.15595 0.111996,0.17804 0.02894,0.30903 -0.114552,0.18063 -0.10409,0.21799 0.111104,0.39739 0.221313,0.1845 0.390847,0.28222 0.534335,0.30696 0.137311,0.0237 0.13345,0.0654 -0.0083,0.0863 -0.302781,0.0446 -0.39561,0.19538 -0.261482,0.42426 0.04093,0.0698 0.07344,0.1783 0.08785,0.29301 0.03795,0.30219 0.151391,0.37731 0.386539,0.25735 0.160261,-0.0818 0.285627,-0.0912 0.420646,-0.0315 0.118988,0.0526 0.24538,0.19569 0.312126,0.35244 0.150736,0.35389 0.185688,0.38219 0.503328,0.41082 0.106143,0.01 0.26767,0.0287 0.358118,0.0424 0.260866,0.0395 0.425168,-0.005 0.568958,-0.15555 0.06369,-0.0666 0.136711,-0.15245 0.16278,-0.1912 0.06826,-0.10145 0.15235,-0.12522 0.435116,-0.12144 0.343889,0.005 0.550127,-0.0474 0.804085,-0.20154 0.199278,-0.12099 0.405708,-0.20744 0.496611,-0.20877 0.02429,-2.9e-4 0.09055,-0.0212 0.147278,-0.047 0.107101,-0.0487 0.121758,-0.0711 0.265617,-0.39377 0.102259,-0.22941 0.155554,-0.27905 0.298173,-0.27905 0.196188,0 0.194477,-0.003 0.179317,0.29197 -0.01717,0.3336 -0.05912,0.45164 -0.208256,0.58291 -0.06462,0.0569 -0.127204,0.10335 -0.13901,0.10335 -0.03633,0 -0.100252,0.14734 -0.100252,0.23151 0,0.17887 0.101062,0.26901 0.392741,0.34933 0.198594,0.0547 0.286472,0.13499 0.388606,0.35605 0.123566,0.26743 0.157033,0.28698 0.520382,0.30645 0.330727,0.0177 0.394361,0.0414 0.464055,0.17621 0.02312,0.0447 0.05733,0.20825 0.07648,0.36329 0.039,0.31579 0.07393,0.39031 0.210839,0.44752 0.19621,0.082 0.344172,-6.4e-4 0.430982,-0.24082 0.06292,-0.1741 0.165616,-0.26561 0.297656,-0.26561 0.225383,0 0.254391,0.0829 0.112138,0.31884 -0.105156,0.17437 -0.106593,0.24868 -0.0052,0.28422 0.09965,0.0349 0.197785,-0.044 0.266651,-0.21446 0.113075,-0.27984 0.215574,-0.3574 0.409794,-0.3085 0.21332,0.0537 0.395477,-0.0297 0.487309,-0.22325 0.0863,-0.18186 0.20287,-0.13957 0.31781,0.11421 0.210637,0.46515 0.210323,0.46508 0.210323,0.63148 0,0.0898 -0.01703,0.21217 -0.03824,0.27234 -0.04844,0.13727 -0.04924,0.26576 -0.0021,0.35553 0.03974,0.0759 0.177779,0.21292 0.259416,0.25787 0.02831,0.0156 0.06077,0.0292 0.07183,0.0295 0.05663,0.002 0.200961,-0.0821 0.327112,-0.19068 0.242186,-0.20846 0.297611,-0.22726 0.720886,-0.2465 0.402068,-0.0183 0.4899,-0.0433 0.589111,-0.1695 0.07295,-0.0928 0.06787,-0.18285 -0.02067,-0.34881 -0.05194,-0.0973 -0.0822,-0.20433 -0.09974,-0.34934 -0.04333,-0.35835 -0.162267,-0.52838 -0.54777,-0.78548 -0.520279,-0.347 -0.692576,-0.5495 -0.656807,-0.77359 0.04643,-0.29089 0.047,-0.32559 0.0067,-0.38706 -0.02225,-0.0339 -0.07291,-0.0695 -0.112655,-0.0791 -0.284528,-0.0687 -0.255001,-0.0415 -0.343131,-0.32711 -0.04396,-0.14242 -0.07379,-0.27516 -0.06615,-0.29507 0.02037,-0.0531 0.168086,-0.0449 0.333829,0.0186 0.139919,0.0535 0.145275,0.0547 0.214974,0.008 0.03925,-0.026 0.143726,-0.0553 0.232028,-0.0646 0.189672,-0.0201 0.431607,-0.13281 0.506429,-0.23616 0.04747,-0.0656 0.04841,-0.0807 0.01602,-0.19327 -0.05588,-0.19442 -0.04633,-0.22503 0.124541,-0.38965 0.114906,-0.11071 0.158457,-0.17096 0.16123,-0.22479 0.01598,-0.31486 -0.170752,-0.78402 -0.433565,-1.09089 -0.156006,-0.18215 -0.265054,-0.26807 -0.412895,-0.32453 -0.112104,-0.0428 -0.119706,-0.043 -0.209289,0.005 -0.120224,0.0644 -0.185885,0.19994 -0.202572,0.41857 -0.01513,0.19831 -0.03691,0.23565 -0.136426,0.23565 -0.112958,0 -0.1596,-0.0645 -0.146244,-0.20309 0.01963,-0.20363 -0.02293,-0.34314 -0.141594,-0.46302 l -0.105936,-0.10697 0.116272,-0.12196 c 0.216516,-0.2253 0.253206,-0.33598 0.14366,-0.4346 -0.144216,-0.1298 -0.261666,-0.10377 -0.612366,0.1354 -0.344561,0.23512 -0.479063,0.28379 -0.643888,0.23409 -0.06468,-0.0195 -0.203866,-0.0934 -0.309025,-0.16381 -0.228819,-0.1533 -0.247452,-0.16146 -0.461471,-0.19844 -0.151164,-0.0261 -0.168282,-0.035 -0.175183,-0.094 -0.0047,-0.0401 0.02841,-0.12486 0.08423,-0.21756 0.107394,-0.17834 0.111608,-0.218 0.03152,-0.31109 -0.086,-0.1 -0.157358,-0.0721 -0.404627,0.15916 -0.232055,0.21702 -0.348223,0.28017 -0.444934,0.2434 -0.06729,-0.0256 -0.171566,-0.14331 -0.171566,-0.19379 0,-0.0542 -0.174522,-0.21315 -0.267684,-0.24391 -0.201591,-0.0665 -0.337625,0.12579 -0.276469,0.39171 0.04083,0.17756 0.09187,0.23939 0.319361,0.3917 0.185042,0.12388 0.327628,0.27512 0.327628,0.34727 0,0.0155 -0.04623,0.0723 -0.102836,0.12609 -0.05661,0.0539 -0.103353,0.11523 -0.103353,0.13643 0,0.0212 0.02387,0.10583 0.05219,0.1881 0.07068,0.20545 0.06767,0.27027 -0.01085,0.27027 -0.03398,0 -0.123761,-0.0288 -0.199471,-0.0641 -0.217839,-0.10141 -0.296374,-0.0892 -0.499712,0.0775 -0.247835,0.20314 -0.327685,0.21421 -0.422713,0.0584 -0.07208,-0.11821 -0.06369,-0.19239 0.03927,-0.35399 0.109461,-0.17182 0.111392,-0.21708 0.01189,-0.31006 -0.09354,-0.0874 -0.262651,-0.12815 -0.5302,-0.12815 -0.33905,0 -0.422197,-0.0874 -0.422197,-0.44494 0,-0.28025 -0.03076,-0.31511 -0.279052,-0.31212 -0.134623,0.002 -0.214647,0.0201 -0.376722,0.0894 -0.186492,0.0798 -0.229167,0.0887 -0.450618,0.0884 -0.440428,-4.6e-4 -0.613684,-0.0943 -0.929659,-0.50023 -0.164224,-0.21097 -0.203358,-0.2768 -0.182935,-0.3085 0.03741,-0.0581 0.28578,-0.0472 0.504362,0.0212 0.21902,0.0685 0.326489,0.0686 0.534851,0.004 0.205854,-0.0647 0.34952,-0.14685 0.418063,-0.23926 0.04886,-0.0659 0.05041,-0.0779 0.0155,-0.14004 -0.02098,-0.0374 -0.09086,-0.0986 -0.154513,-0.13591 -0.111718,-0.0653 -0.115366,-0.0723 -0.117305,-0.19482 -0.0011,-0.0698 -0.0069,-0.14368 -0.01292,-0.16485 -0.0088,-0.0312 0.03138,-0.0418 0.213424,-0.0543 0.123304,-0.008 0.242313,-0.03 0.264067,-0.0481 0.06896,-0.0572 0.04587,-0.15461 -0.06098,-0.26148 -0.128635,-0.12864 -0.20827,-0.12948 -0.491959,-0.006 -0.376867,0.16332 -0.455211,0.14601 -0.636654,-0.14211 -0.127614,-0.20265 -0.185503,-0.26045 -0.26355,-0.26045 z m 9.988021,0.30902 c -0.139406,0 -0.170796,0.0562 -0.107487,0.19431 0.05697,0.12431 0.474774,0.62111 0.535885,0.63717 0.249198,0.0655 0.239089,-0.14436 -0.02067,-0.43099 -0.08471,-0.0935 -0.153479,-0.18777 -0.153479,-0.2098 0,-0.022 -0.03407,-0.0739 -0.07545,-0.11524 -0.05833,-0.0583 -0.09816,-0.0755 -0.178801,-0.0755 z m -12.678296,0.002 c -0.05202,0.003 -0.103171,0.0157 -0.135392,0.0382 -0.138218,0.0968 -0.173844,0.32214 -0.0801,0.50591 0.07185,0.14075 0.07159,0.23522 -0.0031,0.4532 -0.0599,0.17589 -0.06019,0.18466 -0.01757,0.27389 0.0241,0.0506 0.06945,0.10396 0.101286,0.11782 h 5.17e-4 c 0.110784,0.0472 0.33992,0.0106 0.460953,-0.0734 0.143854,-0.0998 0.242137,-0.20524 0.276469,-0.29611 0.0349,-0.0918 0.03511,-0.2767 0.0016,-0.36638 -0.03687,-0.097 -0.406544,-0.59945 -0.463538,-0.62994 -0.03535,-0.0189 -0.08855,-0.026 -0.14056,-0.0232 z m 6.859013,0.3638 c -0.02997,0.004 -0.062,0.0199 -0.0925,0.0486 -0.0751,0.0705 -0.07613,0.0861 -0.01033,0.15193 0.06571,0.0658 0.133861,0.0651 0.193787,-0.001 0.03739,-0.0413 0.04219,-0.066 0.02274,-0.12144 -0.01619,-0.0462 -0.04743,-0.0728 -0.08475,-0.078 -0.0093,-0.001 -0.01895,-0.001 -0.02894,0 z m 5.6441,0.14573 v 5.2e-4 c -0.06323,0.001 -0.13135,0.0233 -0.186552,0.0698 -0.08855,0.0745 -0.101756,0.14775 -0.03411,0.18965 0.05288,0.0327 0.287537,0.0175 0.364835,-0.0238 0.02954,-0.0158 0.05374,-0.0535 0.05374,-0.0837 0,-0.0777 -0.05933,-0.12957 -0.136943,-0.14624 -0.0194,-0.004 -0.0399,-0.006 -0.06098,-0.006 z m 1.040247,0.59893 c -0.05686,0.003 -0.03639,0.0828 0.05788,0.26872 0.06165,0.12159 0.145194,0.26659 0.186035,0.32297 0.08929,0.12327 0.182145,0.13113 0.195337,0.0165 0.01712,-0.14825 -0.21328,-0.52717 -0.356567,-0.58653 -0.03619,-0.015 -0.06372,-0.0227 -0.08268,-0.0217 z m -0.796851,0.12661 c -0.01794,0.002 -0.03844,0.01 -0.06511,0.0248 -0.0797,0.0447 -0.102647,0.11275 -0.05684,0.16795 0.03994,0.0481 0.163741,0.048 0.203605,0 0.04124,-0.0497 0.02503,-0.14369 -0.03101,-0.1788 -0.01717,-0.0108 -0.0327,-0.0157 -0.05064,-0.014 z m 0.47439,0.2899 c -0.01634,-3.6e-4 -0.0315,0.002 -0.04444,0.006 v -5.1e-4 c -0.07766,0.023 -0.09159,0.11535 0.0021,0.18913 0.09529,0.075 0.178284,0.0395 0.178284,-0.076 0,-0.075 -0.01031,-0.0893 -0.08268,-0.11007 -0.01913,-0.005 -0.03689,-0.008 -0.05323,-0.008 z m -0.310576,0.44597 c -0.07581,0.005 -0.155878,0.0511 -0.252181,0.13591 -0.132093,0.11628 -0.282024,0.16802 -0.419612,0.14572 -0.05014,-0.008 -0.187525,-0.0551 -0.305408,-0.1049 -0.268729,-0.11362 -0.427364,-0.11901 -0.730188,-0.0238 -0.279059,0.0878 -0.688608,0.2585 -0.746724,0.31109 -0.07266,0.0658 -0.0595,0.20459 0.0279,0.29197 0.107789,0.10779 0.187153,0.11801 0.436666,0.0574 0.25982,-0.0633 0.33582,-0.0469 0.422196,0.092 0.05252,0.0845 0.0584,0.12652 0.0584,0.40514 0,0.29661 0.0027,0.31549 0.06976,0.41186 0.03861,0.0555 0.102363,0.12213 0.141593,0.14831 0.129542,0.0865 0.165196,0.16043 0.186035,0.38913 0.02278,0.25005 0.08651,0.38072 0.267167,0.54725 0.116919,0.10777 0.305468,0.18437 0.557589,0.22583 0.231196,0.038 0.386023,0.16183 0.386023,0.30902 0,0.0529 -0.0199,0.0743 -0.09664,0.10491 -0.17398,0.0693 -0.208377,0.0939 -0.239262,0.16846 -0.04357,0.10519 0.01711,0.18661 0.178801,0.2403 0.179083,0.0595 0.194041,0.0838 0.155546,0.25579 -0.02543,0.11398 -0.02517,0.14967 0.001,0.18139 0.05601,0.0675 0.152876,0.0474 0.239262,-0.0501 0.09533,-0.10767 0.167708,-0.11406 0.252181,-0.0222 0.189873,0.2064 0.320879,0.2472 0.607198,0.19017 0.06831,-0.0136 0.211149,-0.0369 0.317294,-0.0522 0.254119,-0.0366 0.366132,-0.0969 0.558622,-0.29973 0.149796,-0.15778 0.164942,-0.16719 0.244429,-0.15037 0.131984,0.0279 0.254952,0.11522 0.294039,0.20877 0.04915,0.11765 0.04404,0.25167 -0.0186,0.54053 -0.02944,0.13585 -0.04663,0.27158 -0.03876,0.3018 0.03382,0.12999 0.56391,0.6293 0.735873,0.69298 0.219626,0.0813 0.347782,-0.0976 0.347782,-0.48628 0,-0.20308 -0.0041,-0.2167 -0.149345,-0.50333 -0.184187,-0.3633 -0.179577,-0.39043 0.07183,-0.41341 0.06375,-0.006 0.07886,-0.0199 0.08578,-0.0806 0.01519,-0.13276 -0.04499,-0.21742 -0.269234,-0.37931 -0.254498,-0.18372 -0.334852,-0.30194 -0.357601,-0.52555 -0.02957,-0.29063 -0.105618,-0.39366 -0.359668,-0.48731 -0.300821,-0.11087 -0.528365,-0.30933 -0.648539,-0.56689 -0.07001,-0.14942 -0.0721,-0.16836 -0.07235,-0.57929 -2.27e-4,-0.54566 -0.02295,-0.59503 -0.38809,-0.82682 -0.182489,-0.11583 -0.393819,-0.33026 -0.468188,-0.47491 -0.05477,-0.10653 -0.168817,-0.22473 -0.241329,-0.25011 -0.06927,-0.0243 -0.09671,0.0378 -0.09198,0.20877 0.0037,0.13362 -0.005,0.16882 -0.05219,0.21601 -0.08828,0.0883 -0.177809,0.0412 -0.30489,-0.1602 -0.152644,-0.24191 -0.26585,-0.35073 -0.392225,-0.34313 z M 72.68581,104.885 c -0.16305,0 -0.27347,0.0898 -0.468706,0.38189 -0.123053,0.18407 -0.231321,0.2484 -0.37362,0.2217 -0.109564,-0.0206 -0.206902,0.0616 -0.183452,0.15502 0.0096,0.0383 -0.0029,0.0814 -0.03462,0.12041 l -0.04909,0.0605 -0.08682,-0.0837 c -0.195683,-0.18863 -0.43087,-0.0565 -0.432532,0.24339 -7.94e-4,0.15312 -0.08028,0.29246 -0.252697,0.44184 -0.156382,0.13552 -0.15813,0.13874 -0.15813,0.27233 0,0.10269 -0.01504,0.15577 -0.06305,0.22221 -0.106175,0.1468 -0.136778,0.21163 -0.152963,0.32918 -0.02111,0.15319 -0.05194,0.18293 -0.191203,0.18293 -0.109915,0 -0.127221,0.01 -0.260449,0.14883 -0.160136,0.16703 -0.300998,0.38881 -0.326078,0.51418 -0.01487,0.0745 -0.01004,0.0837 0.04237,0.0837 0.03507,0 0.112946,-0.0523 0.194303,-0.12919 0.07482,-0.0708 0.148915,-0.12816 0.164848,-0.12816 0.06133,0 0.132405,0.0577 0.197921,0.16175 0.0375,0.0595 0.08606,0.12279 0.10852,0.14004 0.02244,0.0173 0.109245,0.0312 0.192236,0.0315 0.304634,0.002 0.443573,-0.14971 0.529684,-0.57774 0.03399,-0.16898 0.06861,-0.27169 0.102836,-0.30593 0.08625,-0.0862 0.09191,-0.0251 0.01912,0.19844 -0.07848,0.24093 -0.08652,0.33972 -0.03049,0.36122 0.04983,0.0191 0.106669,-0.0695 0.130225,-0.20257 0.0374,-0.21141 0.10022,-0.27035 0.325045,-0.30748 0.115125,-0.019 0.239109,-0.15036 0.274918,-0.29042 0.01363,-0.0533 0.0374,-0.23509 0.05323,-0.40411 0.05098,-0.54462 0.07654,-0.57407 0.779797,-0.90175 0.176516,-0.0823 0.379822,-0.27491 0.379822,-0.36019 0,-0.0694 -0.04307,-0.0904 -0.181901,-0.0904 -0.106974,0 -0.306958,-0.0685 -0.306958,-0.1049 0,-0.0121 0.04622,-0.065 0.102836,-0.11731 0.15294,-0.14151 0.131831,-0.26717 -0.04496,-0.26717 z m 22.290112,0.81753 c 7.07e-4,0.001 0.0014,0.002 0.0021,0.004 3e-6,-3.4e-4 -4e-6,-7.3e-4 0,-0.001 -6.83e-4,-8.7e-4 -0.0014,-0.002 -0.0021,-0.003 z m -18.847429,0.11833 c -0.02024,0.002 -0.03966,0.0103 -0.06098,0.0243 -0.04735,0.031 -0.06929,0.0921 -0.116272,0.33022 -0.06132,0.31077 -0.09832,0.39405 -0.19637,0.43873 -0.09191,0.0419 -0.130896,0.0129 -0.164848,-0.12196 -0.03908,-0.15519 -0.171328,-0.29455 -0.279569,-0.29455 -0.140377,0 -0.28177,0.16594 -0.328146,0.38602 -0.04151,0.19696 -0.130349,0.20389 -0.337964,0.0269 -0.184195,-0.15717 -0.326273,-0.19891 -0.52865,-0.15658 -0.143208,0.03 -0.214293,0.0669 -0.502294,0.26097 -0.09624,0.0649 -0.255945,0.16259 -0.355018,0.21704 -0.219598,0.12069 -0.299682,0.17983 -0.340547,0.2527 -0.04986,0.0889 -0.03777,0.1645 0.03824,0.24804 0.06465,0.0711 0.0914,0.08 0.307475,0.10181 0.312793,0.0315 0.419051,0.0868 0.364319,0.18913 -0.06314,0.11797 -0.531101,0.22394 -0.993221,0.22428 h -0.315226 l -0.100253,-0.0899 c -0.121701,-0.10995 -0.182515,-0.11315 -0.336413,-0.0145 -0.128497,0.0825 -0.195213,0.16079 -0.28112,0.32918 -0.07481,0.14664 -0.06963,0.20314 0.02119,0.25011 0.04156,0.0215 0.08234,0.0506 0.09095,0.0646 0.02736,0.0443 -0.03514,0.12535 -0.181901,0.23616 -0.07827,0.0591 -0.159466,0.13989 -0.179834,0.17932 -0.04834,0.0932 -0.04703,0.26252 0.0031,0.45837 0.04349,0.16976 0.03414,0.24513 -0.03411,0.2713 -0.02397,0.009 -0.136083,0.0284 -0.249597,0.0424 -0.113509,0.014 -0.255601,0.0491 -0.315743,0.078 -0.241414,0.11591 -0.573197,0.61001 -0.624251,0.9307 -0.05559,0.34904 0.07898,0.57594 0.481107,0.8108 0.09856,0.0576 0.194426,0.12295 0.212907,0.14521 0.05064,0.061 0.01895,0.26971 -0.08733,0.57774 -0.154567,0.44808 -0.126294,0.62223 0.19327,1.1989 0.28173,0.5084 0.406235,0.77995 0.448034,0.97823 0.0525,0.24899 0.0491,0.30762 -0.03876,0.75913 -0.04247,0.2182 -0.07738,0.44354 -0.07751,0.50074 -5.29e-4,0.13081 -0.0075,0.14046 -0.181901,0.25115 -0.188589,0.11973 -0.241931,0.22695 -0.219624,0.44028 0.02069,0.19808 0.106615,0.38301 0.25218,0.54312 l 0.115239,0.12713 0.203605,0.015 0.204122,0.014 0.04806,0.10283 c 0.02649,0.0566 0.06098,0.11162 0.077,0.12196 0.01601,0.0103 0.237712,0.0161 0.492476,0.0129 l 0.463538,-0.006 0.244429,0.0858 c 0.508791,0.17725 0.866373,0.41714 1.166854,0.78444 0.165217,0.20196 0.248897,0.27492 0.31781,0.27492 0.02679,0 0.102473,-0.0521 0.167949,-0.11575 0.08699,-0.0846 0.132129,-0.11096 0.166398,-0.0982 0.02582,0.01 0.127783,0.0866 0.226859,0.17053 0.09908,0.084 0.238254,0.17985 0.309025,0.21343 0.155437,0.0738 0.305105,0.0774 0.454753,0.0124 0.150993,-0.0655 0.206094,-0.13167 0.325562,-0.39171 0.163104,-0.35504 0.311536,-0.43591 0.737939,-0.40204 0.07317,0.006 0.07741,9.8e-4 0.08475,-0.0992 0.01101,-0.15029 -0.07574,-0.24678 -0.270784,-0.30179 -0.170976,-0.0485 -0.490388,-0.22334 -0.714685,-0.39119 -0.216096,-0.16177 -0.564276,-0.51238 -0.675928,-0.68058 -0.167793,-0.2528 -0.221583,-0.41876 -0.223242,-0.69505 -0.0013,-0.21504 0.0059,-0.25827 0.06253,-0.35811 0.09926,-0.17512 0.219274,-0.25541 0.480074,-0.32195 0.125626,-0.0321 0.264095,-0.0769 0.307992,-0.0997 0.118697,-0.0617 0.236769,-0.20969 0.255282,-0.31988 0.04734,-0.28183 0.114866,-0.34903 0.380338,-0.37879 0.234855,-0.0263 0.364067,-0.092 0.427881,-0.21704 0.02922,-0.0572 0.05296,-0.12451 0.05323,-0.14986 0.0013,-0.11005 0.110043,-0.26868 0.331246,-0.48369 0.155556,-0.15121 0.259338,-0.27643 0.303857,-0.36742 0.06496,-0.1328 0.06693,-0.14907 0.05116,-0.44235 l -0.01654,-0.30489 0.0894,-0.12506 c 0.331568,-0.46142 0.40347,-0.59262 0.452685,-0.82941 0.05733,-0.27588 -0.03883,-0.55943 -0.239262,-0.70641 l -0.07028,-0.0512 -0.148828,0.10232 c -0.265795,0.18294 -0.476786,0.25685 -1.009241,0.35346 -0.32567,0.0591 -0.505282,0.15966 -0.782898,0.43822 -0.243303,0.24415 -0.412278,0.34985 -0.558622,0.34985 -0.121235,0 -0.178283,-0.0418 -0.178283,-0.13023 0,-0.14925 0.07624,-0.26632 0.343648,-0.52606 0.304371,-0.29565 0.352027,-0.38869 0.350366,-0.69247 -0.0013,-0.27767 -0.143312,-0.8055 -0.246497,-0.91674 -0.08975,-0.0968 -0.100161,-0.1972 -0.04031,-0.40876 0.0831,-0.29364 0.03609,-0.34543 -0.343132,-0.3731 -0.264406,-0.0193 -0.331832,-0.064 -0.342614,-0.22686 -0.0067,-0.10069 0.0035,-0.12652 0.07131,-0.1943 0.09172,-0.0917 0.223054,-0.13976 0.590145,-0.21291 0.343892,-0.0685 0.459967,-0.14286 0.571541,-0.3669 0.09347,-0.1877 0.129628,-0.21987 0.379305,-0.34158 0.15177,-0.074 0.195461,-0.10916 0.224793,-0.17932 0.117861,-0.28206 -0.05122,-0.77422 -0.392741,-1.14308 -0.137687,-0.14872 -0.203904,-0.20316 -0.264584,-0.19741 z m -3.432865,0.6966 c -0.108188,0.004 -0.218734,0.0607 -0.28267,0.16899 -0.04986,0.0844 -0.05626,0.23363 -0.01189,0.27801 0.05605,0.0561 0.275947,0.0368 0.397909,-0.0346 0.128294,-0.0752 0.203432,-0.19383 0.166398,-0.26303 -0.05564,-0.10399 -0.161568,-0.15322 -0.269751,-0.14935 z m 4.545976,0.50385 c -0.06213,0 -0.09168,0.0461 -0.122473,0.18913 -0.0087,0.0405 -0.07177,0.13342 -0.140043,0.20619 -0.225187,0.23998 -0.261322,0.37897 -0.127641,0.49145 0.07736,0.0651 0.08865,0.0664 0.295072,0.0496 0.258115,-0.0209 0.312915,0.005 0.408244,0.19327 0.03494,0.069 0.08212,0.14412 0.104903,0.16691 0.02278,0.0228 0.05833,0.0419 0.07855,0.0419 0.09826,0 0.192689,-0.20756 0.152446,-0.33435 -0.0096,-0.0304 -0.04412,-0.0672 -0.077,-0.0822 -0.04389,-0.02 -0.08875,-0.0999 -0.167948,-0.30076 -0.172953,-0.43865 -0.291937,-0.62115 -0.40411,-0.62115 z m 4.679301,1.35185 c -0.01958,-2e-5 -0.03869,0.004 -0.05529,0.0129 -0.06325,0.0339 -0.09218,0.14269 -0.05064,0.19276 0.07959,0.0959 0.281794,3.7e-4 0.244946,-0.11576 -0.0168,-0.053 -0.08022,-0.0898 -0.139009,-0.0899 z m -11.959477,0.19431 c -0.04565,-0.004 -0.09721,0.0116 -0.154512,0.0465 -0.04392,0.0268 -0.167109,0.17527 -0.273886,0.32969 -0.19712,0.2851 -0.320838,0.43361 -0.651123,0.7798 -0.185422,0.19434 -0.294555,0.36481 -0.294555,0.46147 0,0.0288 0.03569,0.0845 0.07958,0.12351 0.167211,0.14871 0.195788,0.29391 0.07131,0.36173 -0.240393,0.13101 -0.331246,0.30961 -0.331246,0.65112 0,0.1721 0.01143,0.23077 0.06925,0.34882 0.03816,0.0779 0.108286,0.17554 0.155546,0.21704 0.139094,0.12212 0.22885,0.0943 0.382406,-0.11782 0.04099,-0.0566 0.148178,-0.19547 0.238745,-0.30799 0.189532,-0.23551 0.259893,-0.37167 0.260449,-0.51057 5.29e-4,-0.10865 -0.02435,-0.16753 -0.128674,-0.30127 -0.03863,-0.0495 -0.07898,-0.12878 -0.0894,-0.17673 -0.01042,-0.0479 -0.0464,-0.14674 -0.0801,-0.21911 -0.03372,-0.0724 -0.06137,-0.17068 -0.0615,-0.21808 -5.3e-4,-0.19594 0.167721,-0.38283 0.247014,-0.2744 0.01966,0.0269 0.03566,0.0967 0.03566,0.15503 0,0.14145 0.0479,0.20581 0.136943,0.18345 0.09483,-0.0238 0.143045,-0.10829 0.223759,-0.39687 0.03844,-0.13744 0.122426,-0.36542 0.187069,-0.50695 0.148884,-0.326 0.172572,-0.46294 0.09612,-0.56017 -0.03309,-0.0421 -0.07321,-0.0646 -0.118856,-0.0682 z m 22.411035,0.0501 c -0.01245,-0.001 -0.02426,6.9e-4 -0.03514,0.005 v 5.2e-4 c -0.06525,0.0265 -0.09736,0.1477 -0.03669,0.24029 0.09426,0.14387 0.267227,0.0243 0.190686,-0.13177 -0.01923,-0.0392 -0.05533,-0.0838 -0.0801,-0.0992 -0.01349,-0.008 -0.02631,-0.013 -0.03876,-0.0145 z m -14.384135,0.12609 c -0.01269,1.3e-4 -0.02479,0.001 -0.03669,0.004 -0.03172,0.006 -0.05975,0.0202 -0.07958,0.0429 -0.166209,0.18957 -0.157566,0.41275 0.01809,0.44907 0.08647,0.0179 0.186546,-0.0295 0.282153,-0.13539 0.103547,-0.1146 0.106428,-0.12668 0.05168,-0.23255 -0.03594,-0.0695 -0.118158,-0.11507 -0.196887,-0.12557 v -5.2e-4 c -0.01313,-0.002 -0.02607,-0.002 -0.03876,-0.002 z m 3.916557,0.16692 c -0.04411,-0.003 -0.09057,0.0143 -0.137459,0.0537 -0.0682,0.0574 -0.08113,0.0866 -0.08113,0.18035 0,0.0672 0.01647,0.1281 0.04082,0.15245 0.06071,0.0607 0.155429,0.0487 0.242363,-0.0305 0.09944,-0.0906 0.1239,-0.20746 0.05994,-0.28319 -0.03852,-0.0456 -0.08044,-0.0697 -0.12454,-0.0729 z m -1.053166,0.0424 v 5.2e-4 c -0.01993,6.3e-4 -0.04116,0.002 -0.06305,0.005 -0.05835,0.008 -0.123356,0.024 -0.19482,0.0475 -0.09376,0.0308 -0.213465,0.0937 -0.272335,0.14418 -0.09165,0.0785 -0.103432,0.10148 -0.09663,0.18242 0.0066,0.0778 0.02419,0.10211 0.110588,0.15089 0.115826,0.0654 0.34996,0.0806 0.461987,0.0295 0.07663,-0.0349 0.08147,-0.0642 0.02222,-0.12971 -0.06028,-0.0666 -0.01602,-0.10229 0.145728,-0.11782 0.149695,-0.0144 0.196211,-0.0642 0.156579,-0.16847 -0.03275,-0.0861 -0.105427,-0.13403 -0.213424,-0.14263 v 5.2e-4 c -0.01801,-10e-4 -0.03691,-0.002 -0.05684,-0.002 z m -13.1408,0.0853 c -0.01355,0.0135 -0.02725,0.0269 -0.04082,0.0403 0.0085,10e-4 0.01677,0.002 0.02532,0.003 0.0055,-0.0145 0.01005,-0.0289 0.0155,-0.0434 z m 15.52205,0.16071 c -0.0089,0.001 -0.01738,0.004 -0.0248,0.008 -0.06611,0.0354 -0.0935,0.1226 -0.05374,0.17053 0.06329,0.0762 0.230477,0.0186 0.230477,-0.0796 0,-0.0467 -0.06598,-0.0923 -0.124023,-0.0987 v -5.2e-4 c -0.0097,-10e-4 -0.01905,-10e-4 -0.02791,0 z m 7.906495,0.0863 v 5.2e-4 c -0.02119,0 -0.0996,0.052 -0.17415,0.11575 -0.07454,0.0637 -0.149961,0.11576 -0.167948,0.11576 -0.01799,0 -0.07798,-0.0404 -0.132809,-0.0899 -0.12753,-0.11521 -0.211422,-0.11655 -0.359668,-0.005 -0.06219,0.0466 -0.199766,0.13798 -0.305924,0.2036 -0.399119,0.2467 -0.553002,0.515 -0.344682,0.60203 0.121134,0.0506 0.239373,0.0302 0.473873,-0.0822 0.184404,-0.0883 0.273982,-0.1104 0.243396,-0.061 -0.009,0.0146 -0.02687,0.13799 -0.03979,0.2744 -0.01288,0.1364 -0.03799,0.26712 -0.05581,0.29094 -0.01781,0.0238 -0.07027,0.0937 -0.116272,0.15451 -0.102163,0.13504 -0.104534,0.20637 -0.0124,0.32711 0.06426,0.0842 0.07028,0.11298 0.07028,0.30954 0,0.20535 0.0038,0.22017 0.07235,0.27906 0.06825,0.0587 0.09062,0.0615 0.40411,0.0615 0.299892,0 0.335052,-0.005 0.366902,-0.0501 0.05373,-0.0767 0.286283,-0.25417 0.389124,-0.29714 0.135363,-0.0566 0.199254,-0.0481 0.392741,0.0527 0.290216,0.15128 0.408209,0.0834 0.216524,-0.12454 -0.05736,-0.0622 -0.122283,-0.15716 -0.144694,-0.21084 -0.05096,-0.12199 -0.03451,-0.14103 0.192753,-0.21601 0.18815,-0.0621 0.367858,-0.0712 0.409794,-0.0207 0.01558,0.0188 0.04465,0.1121 0.0646,0.20722 0.04185,0.19966 0.100034,0.27932 0.195337,0.2682 0.05926,-0.007 0.06651,-0.0199 0.07441,-0.13591 0.01238,-0.18232 -0.04182,-0.46076 -0.109038,-0.55965 -0.05672,-0.0835 -0.0585,-0.0842 -0.239778,-0.0755 -0.136264,0.007 -0.207222,-0.003 -0.27957,-0.0372 -0.05334,-0.0253 -0.245048,-0.18918 -0.425813,-0.36432 -0.32494,-0.31482 -0.459921,-0.50208 -0.459921,-0.63717 0,-0.0729 -0.1491,-0.29559 -0.19792,-0.29559 z m 1.232482,0.006 c -0.09974,0.012 -0.11864,0.0664 -0.08268,0.2403 0.02652,0.12827 0.05194,0.17367 0.153996,0.27595 0.133038,0.13333 0.135071,0.13451 0.207739,0.0956 0.06587,-0.0353 0.06643,-0.23005 0.0015,-0.37362 -0.06115,-0.13463 -0.195302,-0.24852 -0.280603,-0.23823 z m -12.603365,0.30645 c -0.04587,-0.002 -0.101563,0.0154 -0.174149,0.0522 -0.140652,0.0713 -0.158856,0.10245 -0.0925,0.15761 h 5.17e-4 c 0.07194,0.0598 0.335475,0.0622 0.393774,0.005 0.0524,-0.0524 0.051,-0.068 -0.01292,-0.14934 -0.03264,-0.0415 -0.06885,-0.063 -0.114722,-0.0651 z m 13.529924,0.10748 c -0.09058,-0.01 -0.197257,0.0309 -0.230994,0.10129 -0.04492,0.0937 -0.02142,0.17019 0.09715,0.31367 0.05484,0.0664 0.106968,0.14338 0.115755,0.17105 0.03645,0.11484 0.194669,0.009 0.230477,-0.15399 0.02413,-0.10984 -0.05485,-0.35491 -0.130741,-0.40463 -0.02336,-0.0153 -0.05146,-0.0241 -0.08165,-0.0274 z M 81.06876,109.8139 c -0.30019,0 -0.34465,0.0161 -0.715201,0.2558 -0.216223,0.13988 -0.447217,0.22066 -0.63252,0.22066 -0.07713,0 -0.15899,0.007 -0.181384,0.0155 -0.05081,0.0195 -0.05122,0.10949 -0.001,0.1757 0.06198,0.0819 0.04352,0.16927 -0.06511,0.31006 -0.13135,0.17027 -0.15113,0.26091 -0.07752,0.3545 0.03045,0.0387 0.06542,0.0703 0.07803,0.0703 0.01259,0 0.0871,0.024 0.164848,0.0532 0.126219,0.0472 0.155671,0.0741 0.280086,0.25166 0.07663,0.10937 0.18222,0.2361 0.234094,0.28164 0.05187,0.0455 0.1185,0.0827 0.147795,0.0827 0.03088,0 0.12432,-0.0705 0.223242,-0.16743 0.192662,-0.18891 0.288968,-0.23112 0.470255,-0.20826 0.409901,0.0517 0.443179,0.0459 0.546737,-0.0935 l 0.05219,-0.0708 -0.05891,-0.0796 c -0.08432,-0.11406 -0.04529,-0.14113 0.320394,-0.21859 0.35541,-0.0753 0.458333,-0.13552 0.500745,-0.29301 0.04978,-0.1849 -0.0077,-0.26695 -0.375171,-0.53691 -0.177173,-0.13017 -0.393908,-0.27406 -0.481625,-0.31988 -0.150307,-0.0785 -0.175305,-0.0837 -0.429948,-0.0837 z m 1.468128,0.0703 c -0.02204,-6.1e-4 -0.04282,0.005 -0.06666,0.016 -0.09327,0.0425 -0.07761,0.1393 0.02687,0.16537 v -5.2e-4 c 0.02829,0.007 0.05356,0.0144 0.05633,0.016 0.0024,0.002 0.03449,-0.008 0.0708,-0.0217 0.09199,-0.035 0.0856,-0.11495 -0.0124,-0.15555 -0.02958,-0.0123 -0.0529,-0.019 -0.07493,-0.0196 z m -3.398242,0.20723 c -0.01728,0 -0.03479,0.01 -0.0646,0.0289 -0.06894,0.0452 -0.08494,0.13882 -0.03307,0.19069 0.01699,0.017 0.05215,0.031 0.07855,0.031 0.146445,0 0.200659,-0.14473 0.0832,-0.2217 -0.0298,-0.0195 -0.04682,-0.0289 -0.06408,-0.0289 z m -11.533146,0.4563 c -0.0032,0.007 -0.0068,0.0137 -0.01034,0.0207 0.0021,-2.1e-4 0.0041,0.001 0.0062,0.001 0.0016,-0.007 0.0026,-0.0145 0.0041,-0.0217 z m 0.237711,0.38395 c -0.05561,-0.005 -0.10886,0.014 -0.150895,0.0589 -0.142576,0.15226 -0.245569,0.61433 -0.274919,1.22938 -0.02138,0.44798 -0.05285,0.8374 -0.08527,1.19269 -1.72e-4,0.0114 -5.17e-4,0.0227 -5.17e-4,0.0341 1.98e-4,0.019 -0.0023,0.0355 -0.0062,0.0501 -0.0049,0.0512 -0.0075,0.12962 -0.0124,0.17725 -0.0065,0.061 -0.0085,0.0812 -0.01447,0.1385 0.0038,0.0663 0.0059,0.13242 0.0062,0.19895 0.0028,0.0726 0.0073,0.14503 0.0098,0.21756 7.93e-4,0.0227 -0.0024,0.0409 -0.0072,0.0574 5.29e-4,0.008 0.0016,0.0159 0.0021,0.0238 0.007,0.055 0.01664,0.10969 0.02842,0.16381 0.0118,0.0477 0.02493,0.095 0.04496,0.14005 0.01929,0.0484 0.03508,0.0979 0.05581,0.14572 0.0066,0.017 0.01291,0.034 0.01912,0.0512 0.02082,0.005 0.04549,0.006 0.08888,0.001 0.08168,-0.009 0.122061,-7.3e-4 0.145728,0.0274 0.04326,0.052 0.04312,0.56789 0,0.94671 -0.02724,0.23955 -0.02634,0.31917 0.0052,0.50178 0.02053,0.11938 0.06789,0.43416 0.104903,0.6997 0.0794,0.56941 0.115712,0.7213 0.226342,0.94567 0.06804,0.13798 0.09315,0.16692 0.145211,0.16692 0.05249,0 0.07104,-0.0216 0.109038,-0.12868 0.08448,-0.23784 0.212342,-0.26806 0.321427,-0.076 0.160435,0.28269 0.238937,0.69066 0.290938,1.51929 0.03075,0.48992 0.122368,0.99299 0.231511,1.27175 0.163084,0.41647 0.409083,0.76497 0.898136,1.27228 0.391469,0.40606 0.578669,0.45116 0.671794,0.16123 0.03553,-0.11063 0.119282,-0.15898 0.21394,-0.12299 0.135035,0.0513 0.289237,0.28528 0.351917,0.5333 0.01479,0.0585 0.04305,0.11974 0.06253,0.13591 0.0195,0.0162 0.126894,0.0466 0.238228,0.0677 0.543943,0.10312 0.806064,0.27096 1.152385,0.74001 0.08173,0.11068 0.184736,0.22466 0.229443,0.2527 0.0853,0.0535 0.125979,0.0534 0.654741,0.008 l 0.187068,-0.016 0.198955,0.20361 c 0.227086,0.23308 0.265508,0.24947 0.698665,0.29145 0.328279,0.0318 0.426602,0.0738 0.857312,0.3669 0.176225,0.11993 0.38441,0.24207 0.462504,0.2713 0.27292,0.1021 0.775208,0.16801 0.861446,0.11318 0.05155,-0.0328 0.08035,-0.14218 0.05529,-0.20929 -0.01275,-0.0342 -0.104614,-0.14795 -0.204122,-0.2527 -0.156008,-0.16424 -0.179958,-0.2008 -0.173116,-0.27079 0.0055,-0.0556 0.0295,-0.0935 0.07493,-0.11885 0.05949,-0.0332 0.09531,-0.0302 0.347265,0.0284 0.154565,0.036 0.388962,0.0958 0.520899,0.13281 0.288049,0.0809 0.348669,0.0828 0.415995,0.0155 0.111056,-0.11103 0.03664,-0.28932 -0.163297,-0.39067 -0.124462,-0.0631 -0.144656,-0.0875 -0.145211,-0.17777 -2.54e-4,-0.0469 0.03025,-0.0905 0.102836,-0.14883 0.08353,-0.0671 0.102836,-0.0994 0.102836,-0.17001 0,-0.11118 0.143652,-0.50545 0.199471,-0.54777 0.02334,-0.0177 0.09548,-0.0315 0.160714,-0.0315 0.211309,0 0.229306,-0.0751 0.07441,-0.30695 -0.09224,-0.13811 -0.319479,-0.34776 -0.679545,-0.62632 -0.09291,-0.0719 -0.26899,-0.0935 -0.476974,-0.0579 -0.381746,0.0655 -0.544168,-0.0429 -0.853178,-0.56999 -0.198561,-0.33866 -0.392137,-0.55485 -0.58446,-0.65164 -0.07888,-0.0397 -0.314201,-0.11346 -0.522449,-0.16433 -0.467487,-0.11418 -0.674572,-0.20585 -0.837158,-0.36897 -0.245936,-0.24673 -0.303046,-0.47181 -0.276469,-1.09141 0.01725,-0.40184 0.01431,-0.44249 -0.03824,-0.60513 -0.127053,-0.39326 -0.443857,-0.68948 -0.875916,-0.81855 -0.07785,-0.0233 -0.314787,-0.0605 -0.5271,-0.0827 -0.272327,-0.0285 -0.451747,-0.0622 -0.608748,-0.11472 -0.342718,-0.11477 -0.327199,-0.11956 -0.699182,0.22686 -0.322132,0.29997 -0.366298,0.28706 -0.507979,-0.14159 -0.10332,-0.31261 -0.205791,-0.5269 -0.33228,-0.69402 -0.150757,-0.19922 -0.151498,-0.21781 -0.01137,-0.35966 0.142875,-0.14454 0.176308,-0.21575 0.213424,-0.45734 0.03776,-0.24574 0.113698,-0.46779 0.260449,-0.75861 0.172133,-0.3411 0.21045,-0.4682 0.21239,-0.70848 0.003,-0.35745 -0.157345,-0.81939 -0.312642,-0.89969 -0.153546,-0.0794 -0.269771,-0.0101 -0.458887,0.27544 -0.164134,0.24772 -0.206234,0.2532 -0.401526,0.0455 -0.190695,-0.20289 -0.260687,-0.35541 -0.312125,-0.67748 -0.04396,-0.27527 -0.07649,-0.35455 -0.198955,-0.49402 -0.09345,-0.10643 -0.197064,-0.1664 -0.288871,-0.1664 -0.152789,0 -0.35164,0.2811 -0.435632,0.61598 -0.05038,0.20085 -0.08874,0.24893 -0.157097,0.19895 -0.03724,-0.0272 -0.05171,-0.0873 -0.06821,-0.28318 -0.0397,-0.47057 -0.117359,-0.72939 -0.290939,-0.96583 -0.138621,-0.18885 -0.162236,-0.31278 -0.110071,-0.57826 0.06649,-0.33841 0.05962,-0.41736 -0.04444,-0.52142 -0.05381,-0.0538 -0.112342,-0.0842 -0.167949,-0.0894 z m 14.768091,0.13643 c -0.01029,-7.1e-4 -0.02075,-2.3e-4 -0.03101,0.002 -0.04102,0.008 -0.0796,0.0367 -0.100769,0.0832 -0.02379,0.0522 -0.02076,0.0724 0.01757,0.11472 0.05606,0.062 0.110269,0.0652 0.187069,0.0114 0.06952,-0.0487 0.07229,-0.0904 0.01033,-0.16692 -0.02243,-0.0277 -0.05232,-0.0418 -0.0832,-0.0439 z m 9.018054,0.69091 c -0.03654,0.003 -0.07663,0.0142 -0.123507,0.0341 -0.12755,0.0533 -0.186316,0.193 -0.112137,0.26717 0.01696,0.017 0.05772,0.031 0.09043,0.031 0.07854,0 0.273306,-0.093 0.332797,-0.15864 0.04619,-0.051 0.04548,-0.0537 -0.02481,-0.11421 -0.04107,-0.0353 -0.08136,-0.0548 -0.127124,-0.0589 -0.01144,-10e-4 -0.02348,-0.001 -0.03566,-5.2e-4 z m -12.061796,0.0765 c -0.06798,-0.004 -0.133506,0.003 -0.170532,0.0238 -0.02577,0.0138 -0.08752,0.0861 -0.137459,0.16071 -0.201856,0.30181 -0.354184,0.39468 -0.786516,0.48111 -0.289017,0.0578 -0.469708,0.12663 -0.566373,0.21549 -0.174996,0.16088 -0.205526,0.46102 -0.08062,0.78496 0.04219,0.10939 0.08867,0.26194 0.103353,0.33952 0.04061,0.21414 0.06404,0.22832 0.444417,0.25735 0.448326,0.0342 0.595685,0.11467 0.662492,0.36276 0.05568,0.20678 -0.03049,0.30761 -0.375687,0.43874 -0.396415,0.15058 -0.486691,0.3526 -0.381889,0.85938 0.02402,0.11593 0.03747,0.27673 0.03204,0.38447 -0.01,0.19831 -0.02411,0.22785 -0.253731,0.51521 -0.118089,0.14781 -0.176937,0.30482 -0.137459,0.36742 0.08083,0.12814 0.20388,0.10487 0.552421,-0.10387 0.247821,-0.14841 0.278151,-0.15988 0.421679,-0.16019 0.210846,-5.8e-4 0.297729,0.0491 0.569475,0.32401 0.125891,0.12736 0.280029,0.26562 0.342614,0.30747 0.137562,0.092 0.295888,0.1025 0.392741,0.0264 0.07051,-0.0555 0.138801,-0.19876 0.161748,-0.34003 0.03218,-0.19798 0.194513,-0.35134 0.449584,-0.42478 0.224835,-0.0647 0.371035,-0.14973 0.496611,-0.28939 0.157954,-0.17569 0.190931,-0.35765 0.100769,-0.55604 -0.02574,-0.0566 -0.143011,-0.23617 -0.260449,-0.39894 -0.207351,-0.28738 -0.283704,-0.42169 -0.283704,-0.4992 0,-0.0724 0.07821,-0.11824 0.201538,-0.11885 0.186115,-9e-4 0.321942,-0.0752 0.373104,-0.20309 0.07899,-0.1974 0.04165,-0.43692 -0.101802,-0.65423 -0.04688,-0.071 -0.113014,-0.12176 -0.236678,-0.18035 l -0.171566,-0.0811 -0.626319,0.006 c -0.392806,0.004 -0.644841,-0.003 -0.675927,-0.0207 -0.02772,-0.0148 -0.04909,-0.0534 -0.04909,-0.0879 0,-0.0524 0.02021,-0.0674 0.138493,-0.1018 0.07649,-0.0223 0.158371,-0.0408 0.181901,-0.0408 0.11471,0 0.189798,-0.0913 0.209806,-0.25735 0.0067,-0.0554 0.03446,-0.15072 0.06201,-0.21136 0.07279,-0.16039 0.06415,-0.20928 -0.05426,-0.32194 -0.100526,-0.0956 -0.106073,-0.11034 -0.13746,-0.33848 -0.03636,-0.26441 -0.08114,-0.34923 -0.222208,-0.42117 -0.04823,-0.0246 -0.119081,-0.0391 -0.187069,-0.0429 z m 2.4691,0.69299 c -0.107699,0 -0.195337,0.0729 -0.195337,0.16226 0,0.034 0.03779,0.0968 0.0894,0.14676 0.111541,0.10812 0.123817,0.24154 0.03152,0.34882 -0.05131,0.0597 -0.08727,0.0714 -0.276986,0.0904 -0.188159,0.0189 -0.225397,0.031 -0.275435,0.0889 -0.03184,0.0369 -0.05788,0.084 -0.05788,0.10491 0,0.0875 0.0867,0.23284 0.230477,0.38654 0.104357,0.11155 0.162447,0.19875 0.182418,0.27337 0.09653,0.36036 0.112044,0.393 0.179317,0.38912 0.03539,-0.002 0.117208,-0.0249 0.181901,-0.0501 0.117264,-0.0457 0.117718,-0.0458 0.28267,0.0217 0.204446,0.0836 0.267066,0.0866 0.318327,0.0134 0.06919,-0.0988 0.05094,-0.2311 -0.04961,-0.3576 -0.107503,-0.13526 -0.111941,-0.19015 -0.02325,-0.28267 0.05034,-0.0525 0.07125,-0.10906 0.08527,-0.22789 0.01744,-0.14778 0.02803,-0.16662 0.164848,-0.30489 0.105193,-0.1063 0.146245,-0.16751 0.146245,-0.21756 0,-0.0766 -0.0139,-0.0825 -0.258899,-0.10904 -0.187204,-0.0202 -0.284479,-0.0824 -0.392741,-0.25166 -0.09796,-0.15313 -0.212974,-0.22479 -0.362252,-0.22479 z m -4.488098,0.925 c -0.03441,0.003 -0.06516,0.0198 -0.0832,0.0538 -0.02862,0.0535 -0.01998,0.0822 0.04703,0.16019 0.02127,0.0248 0.07103,0.045 0.110588,0.045 0.09584,0 0.132299,-0.0671 0.08578,-0.15709 -0.02866,-0.0554 -0.07737,-0.0902 -0.125057,-0.0997 -0.01192,-0.002 -0.02367,-0.003 -0.03514,-0.002 z m 7.78092,1.42214 c -0.05518,0.006 -0.115009,0.0358 -0.19327,0.0915 -0.260646,0.18527 -0.271179,0.31239 -0.02945,0.34726 0.19353,0.0279 0.282258,0.0829 0.337964,0.20877 0.02638,0.0597 0.05604,0.11701 0.06615,0.12713 0.03025,0.0302 0.104841,0.0204 0.136425,-0.0176 0.01627,-0.0196 0.03182,-0.12687 0.03514,-0.23823 0.0068,-0.23699 -0.04674,-0.37059 -0.186552,-0.4656 -0.05999,-0.0408 -0.111219,-0.0592 -0.166398,-0.0532 z m -1.20096,0.38602 c -0.05332,0.005 -0.100431,0.0319 -0.134359,0.0775 -0.04881,0.0656 -0.04979,0.0813 -0.0186,0.23202 0.05481,0.26465 0.06073,0.35241 0.02687,0.39326 -0.04791,0.0577 -0.166108,0.0463 -0.302823,-0.03 -0.151336,-0.0845 -0.241646,-0.0717 -0.288872,0.0424 -0.06766,0.16332 0.03468,0.38533 0.226343,0.4899 0.129897,0.0709 0.327688,0.0551 0.54622,-0.0444 0.293703,-0.13373 0.411344,-0.27808 0.411344,-0.50281 0,-0.13905 -0.124843,-0.39136 -0.2682,-0.54312 -0.09836,-0.1041 -0.128481,-0.12161 -0.197921,-0.11472 z m -8.304919,0.41135 c -0.122002,-0.0173 -0.258878,0.14027 -0.222209,0.25579 0.02196,0.0693 0.122116,0.0603 0.217041,-0.0196 0.06377,-0.0537 0.07853,-0.0848 0.07235,-0.14831 -0.006,-0.0613 -0.02179,-0.0815 -0.06718,-0.0879 z m 10.201961,0.43563 c -0.03394,0.003 -0.0682,0.0223 -0.109554,0.0579 -0.09382,0.0807 -0.09938,0.23203 -0.01137,0.30334 0.08033,0.065 0.146641,0.0601 0.222209,-0.0155 0.08543,-0.0854 0.08887,-0.2506 0.0062,-0.3085 -0.03952,-0.0278 -0.07354,-0.0405 -0.107487,-0.0372 z m -8.74882,0.74724 c -0.03082,-0.003 -0.06359,0.008 -0.09302,0.0341 -0.11748,0.10631 -0.12693,0.25318 -0.02532,0.3824 0.0991,0.12598 0.248759,0.0568 0.273368,-0.12661 0.02019,-0.15035 -0.06253,-0.27934 -0.155029,-0.28938 z m 3.973401,0.0992 c -0.211709,0 -0.277195,0.0534 -0.280603,0.22944 -7.94e-4,0.0398 -0.04318,0.1005 -0.118339,0.1695 -0.139928,0.12846 -0.156531,0.23313 -0.05374,0.3359 0.05175,0.0517 0.08873,0.063 0.204639,0.063 0.177903,0 0.259272,0.0363 0.328145,0.1478 0.04681,0.0757 0.05174,0.11217 0.03772,0.26303 -0.01355,0.14561 -0.0085,0.18421 0.02894,0.22634 0.06708,0.0756 0.855274,0.31717 1.101225,0.33745 0.164957,0.0136 0.204791,0.0255 0.235644,0.0724 0.03434,0.0519 0.03211,0.0591 -0.03514,0.10077 -0.03997,0.0248 -0.08722,0.0629 -0.104903,0.0842 -0.04259,0.0515 -0.04088,0.21597 0.0041,0.38964 0.02652,0.10211 0.0286,0.14572 0.0078,0.15865 -0.04245,0.0263 -0.06398,0.004 -0.08372,-0.0853 -0.03681,-0.16766 -0.408135,-0.43534 -0.615983,-0.4439 -0.06718,-0.003 -0.07888,0.007 -0.08578,0.0672 -0.01246,0.10804 0.05693,0.22631 0.291455,0.49351 0.197847,0.22544 0.295072,0.36412 0.295072,0.42116 0,0.054 -0.112113,0.13364 -0.240812,0.17105 -0.205885,0.0599 -0.35919,0.0534 -0.442867,-0.0186 l -0.06873,-0.0589 -0.0031,-0.41497 -0.0031,-0.41496 -0.07855,-0.1111 c -0.126275,-0.17969 -0.171117,-0.1937 -0.440283,-0.14211 -0.12545,0.024 -0.304835,0.0435 -0.398942,0.0434 -0.140528,-1.4e-4 -0.196737,0.0135 -0.317294,0.077 -0.242215,0.12741 -0.329268,0.10371 -0.450101,-0.12299 -0.04348,-0.0816 -0.104819,-0.1641 -0.136426,-0.18396 -0.03161,-0.0199 -0.148742,-0.0508 -0.260449,-0.0687 -0.1117,-0.018 -0.214917,-0.0443 -0.228927,-0.0584 -0.04769,-0.0477 0.0021,-0.10645 0.09043,-0.10645 0.217641,0 0.410595,-0.13327 0.460437,-0.31833 0.07895,-0.29323 -0.213231,-0.70738 -0.643372,-0.9126 -0.439981,-0.20993 -0.920438,-0.0963 -0.911572,0.21549 0.0037,0.1291 0.07733,0.20501 0.308508,0.31781 0.230362,0.11241 0.291259,0.1795 0.224793,0.24598 -0.02222,0.0222 -0.05945,0.0397 -0.0832,0.0398 -0.02373,5e-5 -0.08061,0.0237 -0.126607,0.0517 -0.07336,0.0447 -0.08423,0.0644 -0.08423,0.16072 0,0.0605 0.01087,0.14817 0.02429,0.19482 0.01913,0.0668 0.01663,0.0878 -0.01292,0.0992 -0.02061,0.008 -0.05481,-7.4e-4 -0.07648,-0.0186 -0.04804,-0.0399 -0.09849,-7.7e-4 -0.08527,0.0667 0.01685,0.0859 0.13623,0.14514 0.346232,0.17104 0.308858,0.0381 0.460086,0.0887 0.535884,0.1788 0.08397,0.0995 0.08435,0.18822 -5.17e-4,0.38861 -0.09554,0.22697 -0.106082,0.38779 -0.03979,0.60255 0.127019,0.41148 0.385165,0.73768 0.746724,0.94309 0.108889,0.0619 0.134973,0.0674 0.192236,0.0413 0.07734,-0.0352 0.119313,-0.0142 0.325045,0.16847 0.142766,0.12681 0.271176,0.17713 0.422713,0.16433 0.169391,-0.0143 0.173001,-0.0692 0.01654,-0.24701 -0.07492,-0.0851 -0.137863,-0.16456 -0.139527,-0.17674 -0.0016,-0.0122 0.05952,-0.0276 0.135909,-0.0346 0.178858,-0.0166 0.218363,-0.0681 0.136943,-0.17828 -0.06942,-0.0939 -0.07373,-0.2104 -0.0098,-0.2682 0.04414,-0.0399 0.05028,-0.0402 0.08733,0.002 0.0218,0.0249 0.05986,0.0859 0.08475,0.1354 0.05616,0.11183 0.165588,0.25614 0.325045,0.42839 0.129444,0.13981 0.139975,0.16631 0.160197,0.40308 0.01542,0.1804 0.107526,0.35157 0.230993,0.42788 0.184105,0.11378 0.248564,0.0555 0.248564,-0.22583 0,-0.15566 0.0088,-0.19079 0.06615,-0.25889 0.08896,-0.10574 0.239072,-0.14574 0.388607,-0.10387 0.114522,0.0321 0.213223,0.12451 0.295072,0.27595 0.02913,0.0539 0.07386,0.0881 0.138493,0.10594 0.05221,0.0144 0.110375,0.0467 0.129708,0.0723 0.08596,0.11335 0.02593,0.11096 -0.250631,-0.008 -0.260472,-0.11198 -0.454296,-0.13962 -0.548287,-0.078 -0.07982,0.0523 -0.08362,0.1256 -0.0098,0.19431 0.119903,0.11172 0.81778,0.30674 1.424719,0.39842 0.517958,0.0782 0.822773,0.0861 0.847493,0.0217 0.02826,-0.0736 -0.08709,-0.14082 -0.448034,-0.25994 -0.312804,-0.10324 -0.387808,-0.14032 -0.351917,-0.17621 0.008,-0.008 0.168606,0.0213 0.356568,0.0651 0.651799,0.15181 0.897555,0.18194 1.04593,0.13022 0.132389,-0.0462 0.106899,-0.11583 -0.05426,-0.15038 -0.194979,-0.0418 -0.255735,-0.0888 -0.24598,-0.18913 0.0069,-0.0716 0.01906,-0.0833 0.0987,-0.0961 0.05002,-0.008 0.105266,-0.0235 0.122474,-0.0341 0.042,-0.026 0.03968,-0.12288 -0.0052,-0.20929 -0.02,-0.0388 -0.02986,-0.0892 -0.0217,-0.11213 0.02914,-0.0818 0.184417,-0.27621 0.33693,-0.42168 0.11715,-0.11175 0.173707,-0.1478 0.231511,-0.1478 0.07593,0 0.10745,0.0361 0.108003,0.12454 2.2e-4,0.0236 0.01093,0.0595 0.02429,0.0806 0.01945,0.0308 0.03048,0.0318 0.05633,0.006 0.02122,-0.0212 0.03099,-0.0962 0.02687,-0.21859 -0.005,-0.1493 0.0039,-0.20271 0.04548,-0.26975 0.0556,-0.0897 0.128672,-0.10778 0.180867,-0.045 0.01762,0.0212 0.0533,0.0382 0.07906,0.0382 0.08046,0 0.127124,-0.1007 0.127124,-0.27492 0,-0.15805 -0.0025,-0.16329 -0.14056,-0.31781 -0.174535,-0.1956 -0.205731,-0.28576 -0.185001,-0.53123 0.0141,-0.16688 0.01004,-0.19461 -0.03514,-0.23978 -0.10595,-0.10594 -0.260881,-0.0527 -0.523999,0.18087 -0.260694,0.23141 -0.383261,0.27899 -0.483692,0.1881 -0.03375,-0.0305 -0.04726,-0.0797 -0.04754,-0.17364 -2.12e-4,-0.0721 -0.01501,-0.15995 -0.03307,-0.19533 -0.03371,-0.066 -0.08252,-0.0745 -0.287321,-0.0486 -0.07286,0.009 -0.0795,10e-4 -0.152962,-0.17725 -0.07125,-0.17337 -0.07468,-0.19476 -0.04496,-0.29559 0.07765,-0.26334 0.0781,-0.2787 0.02791,-0.4749 -0.06562,-0.25658 -0.160077,-0.42551 -0.346748,-0.61857 -0.133032,-0.13758 -0.168744,-0.16071 -0.246497,-0.16071 -0.102129,0 -0.139184,0.0309 -0.260966,0.21755 -0.129601,0.1987 -0.208995,0.23306 -0.54622,0.23306 -0.239284,0 -0.297484,-0.008 -0.37362,-0.0532 -0.0539,-0.0317 -0.08992,-0.0729 -0.08992,-0.10284 0,-0.0461 0.01632,-0.0493 0.200504,-0.0408 0.342678,0.0159 0.432833,-0.0723 0.289905,-0.28267 -0.121097,-0.1782 -0.334372,-0.22017 -0.636137,-0.12558 -0.192228,0.0603 -0.361903,0.0652 -0.502812,0.0155 -0.139874,-0.0494 -0.635243,-0.14418 -0.752925,-0.14418 z m -3.282487,0.59428 c -0.02439,0.002 -0.04948,0.0181 -0.07752,0.0491 -0.02558,0.0283 -0.06803,0.0512 -0.09508,0.0512 -0.07193,0 -0.148828,0.0476 -0.148828,0.092 0,0.0212 0.05023,0.0877 0.111621,0.14728 0.07412,0.072 0.126556,0.15401 0.15658,0.24443 0.06202,0.18672 0.157645,0.35188 0.248564,0.4284 0.04189,0.0352 0.09131,0.0582 0.109554,0.0512 0.03867,-0.0148 0.120037,-0.22815 0.119889,-0.31419 -1.75e-4,-0.0815 -0.110907,-0.18552 -0.197404,-0.18552 -0.07192,0 -0.240295,-0.13537 -0.240295,-0.19327 0,-0.016 0.0292,-0.0566 0.06459,-0.0899 0.0738,-0.0693 0.08474,-0.18192 0.02377,-0.24288 -0.02704,-0.027 -0.05107,-0.0395 -0.07545,-0.0377 z m -0.763778,0.39481 c -0.142518,-0.007 -0.30711,0.0925 -0.605131,0.34364 -0.236612,0.19936 -0.482309,0.33592 -0.733805,0.40876 -0.231154,0.067 -0.332958,0.11576 -0.40566,0.19379 -0.126516,0.13579 -0.0276,0.25637 0.359151,0.4377 0.357775,0.16772 0.437699,0.23001 0.437699,0.34003 0,0.0469 -0.02287,0.11439 -0.05116,0.15038 -0.02831,0.036 -0.05168,0.0909 -0.05168,0.12144 0,0.0883 -0.09403,0.0411 -0.262516,-0.13074 -0.08082,-0.0824 -0.182664,-0.16785 -0.225826,-0.19017 -0.170571,-0.0882 -0.381457,-0.0402 -0.449068,0.10232 -0.114089,0.24042 0.03776,0.49026 0.376204,0.6196 0.325183,0.12425 0.373606,0.17905 0.617533,0.69246 0.10061,0.21175 0.324439,0.45325 0.488343,0.52762 0.142787,0.0648 0.259148,0.0645 0.446484,5.2e-4 0.08228,-0.0283 0.183061,-0.0512 0.223759,-0.0512 0.18542,0 0.374688,0.14983 0.650606,0.51418 0.408371,0.53925 0.686294,0.67249 1.219564,0.58394 0.368231,-0.0612 0.461262,-0.0565 0.624251,0.032 0.1667,0.0905 0.206611,0.0942 0.266651,0.0279 0.03743,-0.0414 0.04287,-0.0761 0.02945,-0.18604 -0.009,-0.0746 -0.02312,-0.15978 -0.031,-0.18862 -0.03567,-0.13026 0.261275,-0.29785 0.452685,-0.2558 0.151252,0.0332 0.1993,0.19287 0.0894,0.29611 -0.09347,0.0878 -0.07439,0.23099 0.03049,0.23099 0.05795,0 0.481266,-0.26251 0.57826,-0.35863 0.179044,-0.17748 0.18185,-0.41851 0.0062,-0.56328 -0.106045,-0.0874 -0.371663,-0.17083 -0.666626,-0.20928 -0.306268,-0.0399 -0.542596,-0.16299 -0.697115,-0.36381 -0.176845,-0.22982 -0.280614,-0.25097 -0.669727,-0.13539 -0.331093,0.0983 -0.470873,0.12434 -0.501261,0.0941 -0.01408,-0.0141 -0.04249,-0.12298 -0.06253,-0.24184 -0.02003,-0.11887 -0.04356,-0.25798 -0.05271,-0.30955 -0.01656,-0.0934 -0.01668,-0.0943 0.08888,-0.11213 0.117457,-0.0199 0.122907,-0.029 0.13901,-0.27182 0.0075,-0.11271 0.02798,-0.16905 0.09767,-0.26613 0.263086,-0.36646 0.271004,-0.48252 0.04599,-0.64854 -0.07526,-0.0555 -0.108697,-0.0619 -0.304891,-0.0584 -0.267745,0.005 -0.360814,-0.035 -0.459403,-0.19689 -0.104447,-0.1715 -0.167568,-0.18788 -0.478524,-0.12299 -0.14251,0.0297 -0.275605,0.0452 -0.295589,0.0341 -0.05677,-0.0315 0.03554,-0.069 0.222725,-0.0904 0.316589,-0.0361 0.382424,-0.19173 0.167948,-0.39791 -0.128759,-0.12378 -0.332194,-0.26559 -0.51573,-0.36122 -0.04663,-0.0243 -0.09152,-0.0385 -0.13901,-0.0408 z m 9.828341,0.99218 v 5.2e-4 c -0.152162,0 -0.216642,0.19005 -0.09715,0.2868 0.07147,0.0579 0.08886,0.0589 0.14056,0.007 0.09918,-0.0992 0.07065,-0.29404 -0.04341,-0.29404 z m -0.378789,0.46406 c -0.08126,0 -0.110631,0.0131 -0.144694,0.0651 -0.03703,0.0565 -0.03852,0.0799 -0.01085,0.17208 0.01762,0.0588 0.07008,0.14553 0.116789,0.19224 0.157983,0.15798 0.24443,0.10417 0.24443,-0.15193 0,-0.21441 -0.04732,-0.2775 -0.205673,-0.2775 z m 0.994255,0.0548 c -0.02061,-10e-4 -0.04745,0.005 -0.09095,0.0181 -0.115429,0.0346 -0.259932,0.14459 -0.259932,0.19792 0,0.0193 0.0188,0.0462 0.04238,0.0594 0.07631,0.0427 0.319966,-0.0586 0.371036,-0.154 0.02296,-0.0429 0.02079,-0.0624 -0.01085,-0.094 -0.01688,-0.0169 -0.03107,-0.0261 -0.05168,-0.0274 z m -1.744596,1.52394 v 5.2e-4 c -0.129686,0.0126 -0.28358,0.1531 -0.327629,0.31264 -0.02967,0.10744 0.0049,0.25567 0.06873,0.29507 0.06555,0.0405 0.282433,0.0143 0.361218,-0.0434 0.219707,-0.16101 0.189475,-0.50944 -0.04858,-0.56173 -0.01713,-0.004 -0.03522,-0.004 -0.05374,-0.003 z m 5.314404,0.69092 v 5.1e-4 5.2e-4 c -0.01631,0.001 -0.03553,0.003 -0.05839,0.006 -0.163491,0.0245 -0.380929,0.11017 -0.398942,0.1571 -0.01738,0.0453 0.02036,0.127 0.06821,0.14831 0.07377,0.0328 0.329863,-2e-4 0.399459,-0.0522 0.09255,-0.0689 0.130178,-0.17127 0.0832,-0.22789 -0.01381,-0.0166 -0.02923,-0.0267 -0.05219,-0.0305 v 5.1e-4 c -0.01149,-0.002 -0.02503,-0.003 -0.04134,-0.002 z m -4.923214,0.25838 c -0.02106,-7.7e-4 -0.04472,0.002 -0.0708,0.009 -0.113779,0.0288 -0.160517,0.0915 -0.112138,0.14987 0.06672,0.0804 0.284737,0.034 0.284737,-0.0605 0,-0.0607 -0.03862,-0.0956 -0.101803,-0.0982 z m 1.996261,0.0982 c -0.01247,-7e-4 -0.02621,6.5e-4 -0.03979,0.005 v -5.1e-4 c -0.08151,0.023 -0.172786,0.11956 -0.147278,0.18603 0.02365,0.0617 0.09285,0.0456 0.173633,-0.0408 0.08054,-0.0862 0.08989,-0.11336 0.04754,-0.13953 -0.01013,-0.006 -0.02163,-0.01 -0.03411,-0.01 z m -5.807398,0.0243 c -0.08788,0 -0.123465,0.0192 -0.253214,0.13849 -0.209172,0.1923 -0.331037,0.2082 -0.51108,0.0667 -0.08398,-0.0661 -0.202156,-0.0666 -0.237195,-0.001 -0.08386,0.15668 0.02141,0.26106 0.35295,0.34985 0.09346,0.025 0.209896,0.13835 0.275436,0.26769 0.06889,0.13593 0.122714,0.16768 0.359667,0.21135 0.210571,0.0388 0.24598,0.0157 0.24598,-0.15968 0,-0.0682 0.01277,-0.13172 0.02791,-0.14107 0.01513,-0.009 0.110239,0.0252 0.211873,0.0765 0.114017,0.0577 0.239261,0.0987 0.326595,0.108 0.156636,0.0168 0.24052,0.059 0.284737,0.1416 0.03759,0.0702 0.01018,0.13126 -0.142627,0.31884 -0.141203,0.17335 -0.145845,0.23298 -0.03876,0.47697 0.06603,0.15043 0.07701,0.20551 0.07286,0.36639 -0.0028,0.10414 0.0037,0.20263 0.01395,0.21911 0.01019,0.0165 0.073,0.0468 0.139527,0.0672 0.147254,0.0453 0.422886,0.0489 0.543636,0.007 0.119055,-0.0412 0.188765,-0.15963 0.157613,-0.2682 -0.01265,-0.044 -0.01582,-0.087 -0.0078,-0.0951 0.0081,-0.008 0.158302,-0.015 0.333313,-0.015 0.345356,0 0.478682,-0.0332 0.50798,-0.12557 0.04676,-0.14732 -0.11593,-0.23462 -0.436666,-0.23462 -0.23272,0 -0.373104,-0.0441 -0.373104,-0.1173 0,-0.065 0.07566,-0.0729 0.267684,-0.0279 0.260411,0.0609 0.388671,0.0565 0.438733,-0.015 0.06359,-0.0908 0.05159,-0.21384 -0.02739,-0.27595 -0.0373,-0.0293 -0.08235,-0.0527 -0.09973,-0.0527 -0.05571,0 -0.167432,-0.10523 -0.167432,-0.15762 0,-0.0278 0.02336,-0.096 0.05168,-0.15141 0.0653,-0.12795 0.0654,-0.19652 0,-0.23151 -0.07676,-0.0411 -0.155225,0.0511 -0.259416,0.30592 -0.06196,0.15153 -0.116286,0.23997 -0.187586,0.30438 -0.09794,0.0885 -0.105324,0.0905 -0.267683,0.0775 -0.122171,-0.01 -0.18035,-0.0274 -0.219625,-0.0667 l -0.05374,-0.0537 0.05581,-0.0992 c 0.06313,-0.1123 0.05439,-0.13442 -0.09198,-0.23461 -0.0467,-0.0319 -0.08038,-0.071 -0.07545,-0.0858 0.0049,-0.0148 0.07168,-0.0428 0.148828,-0.0625 0.07715,-0.0197 0.162143,-0.0569 0.189136,-0.0837 0.04695,-0.0467 0.04731,-0.0525 0.0047,-0.11782 -0.02588,-0.0395 -0.124851,-0.106 -0.234611,-0.15813 -0.151336,-0.0719 -0.232396,-0.093 -0.398425,-0.10439 -0.185671,-0.0127 -0.216654,-0.009 -0.283187,0.0408 -0.09947,0.0735 -0.177976,0.0382 -0.284737,-0.12816 -0.121894,-0.18996 -0.237066,-0.28009 -0.359152,-0.28009 z m 6.334497,0.003 c -0.02266,-4.8e-4 -0.04563,0.002 -0.06821,0.008 -0.109013,0.0273 -0.105493,0.0854 0.01085,0.18501 0.09852,0.0843 0.105936,0.10045 0.105936,0.22169 0,0.11872 -0.0092,0.13983 -0.101802,0.22789 -0.127347,0.12114 -0.357246,0.18184 -0.463021,0.12247 -0.06304,-0.0354 -0.08157,-0.0643 -0.173116,-0.2651 -0.02545,-0.0558 -0.05991,-0.10564 -0.07596,-0.11058 -0.0474,-0.0146 -0.112174,0.0693 -0.111621,0.14366 0.0011,0.0829 0.180777,0.36233 0.262517,0.40772 0.07638,0.0424 0.06617,0.0428 0.394808,-0.0191 0.451743,-0.085 0.577151,-0.19005 0.577225,-0.48369 3.5e-5,-0.11338 -0.0127,-0.15329 -0.0708,-0.22169 -0.03892,-0.0459 -0.09044,-0.10804 -0.114722,-0.13798 -0.03943,-0.0486 -0.104112,-0.0766 -0.172083,-0.078 z m 3.29644,0.38292 v 5.2e-4 c -0.07028,0.004 -0.153522,0.0274 -0.238228,0.0703 -0.121904,0.0617 -0.140043,0.0806 -0.140043,0.14728 0,0.0557 0.01721,0.0853 0.06408,0.10904 0.09881,0.05 0.16223,0.0403 0.338998,-0.0512 0.174664,-0.0904 0.208318,-0.14684 0.135909,-0.22686 -0.03316,-0.0366 -0.09046,-0.0528 -0.160714,-0.0491 z m -11.638566,0.23462 v 5.1e-4 c -0.143884,10e-4 -0.279661,0.0294 -0.360185,0.078 l -0.08733,0.0527 0.117822,0.10594 c 0.139645,0.1252 0.16046,0.17203 0.109038,0.24546 -0.05223,0.0746 -0.137592,0.0685 -0.318327,-0.0227 -0.166788,-0.0842 -0.326634,-0.10245 -0.350883,-0.0393 -0.03087,0.0804 0.02257,0.17243 0.209289,0.35554 0.264814,0.25971 0.257854,0.37405 -0.02739,0.42839 -0.06979,0.0133 -0.150506,0.0323 -0.178801,0.0424 -0.07931,0.0284 -0.192753,0.14373 -0.192753,0.19585 0,0.0257 0.07543,0.11996 0.167432,0.20929 0.180562,0.17532 0.187474,0.19643 0.142627,0.42892 -0.03839,0.199 0.02851,0.25538 0.330729,0.28008 0.208729,0.017 0.235927,0.0391 0.271818,0.21498 0.02215,0.10857 0.09877,0.13382 0.387057,0.12867 0.146066,-0.003 0.323712,0.0106 0.411344,0.031 0.08493,0.0197 0.236298,0.0339 0.33538,0.0315 0.174511,-0.004 0.179909,-0.006 0.187585,-0.0724 0.0065,-0.0566 -0.0096,-0.079 -0.09612,-0.12764 -0.05743,-0.0323 -0.104903,-0.068 -0.104903,-0.0796 0,-0.0293 0.281863,-0.0261 0.538469,0.006 0.337153,0.0423 0.430444,-8.5e-4 0.349849,-0.16278 -0.06266,-0.12559 -0.05221,-0.1522 0.05116,-0.13281 0.211272,0.0396 0.31019,-0.0804 0.217041,-0.26303 -0.06373,-0.12502 -0.06281,-0.14232 0.01447,-0.21498 0.128754,-0.12096 0.05635,-0.21149 -0.207739,-0.25941 -0.179054,-0.0325 -0.268201,-0.0827 -0.268201,-0.15141 0,-0.0665 0.09602,-0.12919 0.196887,-0.12919 0.117174,0 0.163435,-0.0242 0.191203,-0.0972 0.02066,-0.0544 0.03611,-0.0611 0.101286,-0.0475 0.04216,0.009 0.110434,0.0229 0.151412,0.0315 0.05551,0.0116 0.08834,0.001 0.128674,-0.0388 0.0815,-0.0815 0.06953,-0.17335 -0.02997,-0.23616 -0.07134,-0.045 -0.107914,-0.0506 -0.250631,-0.0362 -0.26104,0.0264 -0.285293,0.0205 -0.404109,-0.0961 -0.09761,-0.0958 -0.117544,-0.10491 -0.178801,-0.0832 -0.03792,0.0134 -0.105621,0.0764 -0.150378,0.14005 -0.09894,0.14081 -0.185043,0.19411 -0.276986,0.17105 -0.03731,-0.009 -0.153072,-0.0898 -0.256315,-0.17932 -0.103254,-0.0895 -0.24498,-0.20166 -0.315743,-0.24908 -0.158343,-0.10614 -0.166637,-0.1177 -0.166915,-0.23771 -5.29e-4,-0.13349 -0.06629,-0.19137 -0.242879,-0.21343 -0.04802,-0.006 -0.09725,-0.009 -0.145211,-0.008 z m 10.24692,0.20515 v 5.2e-4 c -0.03777,-5.3e-4 -0.07682,0.018 -0.12144,0.0563 -0.08274,0.0712 -0.0729,0.17169 0.02119,0.21704 0.204555,0.0986 0.366011,-0.0619 0.214458,-0.21343 -0.03954,-0.0395 -0.07644,-0.06 -0.114205,-0.0605 z m -4.440039,0.96273 c -0.02971,0 -0.06733,0.036 -0.09664,0.0925 -0.07512,0.14474 -0.151001,0.19842 -0.344165,0.24495 -0.0986,0.0238 -0.193685,0.0472 -0.211357,0.0517 -0.04817,0.0123 -0.03865,0.13142 0.01292,0.16329 0.04943,0.0305 0.271723,0.0161 0.379305,-0.0248 0.03928,-0.0149 0.08519,-0.0658 0.111105,-0.12247 0.02434,-0.0532 0.08239,-0.14787 0.128674,-0.21084 0.09055,-0.1232 0.09783,-0.19431 0.02015,-0.19431 z m -12.993006,0.45579 c -0.05911,0.003 -0.09506,0.0318 -0.09457,0.093 0.0021,0.26222 0.39076,0.65616 0.804602,0.81545 0.173321,0.0667 0.288124,0.0796 0.315227,0.0357 0.0227,-0.0368 -0.09702,-0.25665 -0.239262,-0.43925 -0.224351,-0.28801 -0.608651,-0.51342 -0.785999,-0.50488 z m 4.027145,0.0486 c -0.01178,-7.4e-4 -0.02356,-7.4e-4 -0.03462,5.1e-4 -0.02951,0.003 -0.05529,0.0136 -0.07183,0.0336 -0.03964,0.0478 0.0044,0.13703 0.08372,0.16898 0.115597,0.0466 0.197404,0.0131 0.197404,-0.0806 0,-0.0659 -0.09221,-0.11732 -0.174666,-0.12247 z m 0.787032,0.0796 c -0.08483,0.01 -0.112763,0.0826 -0.04496,0.15038 0.03004,0.03 0.07855,0.0499 0.110071,0.0455 0.04567,-0.007 0.05633,-0.0246 0.05633,-0.0977 0,-0.0824 -0.0072,-0.0909 -0.08216,-0.0982 -0.01434,-0.001 -0.02716,-0.001 -0.03927,0 z m 7.339603,0.0512 c -0.01375,-2.2e-4 -0.02776,0.001 -0.04186,0.003 -0.0564,0.008 -0.112576,0.033 -0.144694,0.0723 -0.0555,0.0679 -0.0476,0.10243 0.03462,0.14521 0.06853,0.0356 0.159926,0.023 0.24908,-0.0346 0.07138,-0.0461 0.07324,-0.0918 0.0067,-0.15193 -0.0249,-0.0226 -0.06262,-0.0335 -0.10387,-0.0341 z m -12.635404,0.0191 c -0.01574,-9.5e-4 -0.03092,-3.5e-4 -0.04496,0.002 -0.03743,0.005 -0.06734,0.0221 -0.0832,0.0517 -0.0396,0.074 0.02954,0.19309 0.148312,0.2558 0.122899,0.0649 0.217678,0.0657 0.274402,0.003 0.03925,-0.0434 0.04003,-0.0587 0.0098,-0.12144 -0.05172,-0.10754 -0.194219,-0.18402 -0.304374,-0.19068 z m 4.756816,0.27543 c -0.02328,0.003 -0.04576,0.0108 -0.06563,0.0238 -0.07949,0.0521 -0.07376,0.097 0.02222,0.17777 0.142822,0.12018 0.311089,0.0412 0.227893,-0.10697 -0.03745,-0.0667 -0.114669,-0.10269 -0.184484,-0.0946 z m 5.727299,0.0941 c -0.01733,-0.002 -0.03572,-0.002 -0.05478,0.002 -0.09706,0.0157 -0.186552,0.0806 -0.186552,0.1354 0,0.036 0.0709,0.0816 0.178283,0.1142 0.09962,0.0302 0.123419,0.0284 0.167432,-0.0155 0.08822,-0.0882 0.01694,-0.22013 -0.104386,-0.23513 z m 0.955497,0.0765 c -0.01329,-10e-4 -0.0272,-6.6e-4 -0.04186,0.003 -0.217887,0.0436 -0.333255,0.1457 -0.241329,0.21291 0.06325,0.0463 0.34202,0.0327 0.374137,-0.0181 0.05608,-0.0886 0.002,-0.18935 -0.09095,-0.19741 z m -1.005107,0.57413 c -0.01849,-0.001 -0.03089,0.008 -0.04909,0.0263 -0.02209,0.0221 -0.03979,0.0552 -0.03979,0.0739 0,0.0518 -0.05954,0.0635 -0.181385,0.0362 -0.140485,-0.0316 -0.24281,-0.009 -0.302307,0.0667 -0.0687,0.0874 -0.149717,0.36911 -0.115755,0.40307 0.01497,0.015 0.125975,0.0291 0.24598,0.032 0.154633,0.004 0.235581,0.0183 0.279053,0.0486 0.09161,0.0637 0.204177,0.054 0.332796,-0.0279 0.145484,-0.0927 0.313547,-0.27801 0.302824,-0.33434 -0.0083,-0.0436 -0.21079,-0.19441 -0.386023,-0.28784 -0.04302,-0.0229 -0.06783,-0.0352 -0.0863,-0.0367 z m -0.966349,0.32608 v 5.1e-4 c -0.09594,0.005 -0.19066,0.10081 -0.134876,0.15658 0.02879,0.0288 0.176447,0.0184 0.20929,-0.0145 0.05242,-0.0524 0.03576,-0.12108 -0.03359,-0.13849 -0.01331,-0.003 -0.02712,-0.004 -0.04082,-0.004 z m 5.582088,0.076 v 5.2e-4 c -0.171662,-0.0103 -0.21531,0.2184 -0.02325,0.34778 0.106865,0.072 0.142242,0.0732 0.208256,0.007 0.09812,-0.0981 0.04354,-0.27433 -0.10387,-0.33538 -0.02944,-0.0122 -0.05661,-0.0182 -0.08113,-0.0196 z m -12.440067,0.17829 v 5.1e-4 c -0.103917,0.004 -0.149563,0.11501 -0.06253,0.20206 0.03999,0.04 0.07963,0.0523 0.149345,0.0465 0.08097,-0.007 0.09616,-0.0174 0.102836,-0.0749 0.009,-0.078 -0.04608,-0.14398 -0.141593,-0.16795 -0.01701,-0.004 -0.03321,-0.006 -0.04806,-0.006 z m 1.042313,0.0754 c -0.05935,0.002 -0.113866,0.0152 -0.137459,0.0388 -0.06513,0.0651 -0.04784,0.13925 0.05891,0.24598 0.08088,0.0809 0.11846,0.10025 0.197404,0.10025 0.228904,0 0.260403,-0.24768 0.04548,-0.3576 -0.04123,-0.0211 -0.10498,-0.0297 -0.164331,-0.0274 z m 8.522477,0.10284 c -0.02094,-3.7e-4 -0.04235,8e-4 -0.06356,0.003 -0.127219,0.0145 -0.255418,0.078 -0.330729,0.17932 -0.08211,0.11047 -0.09884,0.1821 -0.06821,0.293 0.02757,0.0999 0.115672,0.17493 0.344682,0.29611 0.139858,0.074 0.170538,0.0806 0.326595,0.0698 0.134355,-0.009 0.224223,-0.0363 0.407727,-0.1235 0.250034,-0.11881 0.307992,-0.17257 0.307992,-0.28629 0,-0.0913 -0.06779,-0.13508 -0.289388,-0.18604 -0.197297,-0.0454 -0.303376,-0.0909 -0.428915,-0.18293 -0.04114,-0.0302 -0.09115,-0.0489 -0.144694,-0.0574 -0.02008,-0.003 -0.04055,-0.005 -0.0615,-0.005 z m 2.797762,0.10955 c -0.01538,-0.002 -0.03289,-0.002 -0.05426,5.2e-4 -0.04273,0.004 -0.101629,0.0177 -0.19327,0.0424 -0.178015,0.048 -0.307488,0.0626 -0.635103,0.0708 -0.226463,0.006 -0.444626,0.0229 -0.484208,0.0382 -0.115297,0.0446 -0.151792,0.14724 -0.131258,0.36329 0.0097,0.1018 0.02346,0.19505 0.03049,0.20722 0.02246,0.0388 0.177265,-0.003 0.290938,-0.0786 0.115847,-0.0767 0.109451,-0.0762 0.552421,-0.0548 0.136398,0.007 0.180126,-0.004 0.350883,-0.0889 0.32908,-0.16263 0.488691,-0.40852 0.315743,-0.48731 -0.01347,-0.006 -0.027,-0.0108 -0.04237,-0.0129 z m 2.646867,0.30231 c -0.0051,0.002 -0.02015,0.003 -0.01499,0.005 0.0024,5.3e-4 0.0053,-2.6e-4 0.0078,5.2e-4 0.0027,-0.002 0.0045,-0.004 0.0072,-0.005 z m -7.645011,0.0796 c -0.08859,-0.007 -0.182077,0.0334 -0.191203,0.0982 -0.0055,0.0387 0.0089,0.0754 0.03721,0.0961 0.05935,0.0434 0.219045,0.0435 0.278536,0 0.06179,-0.0452 0.04301,-0.12297 -0.04082,-0.17002 -0.02508,-0.0141 -0.0542,-0.0218 -0.08372,-0.0243 z m -7.692037,0.20516 c 0.02376,0.0125 0.04715,0.0254 0.07131,0.0372 0.01106,0.005 0.02201,0.0109 0.03307,0.016 -0.03454,-0.0182 -0.07,-0.0348 -0.104386,-0.0532 z m 9.411829,0.0785 v 5.1e-4 c -0.09906,7.9e-4 -0.165365,0.0532 -0.165365,0.13643 0,0.0559 0.08241,0.14863 0.155029,0.17518 0.07623,0.0278 0.248212,0.0178 0.296623,-0.0176 0.04057,-0.0297 0.04496,-0.0494 0.02429,-0.10749 -0.03418,-0.096 -0.136568,-0.16658 -0.266134,-0.18396 -0.0154,-0.002 -0.03029,-0.003 -0.04444,-0.003 z m -3.445268,0.047 c -0.172072,0 -0.246751,0.10491 -0.150895,0.21084 0.06515,0.072 0.275695,0.0653 0.328662,-0.0103 0.05086,-0.0726 0.05053,-0.0766 -0.0124,-0.14418 -0.03858,-0.0414 -0.08229,-0.0563 -0.165364,-0.0563 z m 2.495455,0.13023 c -0.01811,-5e-4 -0.03632,5.1e-4 -0.05426,0.004 -0.07177,0.0114 -0.139556,0.0489 -0.179317,0.10956 -0.04014,0.0612 -0.04066,0.0702 5.17e-4,0.13229 0.02394,0.0365 0.08064,0.0822 0.125574,0.1018 0.104224,0.0453 0.129025,0.0455 0.235128,0.001 0.163121,-0.0682 0.171668,-0.1794 0.02325,-0.29611 -0.04311,-0.0339 -0.09658,-0.0507 -0.150895,-0.0522 z m -1.501201,0.49247 c -0.01562,-5e-5 -0.03223,5.9e-4 -0.05013,0.003 -0.180724,0.0194 -0.260588,0.12719 -0.168982,0.22841 0.08634,0.0954 0.327553,0.0293 0.359668,-0.0987 0.02107,-0.084 -0.0312,-0.13195 -0.14056,-0.13229 z m 3.381706,0.9741 c -0.267931,0.0203 -0.530343,0.067 -0.788065,0.14108 0.266475,-0.0402 0.528482,-0.0882 0.788065,-0.14108 z" />
    </g>
  </g>
</svg>
