<?xml version="1.0" encoding="UTF-8" standalone="no"?>
<!-- Created with Inkscape (http://www.inkscape.org/) -->

<svg
   role='img'
   aria-labelledby="Silhouette of larger seaweed with bubbles"
   viewBox="0 0 246.57414 262.51312"
   version="1.1"
   id="svg31260"
   inkscape:version="1.2 (dc2aedaf03, 2022-05-15)"
   sodipodi:docname="seaweed.svg"
   xmlns:inkscape="http://www.inkscape.org/namespaces/inkscape"
   xmlns:sodipodi="http://sodipodi.sourceforge.net/DTD/sodipodi-0.dtd"
   xmlns="http://www.w3.org/2000/svg"
   xmlns:svg="http://www.w3.org/2000/svg">
  <sodipodi:namedview
     id="namedview31262"
     pagecolor="#505050"
     bordercolor="#eeeeee"
     borderopacity="1"
     inkscape:showpageshadow="0"
     inkscape:pageopacity="0"
     inkscape:pagecheckerboard="0"
     inkscape:deskcolor="#505050"
     inkscape:document-units="mm"
     showgrid="false"
     inkscape:zoom="0.5209506"
     inkscape:cx="-90.219686"
     inkscape:cy="279.29711"
     inkscape:window-width="1920"
     inkscape:window-height="1002"
     inkscape:window-x="-8"
     inkscape:window-y="-8"
     inkscape:window-maximized="1"
     inkscape:current-layer="layer1" />
  <defs
     id="defs31257" />
  <g
     inkscape:label="Layer 1"
     inkscape:groupmode="layer"
     id="layer1"
     transform="translate(51.003065,47.579423)">
    <path
       style="fill:#f1f2da;fill-opacity:1;stroke-width:0.264583"
       d="m 56.48418,214.81261 c -1.71198,-0.53831 -3.75932,-3.33069 -3.76584,-5.13627 -0.003,-0.7371 0.4912,-2.06385 0.76749,-2.06183 0.0858,5.3e-4 0.73606,0.52716 1.44506,1.17006 1.52372,1.38166 2.35562,1.66113 3.23315,1.08614 1.728,-1.13222 2.16404,-3.11888 2.61513,-11.91485 0.41119,-8.01813 0.89429,-11.03555 2.39752,-14.97468 2.00303,-5.24882 5.14689,-9.43661 11.87802,-15.82216 1.90185,-1.80421 5.25505,-5.10433 7.45155,-7.33359 l 3.99363,-4.05319 0.16768,-3.30852 c 0.22611,-4.46132 0.81651,-8.30018 1.93532,-12.58368 1.16661,-4.46649 2.21739,-7.0405 4.86228,-11.91065 2.4887,-4.58255 3.69934,-7.61336 4.60089,-11.51818 1.87941,-8.14021 3.83929,-11.15336 8.68525,-13.35288 1.50604,-0.68357 3.52082,-0.67808 4.6538,0.0127 1.1118,0.67785 2.0188,2.60485 1.78357,3.78936 -0.2412,1.21453 -0.82147,1.78286 -3.76298,3.68558 -1.90953,1.23518 -2.75981,1.95706 -3.06621,2.60318 -0.2683,0.56577 -0.522,2.25416 -0.69094,4.59821 -0.38412,5.32993 -0.57345,5.75292 -4.14478,9.26042 -1.62987,1.60073 -3.2147,3.40591 -3.52186,4.0115 -1.89209,3.73053 -4.20142,11.85837 -4.46075,15.69996 -0.0835,1.23692 -0.27319,2.48416 -0.42151,2.77162 -0.62644,1.21408 1.04522,-0.36876 2.74339,-2.59762 3.18621,-4.18191 5.22509,-8.1666 9.13422,-17.85148 4.95462,-12.27511 9.39686,-18.94066 16.24558,-24.37641 1.23693,-0.98174 4.70259,-3.40436 7.70147,-5.383608 5.61558,-3.70625 7.45601,-5.28216 9.28229,-7.94816 2.04503,-2.98535 2.42516,-4.15101 2.5847,-7.92608 0.15412,-3.64667 0.25344,-3.88045 1.6519,-3.88838 3.29978,-0.0187 4.3361,5.40859 2.32321,12.16678 -1.42991,4.80083 -4.48219,7.86402 -12.11588,12.159188 -2.60652,1.46658 -6.96397,4.59465 -8.97695,6.44425 -1.6201,1.48861 -5.45163,6.60936 -7.26311,9.70698 -3.01192,5.15037 -3.67913,6.80753 -6.17508,15.33722 -3.87745,13.25088 -5.8955,16.27536 -16.56875,24.83189 -1.84076,1.47569 -3.8428,3.30599 -4.44898,4.06733 -0.60619,0.76134 -4.06551,4.38855 -7.68739,8.06047 -7.06865,7.16632 -8.03949,8.30858 -8.48842,9.9871 -0.15941,0.59603 -1.15735,3.52448 -2.21763,6.50766 -1.92306,5.41066 -2.53511,7.7699 -3.05446,11.77395 -0.151,1.16417 -0.33966,2.44409 -0.41925,2.84427 -0.23637,1.1884 0.29285,0.83733 1.47659,-0.97954 1.40482,-2.1562 3.01498,-3.64767 4.52167,-4.18837 0.64631,-0.23194 2.71713,-0.87476 4.60182,-1.4285 6.69335,-1.96656 8.1412,-3.63274 8.80999,-10.13848 0.41245,-4.01216 1.56369,-6.40748 4.68142,-9.74034 1.97018,-2.10613 4.03106,-3.58555 7.41832,-5.32529 3.10753,-1.59608 3.38372,-1.84096 6.65953,-5.90457 2.68005,-3.3246 3.43139,-3.90064 5.08762,-3.90064 1.69248,0 2.28454,1.02902 1.61115,2.80019 -0.15014,0.39489 -1.22762,1.72649 -2.39441,2.95912 -2.64847,2.79793 -4.35739,6.1078 -8.47739,16.4192 -2.40679,6.02366 -4.1266,8.90143 -7.13606,11.94089 -3.21043,3.24243 -5.21384,4.27112 -11.61709,5.96504 -1.81901,0.4812 -3.96213,1.12064 -4.7625,1.42098 -0.82503,0.30958 -2.10657,0.5498 -2.95934,0.55469 -2.06278,0.0119 -2.68009,0.30259 -4.71172,2.21912 -0.96781,0.91299 -2.27487,2.00952 -2.90457,2.43673 -0.63202,0.42879 -1.75689,1.6557 -2.51106,2.73883 -1.76609,2.53648 -3.33456,3.49613 -5.917,3.62026 -0.97136,0.0467 -2.03484,2.7e-4 -2.3633,-0.10289 z m -32.08056,-0.3027 C 19.81964,213.11552 13.22197,206.15554 9.71477,199.01441 7.36736,194.23475 6.4285,190.26048 6.41891,185.06268 l -0.005,-2.83923 -0.72761,-0.16802 c -1.09027,-0.25177 -6.92438,-3.32678 -9.51252,-5.01381 -3.03459,-1.97805 -6.49786,-4.89908 -7.44278,-6.27748 -1.1018,-1.60725 -2.03689,-3.53989 -2.72848,-5.63924 -0.5039,-1.5296 -0.60427,-2.41432 -0.6128,-5.40111 -0.0114,-3.98498 0.34743,-6.24325 1.48673,-9.35738 0.81,-2.21403 2.32936,-5.38359 3.11701,-6.50244 1.35811,-1.92918 1.68799,-2.99235 1.63658,-5.2745 -0.0637,-2.82819 -0.66681,-4.65445 -2.7433,-8.3072 -2.98575,-5.25222 -8.57674,-9.86382 -13.87006,-11.44042 -8.70995,-2.59422 -12.63796,-5.10997 -15.40866,-9.86869 -1.43444,-2.46367 -2.18625,-4.69015 -3.21915,-9.533448 -1.35951,-6.37484 -2.5842,-9.68186 -5.30718,-14.33097 -2.71382,-4.63346 -2.78815,-8.46615 -0.16414,-8.46313 2.37845,0.003 5.209,3.69025 8.32613,10.84693 2.96399,6.80507 4.60644,9.56872 7.44878,12.533528 3.17581,3.31266 5.29724,4.16863 13.16577,5.31226 2.49308,0.36235 5.11245,0.78555 5.82084,0.94045 1.82475,0.39903 5.45927,1.58394 5.85203,1.90786 0.57682,0.47575 0.35727,-0.0811 -0.37239,-0.94445 -1.61794,-1.91439 -2.78086,-5.8165 -3.41881,-11.471588 -1.0967,-9.72174 -2.23345,-12.07658 -6.60446,-13.6815 -3.10746,-1.14099 -4.79342,-2.03799 -7.14345,-3.80066 -4.77472,-3.58134 -8.50926,-8.62302 -10.27176,-13.867016 -2.44694,-7.28041 -2.15358,-18.783402 0.73078,-28.654924 1.57246,-5.381622 3.47419,-9.200477 7.83961,-15.742708 1.92226,-2.880783 2.31033,-3.649157 2.65518,-5.257122 0.58172,-2.712464 -0.66743,-6.003671 -5.18476,-13.660586 -5.14026,-8.712782 -6.35941,-11.373633 -6.15914,-13.442534 0.0748,-0.772655 0.16908,-0.852136 1.10173,-0.928738 2.07315,-0.170275 4.51356,1.420003 8.52423,5.554774 7.51645,7.749018 11.01181,14.169673 12.43361,22.839415 0.5191,3.165319 0.39083,8.949872 -0.26696,12.038541 -0.70784,3.323691 -2.1962,7.400721 -3.71866,10.186458 -5.32698,9.747049 -6.29946,13.370277 -4.78781,17.838322 1.20475,3.560952 2.87005,5.425742 8.88837,9.953142 1.52797,1.14945 4.27715,3.58191 6.10929,5.405466 3.77254,3.75486 4.71016,5.28197 5.43956,8.85945 0.54276,2.66206 0.25087,4.50448 -1.28043,8.08216 -2.51299,5.87127 -3.48617,10.0829 -3.34466,14.474608 0.0804,2.49397 0.19181,3.07339 0.88004,4.57539 0.43342,0.94588 1.66004,2.87991 2.72583,4.29784 3.67733,4.89233 5.22783,9.41741 5.73469,16.73653 0.20096,2.9018 -0.18226,6.5039 -0.94063,8.84159 -0.31078,0.95796 -1.43763,3.58721 -2.50412,5.84279 -3.06294,6.47794 -3.78223,10.02306 -2.79918,13.79631 1.23961,4.758 3.33149,7.26189 8.9007,10.65375 1.88991,1.15102 3.84038,2.39061 4.33438,2.75464 l 0.89818,0.66188 -0.14105,-2.49007 c -0.0895,-1.57923 -0.68338,-4.95795 -1.62369,-9.23693 -2.36831,-10.77725 -4.15946,-21.32134 -4.17994,-24.60625 -0.0281,-4.51373 1.22464,-7.55069 4.32106,-10.47499 0.78437,-0.74077 1.60217,-1.40798 1.81732,-1.48269 0.33574,-0.11659 0.32809,-0.20711 -0.054,-0.63864 -0.83324,-0.94108 -2.3292,-4.46667 -2.97426,-7.00957 -0.90036,-3.54935 -1.21077,-6.81607 -1.21077,-12.74225 0,-14.022398 -1.69774,-20.930928 -7.23282,-29.432068 -7.31191,-11.230116 -9.1627,-15.163366 -9.58644,-20.37291 -0.30109,-3.701642 0.98656,-9.204454 2.83349,-12.108979 3.05094,-4.797993 6.89959,-6.454378 9.05236,-3.89596 1.15223,1.369346 1.3405,3.135336 1.02933,9.654939 -0.31216,6.54027 -0.13596,9.722604 0.73245,13.229164 0.84375,3.40697 1.70458,5.13557 5.39139,10.82619 1.79904,2.776846 3.65094,5.805436 4.11531,6.730216 0.98867,1.96886 2.92535,7.26372 2.92535,7.99787 0,0.27895 0.11906,0.50718 0.26458,0.50718 0.14552,0 0.26459,-0.14076 0.26459,-0.3128 0,-0.2667 2.43655,-3.97107 4.65758,-7.08108 0.35806,-0.50138 0.60265,-1.03716 0.54354,-1.19063 -0.0591,-0.15346 -2.10432,-3.30834 -4.5449,-7.010836 -5.08753,-7.71807 -6.19911,-9.68511 -7.0358,-12.45048 -1.14058,-3.769772 -0.62735,-8.755612 0.9765,-9.486375 1.04819,-0.477587 1.87998,-0.360551 2.43285,0.342304 0.27927,0.355034 1.07825,2.170737 1.7755,4.034896 1.59621,4.267525 1.86056,4.790755 4.42651,8.761325 2.00221,3.09825 4.44113,7.85932 4.44113,8.66964 0,0.20802 0.10914,0.37821 0.24254,0.37821 0.53234,0 0.43496,-0.72663 -0.26595,-1.98438 -1.10121,-1.97606 -2.02892,-5.04226 -2.20143,-7.27604 -0.5836,-7.55662 -0.76616,-9.260971 -1.1042,-10.308232 -0.48401,-1.499491 -2.08035,-4.18883 -4.22288,-7.114238 -0.92204,-1.258943 -2.8975,-4.015393 -4.38993,-6.125445 -1.49242,-2.110052 -3.55903,-4.967552 -4.59246,-6.35 C 4.10617,26.45708 0.7144,21.309849 -0.32533,19.245231 -1.6333,16.64796 -2.12213,14.51133 -2.11456,11.424836 c 0.008,-3.198021 0.51957,-5.521473 1.90196,-8.635857 2.23106,-5.026364 6.55775,-9.931307 11.25818,-12.762812 2.05813,-1.2398 4.6563,-1.945304 5.59273,-1.518637 0.61979,0.282393 0.67597,0.423744 0.54792,1.378461 -0.18307,1.36485 -1.41931,3.400832 -3.81438,6.281952 -4.31679,5.19281 -5.62349,7.721332 -5.83354,11.288143 -0.1121,1.903632 -0.0419,2.329701 0.69753,4.233333 1.18233,3.043852 2.85181,5.11642 9.1644,11.377084 7.46399,7.402605 10.14271,11.060728 11.23942,15.348788 1.02752,4.017595 0.64301,6.53759 -1.70757,11.190875 -0.63899,1.264957 -1.29962,2.954763 -1.46807,3.755128 -0.28716,1.364398 -0.24953,1.636829 0.60304,4.365622 0.50013,1.60073 1.12324,3.71695 1.38469,4.7027 l 0.47537,1.79229 0.97357,-1.79229 c 1.32393,-2.4373 3.83704,-6.47953 5.22667,-8.406864 2.50823,-3.478778 3.40845,-5.340601 5.37553,-11.117654 1.47605,-4.334952 1.58899,-6.341009 0.65512,-11.636512 -0.38494,-2.182813 -0.82092,-5.814219 -0.96884,-8.069792 -0.14791,-2.255573 -0.32059,-4.362058 -0.38373,-4.681077 -0.0775,-0.391615 -0.90941,-1.069771 -2.56098,-2.08765 C 31.39448,13.440964 30.09088,12.382562 28.29029,9.972006 26.8134,7.994823 26.00708,5.94272 25.99935,4.141521 c -0.0106,-2.474195 0.90697,-3.099625 3.43593,-2.341927 2.16194,0.647731 5.49502,3.871589 8.85717,8.566909 2.15864,3.014593 2.5755,3.959847 3.93065,8.912944 0.66437,2.428264 1.55578,5.10717 1.98091,5.953125 1.23424,2.455992 2.17999,5.35431 2.35351,7.212489 l 0.1607,1.720905 0.64581,-1.845566 C 48.30352,29.635567 48.46602,25.61789 47.7497,22.785214 46.93037,19.545221 44.88959,14.615415 43.15639,11.689419 42.29441,10.234211 40.20226,7.376711 38.50716,5.33942 35.08594,1.227522 33.4697,-1.687533 32.23229,-5.977968 c -0.99528,-3.450929 -1.09147,-5.155483 -0.46281,-8.201197 0.6048,-2.930065 1.90786,-5.619734 3.91318,-8.07723 2.17772,-2.668769 2.32829,-3.217143 2.33932,-8.51981 0.0132,-6.340734 -0.35134,-7.352054 -4.91996,-13.649724 -0.85399,-1.177191 -1.5527,-2.386252 -1.5527,-2.686802 0,-0.488221 0.11983,-0.531696 1.12448,-0.407968 1.90026,0.234028 3.33647,1.043678 5.40656,3.047886 3.06557,2.968018 4.92013,6.284136 6.40218,11.44765 0.67435,2.349467 0.8396,4.343947 0.52328,6.315806 -0.3239,2.019053 -0.84313,2.993952 -3.05348,5.733144 -1.99317,2.470052 -2.72525,3.790021 -2.9132,5.252606 -0.13521,1.052243 1.88187,7.821599 3.24313,10.883993 0.99601,2.240708 3.53569,6.813158 4.55128,8.194145 l 0.80203,1.090586 0.7173,-1.537224 c 2.56589,-5.498851 3.98956,-10.57177 6.11176,-21.777848 1.72271,-9.09659 2.24372,-10.31875 4.39898,-10.31875 1.51844,0 2.37793,1.021031 3.05885,3.633735 0.75539,2.898474 0.90592,4.893622 0.58376,7.737482 -0.73375,6.477262 -5.46846,15.628821 -11.8128,22.832547 l -1.11244,1.263139 1.95235,4.028527 c 2.02786,4.184349 3.00186,7.195564 3.69934,11.436861 0.93902,5.710147 0.2312,10.225122 -2.44255,15.580169 -2.05547,4.116721 -7.53335,12.542547 -9.97273,15.339581 -3.6406,4.17438 -4.53566,5.93395 -7.27189,14.29565 -1.79512,5.485736 -2.97166,8.256026 -4.33123,10.198366 l -0.63669,0.90961 0.4832,1.84049 c 0.26576,1.01227 0.56272,2.97163 0.6599,4.35414 0.20234,2.87859 0.18922,2.88164 1.90495,-0.4426 1.04814,-2.03075 1.69109,-3.90174 2.71189,-7.89159 0.70672,-2.76223 1.34683,-3.51611 2.98546,-3.51611 1.96978,0 2.81768,1.33936 3.00945,4.75378 0.11639,2.07235 0.0569,2.43841 -0.72448,4.45941 -1.02168,2.64245 -3.43124,5.97088 -5.3969,7.45496 -0.74916,0.56563 -2.19383,1.41185 -3.21037,1.8805 -1.01654,0.46864 -1.87946,0.87383 -1.9176,0.90041 -0.0381,0.0266 0.17744,0.60626 0.47909,1.28818 1.48391,3.35463 2.07537,9.759608 1.46897,15.907548 -0.49795,5.04838 -0.94765,6.96932 -2.2918,9.78958 -1.20997,2.53873 -2.79738,4.227 -6.10374,6.49157 -2.91193,1.99442 -6.19901,3.46578 -7.18086,3.21429 -0.27681,-0.0709 -0.0344,0.92127 0.98994,4.05248 1.27645,3.9017 1.59576,6.39634 1.59168,12.43541 -0.003,4.11987 -0.11006,5.77938 -0.48445,7.49411 -0.60937,2.79099 -3.91189,13.81594 -4.78912,15.98772 l -0.6631,1.64169 0.73543,0.7997 c 3.56143,3.87269 4.42879,6.22144 5.07606,13.74567 0.14934,1.73601 0.44031,3.87913 0.64659,4.7625 0.54339,2.32693 2.253,7.17269 3.92776,11.13292 2.11233,4.99497 2.42159,6.17592 2.40724,9.19246 -0.007,1.41883 0.0791,2.57969 0.19081,2.57969 0.435,0 2.4153,-3.73323 3.68396,-6.94497 1.8695,-4.73279 2.39733,-6.94185 2.41822,-10.12066 0.027,-4.1048 -0.97473,-6.14145 -4.94498,-10.05416 -1.89186,-1.86444 -2.35702,-2.52765 -3.90356,-5.56559 -2.32371,-4.56455 -3.40168,-7.80291 -3.57215,-10.73117 -0.38376,-6.59207 2.52559,-12.75325 10.10825,-21.40637 2.13108,-2.43193 2.53078,-3.44726 3.43716,-8.73125 2.13641,-12.45482 3.24703,-16.62812 6.37232,-23.94479 1.20944,-2.83145 3.40698,-7.40441 3.81437,-7.9375 0.57176,-0.74817 3.18086,-5.99902 3.56108,-7.166728 0.41382,-1.2709 0.40908,-1.55106 -0.0852,-5.02709 -0.66886,-4.70402 -1.33152,-7.87681 -2.64766,-12.67692 -1.26569,-4.6161 -1.58456,-6.29427 -1.852,-9.74699 -0.62621,-8.084196 1.76579,-15.764516 7.7592,-24.913513 8.004,-12.21818 11.8406,-19.163437 13.01819,-23.566368 0.38888,-1.453992 0.49049,-2.792283 0.49076,-6.46384 l 2.6e-4,-4.630208 -1.52896,-4.081394 C 61.39807,3.822008 60.9258,1.960317 60.9258,-0.349122 c 0,-4.596175 2.67352,-10.28088 6.20988,-13.20405 2.27415,-1.879819 5.53017,-2.751029 8.03543,-2.150028 1.71144,0.410568 2.6802,1.289468 2.6802,2.431595 0,0.747816 -0.34646,1.187702 -2.63322,3.343246 -1.44827,1.365173 -2.99015,3.038361 -3.4264,3.718198 -0.99781,1.555059 -1.61323,3.883353 -1.61323,6.103516 0,0.945341 -0.19392,2.882831 -0.43094,4.305536 l -0.43094,2.586736 0.8266,2.319604 c 1.14253,3.206131 1.63551,5.758281 1.81274,9.384528 0.21993,4.499887 -0.68777,9.439608 -2.33374,12.700248 l -0.7975,1.579854 2.59512,-2.205562 c 1.42732,-1.213056 2.89278,-2.481495 3.25658,-2.818749 0.3638,-0.337253 2.32833,-2.017085 4.36563,-3.732956 2.03729,-1.715873 4.5376,-4.000097 5.55625,-5.07606 2.8381,-2.997795 3.5818,-4.230431 6.20824,-10.289823 3.66064,-8.445357 4.86091,-10.370841 11.19144,-17.953402 1.27515,-1.527334 2.62519,-3.321619 3.0001,-3.987305 1.15429,-2.049537 1.75559,-4.816515 1.78669,-8.221792 0.0269,-2.947606 -0.005,-3.125407 -1.01372,-5.688542 -1.10409,-2.804786 -1.34946,-4.734593 -0.70129,-5.515585 0.50521,-0.608747 2.035,-0.552024 3.11509,0.115503 2.21581,1.369446 4.57234,6.949191 4.58698,10.860958 0.0108,2.89276 -1.45524,8.210409 -3.23588,11.73704 -0.51432,1.018646 -1.62677,2.804584 -2.47211,3.96875 -0.84533,1.164167 -2.99456,4.279448 -4.77606,6.922847 -4.28171,6.353233 -5.18404,8.475321 -6.84413,16.095903 -1.01511,4.659852 -1.88447,7.381997 -3.20222,10.026872 -3.01096,6.043324 -5.76276,8.186809 -14.12543,11.002862 -5.95051,2.003782 -7.29892,2.769539 -10.46049,5.940459 -8.1127,8.136689 -12.55226,17.315227 -12.55719,25.961223 -5.3e-4,1.02677 0.30525,4.59864 0.67965,7.9375 0.87253,7.78128 0.8202,14.19985 -0.14007,17.18316 -0.63543,1.97411 -2.35552,5.746848 -3.31734,7.276038 -0.52731,0.83836 -2.25039,5.17524 -2.25039,5.66406 0,0.11096 0.54871,-0.28124 1.21935,-0.87157 0.67065,-0.59032 2.24822,-1.6033 3.50573,-2.25105 1.25751,-0.64775 3.26377,-1.75246 4.45835,-2.4549 1.19459,-0.70244 3.45677,-2.01515 5.02708,-2.917138 1.57032,-0.90199 3.56949,-2.22148 4.44262,-2.9322 1.95452,-1.59099 1.95391,-1.43703 0.0286,-7.25171 -2.94648,-8.89885 -4.68003,-14.9169 -4.8373,-16.79286 -0.16563,-1.97561 0.21583,-5.314766 0.85179,-7.456286 1.09636,-3.69186 4.06427,-5.64779 5.85407,-3.85799 0.59222,0.59222 0.66164,0.83481 0.52472,1.83376 -0.0868,0.63319 -0.7406,2.26199 -1.4529,3.61956 -0.87386,1.66547 -1.40115,3.069876 -1.62111,4.317796 -0.30447,1.72729 -0.27945,2.03196 0.37869,4.61115 0.38759,1.51891 0.88183,3.18578 1.09832,3.70416 0.50639,1.21257 2.90998,5.30579 4.9037,8.35085 2.4948,3.81036 2.10207,3.61157 3.69398,1.86976 2.67866,-2.93088 3.97619,-4.96448 5.66725,-8.88226 2.19055,-5.07494 2.49496,-6.92504 2.76432,-16.799996 0.16017,-5.87222 0.33912,-8.653026 0.62996,-9.789584 2.06912,-8.08565 7.62348,-13.573807 17.83305,-17.620495 4.6168,-1.82993 7.42726,-3.977479 8.79586,-6.721171 0.58554,-1.173851 0.65894,-1.65086 0.65139,-4.233333 -0.005,-1.60073 -0.11112,-4.404265 -0.23654,-6.230081 -0.27456,-3.996872 -0.0853,-5.532551 0.81375,-6.600954 0.67686,-0.804402 1.90078,-1.066768 2.67727,-0.573916 0.57101,0.362432 0.81322,1.769486 0.6761,3.927663 -0.10597,1.668063 0.0268,2.8013 0.68522,5.848514 1.38125,6.392513 0.98451,9.95708 -1.43719,12.912444 -1.33726,1.63194 -2.72268,2.598767 -6.98749,4.876263 -6.75114,3.60525 -10.57416,6.682187 -11.94671,9.615263 -1.22909,2.626508 -2.78016,8.531297 -3.38618,12.890917 -0.15334,1.10313 -0.34903,2.23422 -0.43487,2.51354 -0.11169,0.36346 -0.0249,0.31979 0.30523,-0.15361 1.21117,-1.73672 3.42055,-3.49208 6.01205,-4.77658 2.23095,-1.10579 3.73509,-1.5911 8.90224,-2.87226 3.41974,-0.8479 6.97914,-1.853723 7.90979,-2.235151 3.81645,-1.564193 5.90534,-3.531606 9.42297,-8.875004 2.64046,-4.010945 3.84956,-5.053507 5.86077,-5.053507 2.93436,0 1.84612,3.197558 -3.51015,10.313794 -5.73671,7.621698 -8.14657,9.147438 -19.4188,12.294578 -4.8558,1.35571 -6.62451,2.10032 -9.74733,4.10353 -3.14884,2.01989 -5.08037,4.209446 -5.99239,6.792866 -3.39066,9.60459 -7.09853,16.31904 -11.78352,21.3384 -1.69879,1.82003 -2.13946,2.45057 -2.03402,2.91042 0.074,0.32287 0.39809,1.588138 0.72014,2.811728 0.50587,1.92195 0.56832,2.69605 0.45891,5.68854 -0.10447,2.85723 -0.24912,3.80934 -0.82598,5.43667 -0.74645,2.10572 -1.66467,3.30543 -2.73561,3.57422 -0.55715,0.13983 -0.63651,0.27826 -0.50522,0.8813 0.68506,3.14665 0.41272,6.88762 -0.67588,9.2841 -1.09234,2.40468 -3.93558,4.77899 -6.50732,5.43405 l -1.2499,0.31837 -0.29832,2.2514 c -0.16408,1.23827 -0.48883,2.90671 -0.72167,3.70764 -0.69171,2.3794 -2.62635,6.28151 -4.44289,8.96116 -0.93535,1.37978 -1.80982,2.68552 -1.94327,2.90164 -0.13344,0.21613 0.37287,-0.0589 1.12514,-0.61107 1.51029,-1.10866 6.24653,-3.11444 10.40401,-4.40607 3.54988,-1.10287 5.21789,-1.86105 6.42395,-2.92 2.78472,-2.44501 2.97036,-6.05344 0.66488,-12.92351 -1.10727,-3.29952 -1.55456,-6.45705 -1.04862,-7.4024 0.40432,-0.75548 1.86701,-0.78354 2.53215,-0.0486 0.29638,0.3275 0.70522,1.73062 1.0901,3.74122 0.33871,1.76945 0.84774,3.94464 1.13116,4.83377 1.0745,3.37081 1.47416,5.5923 1.48084,8.23118 0.006,2.2877 -0.0786,2.80587 -0.62352,3.82819 -0.91337,1.71359 -1.82403,2.78385 -3.47082,4.07913 -2.01957,1.58849 -2.51492,1.81119 -8.27307,3.71944 -3.66937,1.21603 -6.54268,2.39785 -10.30326,4.23786 l -5.21488,2.55157 -2.30179,3.09503 c -3.28684,4.41954 -3.28385,4.4152 -5.04384,7.32864 -4.52759,7.49483 -5.59178,11.09106 -4.83463,16.3377 l 0.35319,2.44743 0.41746,-2.3852 c 0.53406,-3.05145 1.54497,-5.10166 3.45956,-7.01624 3.61135,-3.61135 5.40418,-4.55574 7.52264,-3.9626 1.76725,0.4948 2.78737,1.75163 2.78737,3.43415 0,1.74633 -0.36346,2.58772 -1.35113,3.12781 -2.74788,1.5026 -5.20724,4.61507 -6.18996,7.83378 -1.35136,4.42609 -2.38614,12.3417 -2.66677,20.39955 -0.0963,2.7649 -0.28394,5.16346 -0.41699,5.33014 -0.6052,0.75814 -4.33402,0.59418 -5.15487,-0.22667 -0.28914,-0.28914 -0.4922,-1.71541 -0.768,-5.3941 -0.4496,-5.99702 -0.39484,-5.69752 -1.85761,-10.16041 -2.07234,-6.32271 -2.24034,-7.4039 -2.50789,-16.13958 -0.13147,-4.29286 -0.35493,-8.75771 -0.49656,-9.92188 -0.39082,-3.21231 -0.33695,-9.77066 0.0971,-11.81846 0.93202,-4.39748 2.41228,-8.26842 4.73832,-12.39091 3.30789,-5.86265 6.90693,-10.40771 11.24374,-14.19922 2.37873,-2.07962 6.77977,-5.11536 7.41597,-5.11536 0.30382,0 0.33843,-0.69253 0.20168,-4.0349 -0.0908,-2.21919 -0.23986,-4.99587 -0.33126,-6.1704 -0.20582,-2.64504 0.24208,-3.81762 1.45824,-3.81762 0.93532,0 1.19101,0.30338 2.12853,2.52557 0.55222,1.30891 0.80618,1.6672 0.97548,1.37624 0.12589,-0.21636 0.72771,-0.64574 1.33738,-0.95419 0.72859,-0.36861 1.4364,-1.05482 2.06527,-2.00226 0.52623,-0.7928 1.73837,-2.17259 2.69365,-3.06621 l 1.73687,-1.62476 -0.1821,-1.63292 c -0.10016,-0.89811 -0.4903,-2.32283 -0.86699,-3.16605 l -0.68489,-1.53312 -0.81849,0.77684 c -1.58894,1.50809 -8.185,5.35657 -10.70422,6.2454 -2.53845,0.89562 -6.98345,3.99788 -10.10492,7.05244 -3.59213,3.51512 -4.79452,5.48671 -6.19509,10.15823 -1.37248,4.57783 -2.0542,6.27265 -4.81605,11.97319 -1.48942,3.07422 -2.46799,5.41952 -2.46799,5.91493 0,1.10295 -0.71889,3.81434 -1.32775,5.0078 -0.2714,0.53198 -1.66395,2.21209 -3.09455,3.73357 -2.89782,3.0819 -4.79856,5.92063 -6.08592,9.08926 -0.70523,1.73581 -0.86077,2.47698 -0.86442,4.11916 -0.007,3.01317 0.95892,5.83045 2.66399,7.7724 0.4472,0.50935 1.75519,1.58622 2.90664,2.39306 3.58577,2.51261 6.41899,6.63289 7.13962,10.38297 0.1878,0.9773 0.26643,2.86308 0.19306,4.6302 -0.14981,3.60795 -0.93637,6.18787 -3.50908,11.50972 -2.75728,5.70366 -5.47451,9.38889 -7.67889,10.41451 -1.08836,0.50637 -2.66987,0.61219 -3.83817,0.25681 z M 45.4971,161.11964 c 0.405,-0.60012 1.27228,-1.6657 1.92729,-2.36796 5.07293,-5.4389 8.56185,-10.33515 11.36139,-15.94427 1.26114,-2.52678 2.78349,-6.68038 2.61697,-7.14015 -0.12768,-0.3525 -5.36793,2.05876 -7.23464,3.32896 -4.81394,3.27564 -7.82103,8.59435 -8.95867,15.84541 -0.35568,2.26706 -0.73285,7.65327 -0.52109,7.44151 0.0398,-0.0398 0.40375,-0.56339 0.80875,-1.1635 z M 18.18763,119.19126 c 1.93152,-1.03076 3.82434,-2.59412 5.31619,-4.39085 3.032,-3.65164 3.8075,-6.23557 3.82116,-12.73197 0.006,-2.633718 0.1622,-5.236078 0.39167,-6.506108 0.49348,-2.73122 0.50993,-2.6307 -0.33475,-2.04539 -1.22325,0.84764 -4.63868,2.62616 -5.68114,2.95835 -0.96627,0.30791 -1.00278,0.36941 -1.94333,3.2723 -0.5272,1.627168 -1.42387,5.100068 -1.99259,7.717558 -0.82978,3.81897 -2.1009,8.8628 -3.31754,13.16411 -0.11301,0.39952 0.0564,0.37214 1.27584,-0.20627 0.77339,-0.36682 1.8824,-0.9211 2.46449,-1.23173 z m 8.78135,-28.988848 c 1.01355,-0.64901 1.54352,-1.14271 1.39072,-1.29551 -0.1358,-0.1358 -0.32454,-0.98967 -0.41942,-1.89749 l -0.17253,-1.65059 -0.4863,1.08618 c -0.4909,1.09646 -2.01702,3.74976 -2.91715,5.07172 -0.70229,1.03141 -0.6011,1.20807 0.23947,0.4181 0.40019,-0.37609 1.46453,-1.15567 2.36521,-1.73241 z"
       id="path29077" />
    <g
       id="g49248"
       transform="matrix(0.54717795,0,0,0.54717795,74.11047,102.31839)"
       style="fill:#f1f2da;fill-opacity:1">
      <ellipse
         style="fill:#f1f2da;fill-opacity:1;fill-rule:evenodd;stroke:#f1f2da;stroke-width:0.942;stroke-dasharray:none;stroke-opacity:1"
         id="ellipse49242"
         cx="132.04005"
         cy="107.76479"
         rx="10.541844"
         ry="10.120171" />
      <circle
         style="fill:#f1f2da;fill-opacity:1;fill-rule:evenodd;stroke-width:0.206375"
         id="circle49244"
         cx="130.85835"
         cy="100.91731"
         r="1.2379712" />
      <circle
         style="fill:#f1f2da;fill-opacity:1;fill-rule:evenodd;stroke-width:0.216184"
         id="circle49246"
         cx="126.99023"
         cy="104.98041"
         r="2.126771" />
    </g>
    <g
       id="g49238"
       transform="matrix(0.65121982,0,0,0.65121982,82.79767,68.310194)"
       style="fill:#f1f2da;fill-opacity:1">
      <ellipse
         style="fill:#f1f2da;fill-opacity:1;fill-rule:evenodd;stroke:#f1f2da;stroke-width:0.942;stroke-dasharray:none;stroke-opacity:1"
         id="ellipse49232"
         cx="132.04005"
         cy="107.76479"
         rx="10.541844"
         ry="10.120171" />
      <circle
         style="fill:#f1f2da;fill-opacity:1;fill-rule:evenodd;stroke-width:0.206375"
         id="circle49234"
         cx="130.85835"
         cy="100.91731"
         r="1.2379712" />
      <circle
         style="fill:#f1f2da;fill-opacity:1;fill-rule:evenodd;stroke-width:0.216184"
         id="circle49236"
         cx="126.99023"
         cy="104.98041"
         r="2.126771" />
    </g>
    <g
       id="g49228"
       transform="matrix(0.83582538,0,0,0.83582538,54.071643,10.595876)"
       style="fill:#f1f2da;fill-opacity:1">
      <ellipse
         style="fill:#f1f2da;fill-opacity:1;fill-rule:evenodd;stroke:#f1f2da;stroke-width:0.942;stroke-dasharray:none;stroke-opacity:1"
         id="ellipse49222"
         cx="132.04005"
         cy="107.76479"
         rx="10.541844"
         ry="10.120171" />
      <circle
         style="fill:#f1f2da;fill-opacity:1;fill-rule:evenodd;stroke-width:0.206375"
         id="circle49224"
         cx="130.85835"
         cy="100.91731"
         r="1.2379712" />
      <circle
         style="fill:#f1f2da;fill-opacity:1;fill-rule:evenodd;stroke-width:0.216184"
         id="circle49226"
         cx="126.99023"
         cy="104.98041"
         r="2.126771" />
    </g>
    <g
       id="g49220"
       style="fill:#f1f2da;fill-opacity:1;stroke-width:0.8;stroke-dasharray:none"
       transform="matrix(1.2891507,0,0,1.2891507,11.245869,-78.293864)">
      <ellipse
         style="fill:#f1f2da;fill-opacity:1;fill-rule:evenodd;stroke:#f1f2da;stroke-width:0.8;stroke-dasharray:none;stroke-opacity:1"
         id="ellipse47666"
         cx="132.04005"
         cy="107.76479"
         rx="10.541844"
         ry="10.120171" />
      <circle
         style="fill:#f1f2da;fill-opacity:1;fill-rule:evenodd;stroke-width:0.8;stroke-dasharray:none"
         id="path49207"
         cx="130.85835"
         cy="100.91731"
         r="1.2379712" />
      <circle
         style="fill:#f1f2da;fill-opacity:1;fill-rule:evenodd;stroke-width:0.8;stroke-dasharray:none"
         id="path49209"
         cx="126.99023"
         cy="104.98041"
         r="2.126771" />
    </g>
    <g
       id="g50012"
       transform="matrix(0.27964169,0,0,0.27964169,145.9378,57.276433)"
       style="fill:#f1f2da;fill-opacity:1">
      <ellipse
         style="fill:#f1f2da;fill-opacity:1;fill-rule:evenodd;stroke:#f1f2da;stroke-width:0.942;stroke-dasharray:none;stroke-opacity:1"
         id="ellipse50006"
         cx="132.04005"
         cy="107.76479"
         rx="10.541844"
         ry="10.120171" />
      <circle
         style="fill:#f1f2da;fill-opacity:1;fill-rule:evenodd;stroke-width:0.206375"
         id="circle50008"
         cx="130.85835"
         cy="100.91731"
         r="1.2379712" />
      <circle
         style="fill:#f1f2da;fill-opacity:1;fill-rule:evenodd;stroke-width:0.216184"
         id="circle50010"
         cx="126.99023"
         cy="104.98041"
         r="2.126771" />
    </g>
  </g>
</svg>
