<svg xmlns="http://www.w3.org/2000/svg" 
role='img'
aria-labelledby="Silhouette of small seaweed" viewBox="0 0 185.20239 251.66957"><path d="M19.9452 227.81194c-1.356-.74934-3.2783-2.75019-6.6631-6.93563-4.6718-5.77693-6.7061-7.68419-9.5529-8.95649-2.5005-1.11754-3.7013-1.33559-8.3383-1.51428-6.2591-.24119-9.288-1.14836-15.0499-4.50762-5.8388-3.40399-8.792-4.16377-12.2235-3.14473-3.7678 1.11892-4.7621 1.07085-11.2935-.54594-4.8234-1.19398-6.6419-2.45423-5.1655-3.57985 1.2379-.9438 1.8679-.88257 4.7797.4645 2.4321 1.12516 2.9419 1.26653 4.5882 1.27249 1.6574.006 2.1012-.11511 4.2233-1.15249 1.3041-.63756 3.1496-1.38844 4.101-1.66861 2.1906-.64509 6.2734-.89551 8.3231-.51049.8614.1618 1.615.24533 1.6747.18562.1843-.18427-4.296-6.04207-5.5224-7.22036-1.4791-1.42107-3.6193-2.22662-7.9049-2.97535-7.0569-1.2329-10.4762-2.76984-13.6419-6.1319-3.0836-3.27486-4.6179-6.36446-7.1442-14.38638-.8249-2.61938-2.4521-7.52872-3.6158-10.90967-2.1237-6.16931-2.3178-7.22045-1.3986-7.57316.6612-.25373 3.5005 1.44075 5.1989 3.1027 4.6177 4.51854 6.9261 9.56464 7.2552 15.86009.2504 4.78894 1.1062 6.73213 3.4684 7.87567 1.1153.53993 1.7741.6214 6.1588.76162 4.4004.14074 5.0396.22026 6.1614.7665 1.8628.90713 6.6274 5.37655 8.3612 7.84333 1.6301 2.31916 2.3249 3.02052 3.0054 3.03391.5943.0117.7393-.26991.912-1.77083.1926-1.67309-.925-5.15234-3.1778-9.89351-3.073-6.46707-4.1701-10.61753-4.2231-15.97582-.039-3.90309.3009-5.70313 1.857-9.84393.884-2.35249.9739-2.83549.9745-5.23732.0005-2.34134-.1082-2.966-.9461-5.42786-1.1081-3.25557-2.431-5.63655-3.838-6.90776-1.2158-1.09836-1.7963-1.33965-5.3554-2.22586-3.4177-.85098-6.4421-2.27088-9.1704-4.30529-5.3446-3.9853-7.7406-8.01412-9.7624-16.41544-.9029-3.75194-1.4455-4.5269-4.1062-5.8647-2.5966-1.3055-3.8955-2.44655-4.8736-4.281109-.8445-1.583931-1.93-2.858439-2.4344-2.858439-.186 0-.7581-.36866-1.2713-.819248-1.2058-1.058749-2.167-4.046456-2.5416-7.899856-.1696-1.74526-.5532-3.600383-1.0394-5.027083-1.5836-4.646851-2.0877-7.890394-1.6197-10.422067.6308-3.41262 1.4916-3.864338 3.4641-1.81791 1.5783 1.637398 2.0264 2.992975 2.2285 6.74062.1846 3.423812.5008 4.25626 2.364 6.22458 2.4234 2.560127 2.8489 3.868259 3.0649 9.423908l.9151 3.05477 1.4871 1.595851c4.0819 4.380493 6.4742 2.542881 16.9142 16.577963 2.2989 3.09053 5.0915 5.99274 7.5456 7.8418 7.2237 5.44261 10.51 9.25303 13.5328 15.69103 1.6533 3.52131 2.0256 5.21004 2.0072 9.10648-.017 3.71576-.5059 6.08457-1.9174 9.30063-.9137 2.08167-1.5488 5.08907-1.556 7.36812-.012 3.75025 1.8952 8.30962 4.7558 11.36964 1.9045 2.03722 2.1229 2.65254 3.7123 10.45848 1.6423 8.06518 2.1353 9.44087 4.5649 12.73778 1.5428 2.09345 5.408 5.18393 9.0458 7.23274 4.7035 2.64892 9.3492 6.62418 10.5444 9.02252l.6435 1.29138.1737-.92587c.2056-1.09628.012-3.54834-.5504-6.96252-.9927-6.02897-2.7715-8.88417-9.9968-16.04603-7.774-7.70585-9.2076-10.58041-9.6983-19.44687-.2993-5.40863-.654-7.02722-2.1392-9.76253-.6007-1.10629-1.7595-3.26159-2.5752-4.78956l-1.4829-2.77812-.027-5.55625c-.016-3.25544-.1442-5.84122-.3092-6.24443-.155-.3785-1.0958-1.92631-2.0907-3.43959-.9948-1.51327-2.3385-3.94202-2.9859-5.39723-2.25-5.05772-4.4677-8.27339-8.8498-12.83229-3.7011-3.8505-4.3902-5.372-5.9726-13.18693-.7831-3.86757-1.2998-4.81751-4.1247-7.58287-2.5993-2.544622-2.4036-2.183955-3.7336-6.879163-.2062-.727605-.8016-2.229464-1.3233-3.337465-.8335-1.770338-.9258-2.165927-.7612-3.263329l.1873-1.248783 1.8162 2.790156c.9989 1.534586 2.2105 3.583572 2.6924 4.553302.8389 1.688108 1.52 2.50159 4.2939 5.129109 1.4028 1.328746 2.5411 3.513403 3.864 7.415553 1.9203 5.66468 3.4766 8.0313 6.6793 10.15696 4.1506 2.75487 10.5595 11.99941 12.2086 17.61052.233.79279.603 2.55598.8222 3.91821.4665 2.89891.7792 3.72971 2.0917 5.55652 1.199 1.66899 2.5373 4.73618 4.4726 10.2505 2.9362 8.36613 3.3365 10.32716 3.5965 17.62101.1758 4.93193.2204 5.25839.913 6.67399.4005.81862 1.0484 1.73217 1.4397 2.03011.3913.29794 1.6395 1.28324 2.7737 2.18955 1.1343.90631 2.5035 1.98452 3.0427 2.39603l.9804.74819.2112-2.60027c.2424-2.98386-.1306-8.44819-.7334-10.74467-.7877-3.0011-2.3526-6.7128-4.3718-10.36889-3.0469-5.51684-5.5065-10.6526-5.9541-12.43241-.5181-2.05963-.5079-6.41208.021-9.04424.2298-1.14335.8372-3.38851 1.3498-4.98923.8014-2.50259.9152-3.16995.8116-4.7625-.1317-2.02614-1.1123-4.50593-2.4807-6.27334-.8634-1.11521-3.9345-3.57385-7.3278-5.86637-1.267-.856-2.9398-2.24351-3.7173-3.08335-2.5482-2.75231-4.6639-7.10804-4.6639-9.60175v-1.16129l-2.3174-.96054c-2.8965-1.20061-6.4697-3.662502-9.0766-6.253686-1.9769-1.965018-5.3242-6.732629-7.5263-10.7198-1.328-2.404451-2.9224-3.927255-5.9287-5.662261-1.3506-.779494-3.0151-2.008624-3.7308-2.755048-3.0636-3.195031-3.5223-5.623332-2.1099-11.170282.7607-2.987334.8404-3.629007.684-5.503963-.2074-2.48747-1.2439-6.891243-2.1746-9.239129-.9455-2.385367-1.1697-3.766706-.7163-4.414033.3206-.457703.4649-.486465 1.0888-.216948 1.9078.824172 3.5384 2.926742 5.8386 7.528513 1.7371 3.47541 2.2824 4.993664 2.6595 7.404142.2317 1.48104.041 4.309338-.3831 5.670953-.3697 1.18814.7123 2.436196 3.9814 4.592492 5.2239 3.445774 7.5549 6.257401 9.1069 10.985121.7255 2.209917 1.4729 2.947123 4.4823 4.420796 2.9134 1.426665 5.3165 3.523745 6.859 5.985619.97 1.548167 2.6799 5.372542 4.106 9.183724 2.0957 5.60058 4.1774 7.61696 8.8804 8.6015 3.9094.81841 5.4779 1.58107 7.4427 3.61879 3.111 3.22648 4.6548 7.62866 4.4333 12.64118-.093 2.09626-.3145 3.12848-1.3365 6.21771-2.1524 6.50695-2.8448 11.01715-2.1794 14.19736.4541 2.17036 1.0666 3.15825 4.615 7.44364 1.5415 1.86162 3.1482 3.84942 3.5704 4.41735l.7676 1.0326.5983-1.71229c.6916-1.97933 1.6038-3.48797 4.2265-6.99012 5.3019-7.07978 7.3721-11.15883 8.2117-16.17998.6444-3.85397.4393-7.09292-.566-8.94008-1.231-2.26177-5.0687-5.28037-9.5743-7.53074-3.6532-1.82465-5.0267-2.84092-10.9137-8.07479-3.4483-3.06567-7.516-7.38566-8.9879-9.54525-2.5294-3.711108-3.0862-5.777324-3.565-13.229165-.4033-6.276433-.7298-7.753551-2.357-10.66328-1.2281-2.196103-4.3973-5.19212-7.6362-7.218953-7.3322-4.588409-9.196-6.812912-9.2013-10.982425 0-1.987672.2506-3.006339 1.5576-6.266032.5573-1.390079.5575-1.400805.047-2.401269-.282-.552725-1.3053-2.007978-2.274-3.233893-2.0537-2.598981-2.3073-3.043299-2.8997-5.081109-.5296-1.822064-.349-2.950369.5687-3.551645.6571-.430572.6698-.422508 2.5143 1.599046 1.0196 1.117492 3.0318 2.994986 4.4716 4.172207 2.8323 2.315845 4.3131 4.220247 5.2782 6.787949.8031 2.136656.9125 3.811143.4202 6.432939-.971 5.170522-.8033 5.437381 5.077 8.083002 3.6897 1.660041 6.2922 4.8562 7.6099 9.345854l.5786 1.971352.4337-1.906669c1.0572-4.648269.7704-11.174699-.8636-19.648284-.5734-2.973573-1.126-5.94228-1.228-6.597124-.1021-.654844-.5726-2.024063-1.0457-3.042708-.9068-1.952747-1.8634-2.969594-8.3481-8.87448-4.7815-4.354007-5.9996-5.163974-10.1806-6.769733-2.3599-.906301-3.2892-1.50288-5.4741-3.513918-3.5019-3.223416-5.3288-7.106226-5.7916-12.309548-.5087-5.718705-.9487-6.935561-3.2803-9.071137-.8276-.757962-1.4347-1.491213-1.3493-1.629442.3517-.569015 2.1941-.611169 3.2351-.07401 2.5921 1.337551 4.4008 4.231362 6.2271 9.963103 2.5115 7.882115 2.9757 8.347723 9.3714 9.400098 3.7671.619847 5.4857 1.280692 7.1889 2.764322 1.3075 1.138967 1.7092 1.830265 2.8212 4.855321l.8099 2.203071 1.7124.683954c2.7812 1.110832 4.6409 2.336252 5.6671 3.734236 1.133 1.543444 2.2716 3.913336 2.2752 4.73556.01 1.146527.4839.582142.6736-.79375.3054-2.215533.1962-5.981305-.2371-8.179559-.4338-2.200325-.7557-2.96037-2.6155-6.174087-1.7019-2.940902-2.7238-6.728367-3.2368-11.996655-.4746-4.874641-.7128-6.016345-1.8968-9.093891-.4878-1.267822-.8869-2.714246-.8869-3.21428 0-.514141-.361-1.581818-.8309-2.457369-1.6373-3.050816-1.6073-2.967081-1.3384-3.734243l.2539-.724395 1.6868 1.719791C-9.6746-.791611-9.2147-.096109-8.7243 1.310096c.3371.966763.9136 2.038326 1.281 2.38125.3675.342924.8818 1.040217 1.143 1.54954.7226 1.409049 1.8304 5.247484 2.2339 7.740232.3929 2.426922.8954 3.588398 2.7756 6.414976 4.7307 7.112101 6.1012 15.815178 4.6691 29.650667-.2099 2.027759-.4463 7.457993-.5253 12.067188-.079 4.609195-.2772 9.252633-.4404 10.31875-.1633 1.066118-.8118 3.605271-1.4412 5.642563-2.0994 6.795405-2.2888 7.693472-2.4275 11.509375-.2183 6.002533 1.0977 10.622113 3.8705 13.587573 2.4495 2.61961 5.1474 3.89907 8.3537 3.96169 3.4907.0682 3.9427-.35349 3.9219-3.65864-.017-2.755303-.6015-4.773306-2.6041-8.995831-2.7304-5.757323-3.5712-8.379384-4.1146-12.832292-.5881-4.818793.1239-9.487334 2.345-15.375769 1.5092-4.001376 1.7327-5.235747 1.5814-8.733845-.093-2.15822-.3611-3.908785-.9457-6.185178-1.3193-5.137727-1.509-7.088712-1.2144-12.488212.216-3.957844.3458-4.885939.7902-5.648868.3116-.535011.7812-.949052 1.1345-1.000201.8646-.125196 2.549 1.745252 3.6376 4.039507.7541 1.589228.9485 2.422425 1.3006 5.572774.5021 4.493701.8946 5.966819 2.1525 8.078372 1.1057 1.85625.9674 1.945727 2.3674-1.531583.5122-1.272403 1.2758-3.036523 1.6969-3.920268 1.9792-4.154517 2.1304-8.093792.4612-12.01923-.2785-.654844-1.2666-2.323163-2.1958-3.707373-2.0925-3.117012-2.5525-4.647182-2.2387-7.44592.4757-4.241552 2.2401-7.265101 7.0411-12.065501 6.6692-6.668455 7.7652-8.732555 7.7611-14.616623 0-4.185392-.3347-6.126682-1.6155-9.450373-.9007-2.337281-1.1043-3.197778-1.1268-4.762216-.023-1.600525.061-1.99835.5205-2.458848.4695-.470697.659-.507691 1.323-.258294 2.1418.804532 4.2689 3.938953 5.68 8.370012 1.707 5.360521.3102 20.432888-2.3945 25.836675-.306.611373-1.6845 2.71893-3.0633 4.683461-3.0031 4.2789-3.7559 5.739863-4.1534 8.060351-.2751 1.606431-.2398 1.99798.4138 4.587063.3931 1.55689.8471 3.604617 1.0089 4.550503.4491 2.62501.3748 7.732707-.1481 10.186458-.7775 3.647969-2.7539 8.264644-5.0382 11.769056C19.3564 63.451411 16.649 69.158 15.511 74.824853c-.8539 4.252016.09 12.531673 1.9642 17.237171 1.5863 3.981921 3.1622 6.961389 4.2293 7.996216.5799.56241 1.1751.94796 1.3227.85679.1475-.0912.4714-.77754.7197-1.525252.6505-1.958514.4084-5.187402-.6317-8.423891-1.4398-4.480359-1.9302-6.696599-2.0824-9.410729-.2512-4.482852 0-5.376511 3.9531-14.004896.7999-1.74625 1.6587-3.740547 1.9084-4.431771.3993-1.105226.5464-1.256771 1.2198-1.256771.5287 0 .9025.208706 1.2075.674171.3787.577901.4206 1.191858.2934 4.29948-.1337 3.26613-.2865 4.149576-1.5419 8.916974-1.2968 4.924883-1.3947 5.511737-1.4117 8.466667-.018 3.14181-.01 3.196749.9769 5.255458 1.6701 3.491371 2.2745 6.383526 3.3553 16.05502.5071 4.53726 1.3347 8.96832 2.4193 12.95306.5208 1.91317 2.8533 7.4101 3.143 7.40666.078-.0008.6647-1.34038 1.3044-2.97657.6396-1.63618 1.7947-4.36778 2.5669-6.07022 3.0956-6.82491 3.3915-9.30253 1.5942-13.35169-1.528-3.44265-1.2548-5.685382 1.3647-11.201926 1.9648-4.13802 2.3715-6.488555 1.4562-8.417397-.2497-.526208-1.4793-1.972952-2.7324-3.214986-2.7537-2.729484-4.063-4.614548-4.7577-6.850176-.9631-3.098941-.5565-8.293855.9835-12.566188.8096-2.246167 1.7601-4.008416 3.8032-7.051254 3.1241-4.652838 5.1944-9.162198 6.8081-14.828991 1.1274-3.959029 1.4736-6.482104 1.4505-10.571009-.025-4.51503-.5359-7.127378-1.9641-10.054167-.9616-1.970397-1.1129-2.530605-1.2217-4.522832-.077-1.412584.038-3.29569.3031-4.971535.4643-2.930958.5298-6.850999.1843-11.01574-.2038-2.456903-.3196-2.849385-1.5832-5.367457-1.5896-3.167692-2.5426-6.692986-2.2809-8.437908.1977-1.318001.3376-1.353685 2.3527-.599756 1.7345.648953 3.0563 1.99773 4.6727 4.768183.6319 1.082906 1.5324 2.504701 2.0012 3.159545 1.2265 1.713138 2.6803 4.720519 3.1457 6.507242.7987 3.066483.4602 5.325491-1.495 9.978125-1.8739 4.459079-2.036 5.422326-1.3131 7.802407.3192 1.050803 1.5244 3.784756 2.6783 6.07545 2.4205 4.805161 2.8786 6.40389 3.0888 10.779484.3773 7.856464-2.7812 15.807683-9.5542 24.051549-.8254 1.004602-1.7185 2.254758-1.9847 2.778125-.9675 1.902095-1.602 4.526267-1.602 6.625728 0 1.757992.1154 2.277311.8179 3.683325.5271 1.054717 1.2523 1.987132 2.0394 2.62195 1.947 1.57045 2.7393 2.48095 3.3919 3.897929 1.4097 3.060904 1.039 5.890855-1.4497 11.066362-2.3274 4.839975-2.5462 5.627317-2.5485 9.171908 0 1.67349.163 4.64038.3647 6.5931.2094 2.02729.3029 4.63789.2178 6.08541-.2918 4.96843-2.4536 11.33463-6.1166 18.01316-2.5021 4.56194-3.1244 6.0173-4.9216 11.50937-2.3225 7.0972-3.6487 9.51489-8.9932 16.39427-5.3646 6.90538-6.5732 9.52735-8.0537 17.4724-1.1287 6.05734-1.6309 17.66987-.9628 22.26087.3367 2.31338 1.5755 6.32988 1.8552 6.01487.1123-.12645.3614-.82522.5535-1.55282 1.0052-3.80564 3.4223-9.29222 5.3367-12.11362 1.6898-2.49031 2.5859-3.36005 5.3178-5.16149 2.5739-1.69726 3.4039-2.52428 4.2905-4.27492.5021-.99157.4702-2.61805-.151-7.68643-.4685-3.82289-.1635-10.09595.6456-13.27638 1.5992-6.28673 3.849-10.42148 11.8515-21.78091 1.5378-2.18282 3.2732-4.92125 3.8566-6.08542 2.1961-4.38232 4.5407-10.55268 5.4793-14.41979 1.1174-4.60334 3.0218-10.74787 4.1099-13.26001.5915-1.36549 1.9102-3.932258 2.9305-5.703937 1.0203-1.771679 2.158-3.966782 2.5283-4.878002 1.9698-4.847775 1.841-11.030206-.3062-14.694117-.4066-.693766-1.6792-2.259295-2.8281-3.478956-1.1488-1.21966-2.1966-2.501265-2.3285-2.848009-.4996-1.314093-.8146-7.315198-.5408-10.302598.355-3.873941.8489-5.669206 2.7295-9.921875l1.5796-3.571875.2231-3.704166c.4185-6.948742 1.6662-9.855484 7.9781-18.585392.3952-.546577.9769-1.767681 1.2928-2.713567.5409-1.619803.9763-2.597753 1.5059-3.382399.333-.49344 1.0693-.115366 1.5371.789311.5342 1.032962.181 2.723896-1.1006 5.268703-.8098 1.608148-.9779 2.264058-1.1693 4.562216-.1849 2.221701-.382 3.025865-1.1442 4.668419-1.6556 3.568319-2.5462 6.733453-2.9699 10.555005-.3672 3.31181-.4857 3.755353-1.7249 6.455206-1.9565 4.262506-2.4504 6.300359-2.3168 9.559105.1181 2.87999.4676 3.84593 2.4978 6.903619 1.3298 2.002888 1.8691 3.653703 2.3433 7.173305.233 1.729041.7794 4.186613 1.215 5.464262 1.1292 3.312112 1.2215 5.073835.4154 7.930645-.3593 1.273307-.6111 2.315104-.5597 2.315104.052 0 .7843-.571799 1.6286-1.270662 2.5602-2.119164 4.0197-3.003288 6.8865-4.171622 3.6583-1.490916 4.5516-2.129951 5.9792-4.277346 1.0243-1.540817 1.4899-1.971398 3.0654-2.835008 3.5717-1.957859 5.5722-4.776084 6.1132-8.612029.642-4.551558.854-5.537883 1.481-6.891121.8629-1.862426 2.9406-4.448148 3.598-4.477549.1034-.0046.4308.252161.7276.570643.4751.510045.5394.926227.5394 3.491997 0 1.602118.1362 3.871622.3026 5.04334.2543 1.791004.2356 2.387946-.1174 3.747034-.5264 2.026841-2.2689 5.77061-3.7388 8.033002-3.3823 5.205513-14.6378 14.641248-20.6996 17.352912-3.8258 1.711399-4.4466 2.094278-6.1959 3.821409-3.668 3.621523-9.7958 15.511393-11.4895 22.293243-1.6326 6.53709-2.8601 9.20731-7.1624 15.58102-5.3344 7.90258-6.0694 9.03498-7.1965 11.08833-3.3052 6.02145-4.3051 13.79219-2.4348 18.92313.9125 2.50347 1.0453 3.2991.8978 5.38095-.1755 2.47772-1.3831 6.2798-3.0519 9.60925-.8892 1.77402-1.2858 2.88497-1.2751 3.57187.014.86859.056.93457.3307.51228.1734-.2666 1.1318-1.63582 2.1297-3.04271 3.8526-5.43094 6.0097-7.80122 14.0259-15.41142 6.8098-6.4649 8.2258-11.14686 6.2353-20.61636-2.7446-13.05725-2.6307-17.5135.6121-23.94697 1.3701-2.71825 3.6293-5.44558 6.0956-7.35873 3.8445-2.98228 6.2918-4.09745 12.6239-5.7525 6.0471-1.58054 7.6877-2.32561 10.5833-4.80634 3.2246-2.76255 6.2856-6.969852 9.0034-12.375043 4.0875-8.129101 6.7927-11.641667 8.9659-11.641667.7118 0 1.1051.808744 1.14 2.344283.025 1.098026-.1982 1.66036-1.7027 4.288374-2.5985 4.539136-3.228 5.895123-4.8625 10.47423-.823 2.305643-2.4296 6.119573-3.5701 8.475403-1.7378 3.58961-2.3476 4.57519-3.7651 6.08541-.9303.99115-1.8443 2.09245-2.031 2.44734-.5899 1.12103-3.7388 10.61166-4.5002 13.56297-.5213 2.02087-1.0393 3.32038-1.8099 4.54062-1.1288 1.78733-2.1594 4.44766-2.1594 5.57418 0 .88537.9681 1.73844 1.9728 1.73844 1.3789 0 2.6738-1.18387 6.3749-5.82798 3.897-4.88996 4.4996-5.33945 6.4737-4.82836 1.6183.41901 1.9816 2.07917 1.0871 4.9678-1.5498 5.0044-4.9812 9.87296-10.1695 14.42895-2.4329 2.13641-3.7959 2.92843-8.8964 5.16935-5.5111 2.42139-7.0982 3.94479-9.6712 9.28316-.9498 1.97064-2.3089 5.2677-3.0202 7.3268-2.7599 7.98951-3.7745 10.087-6.5839 13.61165-1.0721 1.34509-4.6186 4.04271-6.6715 5.07462-1.8063.90796-7.8374 2.93969-11.8967 4.00765-5.5729 1.46621-8.3208 2.39111-10.5929 3.56544-5.8666 3.03212-10.4522 8.01889-12.7176 13.83006-1.8643 4.78253-1.921 7.93113-.2479 13.77724l.7238 2.52925-1.089.33754c-1.9646.60889-3.901.65487-4.8765.1158zm39.6599-48.49913c5.4631-2.80622 9.3296-6.75529 12.152-12.41151.472-.94588 1.0942-2.05406 1.3827-2.46263.8408-1.19079.4152-1.0655-1.2702.37386-2.5336 2.16381-4.2195 3.41008-8.8464 6.53964-4.7877 3.23836-7.7915 5.90056-9.3618 8.29726-.4382.66876-.4373.71521.019.99619.943.58022 3.1797.077 5.9244-1.33281zm11.5121-20.29452c.4233-.33384 1.4872-1.07014 2.3644-1.63624 2.013-1.2992 6.5831-5.93974 7.8712-7.99251 2.1042-3.35355 2.6301-5.13581 2.719-9.21496.04-1.8211.211-4.07648.3806-5.01195.4226-2.33048 2.832-8.35772 5.1812-12.96108 1.0726-2.1019 1.9237-3.84566 1.8913-3.87502-.2153-.19505-5.7014.52755-7.2882.95994-2.5621.69819-3.6166 1.25712-6.926 3.67116-1.5279 1.1146-3.6547 2.6175-4.7262 3.33979-2.3305 1.57109-3.3346 2.66064-4.2061 4.56424-.9121 1.99234-.7714 4.10217.419 6.28312 2.8213 5.16883 3.6181 8.03517 3.6017 12.95548-.01 3.05332-.091 3.65929-.7222 5.39595-.3908 1.07601-1.0095 2.46643-1.3748 3.08983-.9897 1.68876-.8631 1.75588.8151.43225z" style="fill:#f1f2da;fill-opacity:1;stroke-width:.264583" transform="translate(71.053414 23.482916)"/></svg>