<svg xmlns="http://www.w3.org/2000/svg" role='img' aria-labelledby="Silhouette of a underwater sea plant" viewBox="0 0 122.99776 267.31607"><path d="M36.24534 295.74869c-.24465-1.70987-.62348-4.35901-.84185-5.88698-1.4543-10.17598-4.68507-23.32317-7.50173-30.52725-2.19539-5.61509-6.58087-13.46935-9.96408-17.84532-2.3514-3.04141-9.30622-9.98097-11.46746-11.44231-.94588-.63957-2.55322-1.60816-3.57187-2.15244-1.01865-.54427-1.70268-.99272-1.52008-.99655 1.25887-.0264 10.51783 4.03502 13.59163 5.96192 2.11384 1.32511 6.94961 5.07193 9.03206 6.99813 4.22265 3.90583 9.03064 10.04729 12.63902 16.14437 1.39238 2.35272 6.62211 12.50008 7.29157 14.148.17882.44017.23025.37343.30585-.39688.17384-1.77135 1.69604-8.53532 2.12174-9.42802.40592-.85123.39632-.99898-.18293-2.81281-.33625-1.05291-1.74408-4.71235-3.12853-8.13209-1.38444-3.41974-2.73046-6.75349-2.99115-7.40833-.26069-.65484-1.02576-2.44078-1.70016-3.96875-.67439-1.52797-1.56462-3.61156-1.97828-4.63021-.41366-1.01864-1.19309-2.80458-1.73207-3.96875-1.33409-2.88154-4.31452-9.98963-4.93683-11.77395-.27915-.80037-.98358-3.12208-1.56541-5.15938-.58184-2.03729-1.40678-4.89479-1.83321-6.34999-.97885-3.34035-1.58773-7.78807-1.6278-11.89058-.0248-2.54047.1239-3.97248.72975-7.02713l.76091-3.83646.19216 2.51354c.49886 6.52535 2.3411 13.14825 5.77736 20.76979 1.15725 2.56675 3.68837 6.17015 7.61985 10.84791 2.32255 2.76344 6.85698 9.38399 7.52037 10.98021.37241.89609.39131.81008.58432-2.659.49667-8.92697-1.70801-16.65706-6.39937-22.43757-3.72163-4.58564-4.39275-5.49814-4.99077-6.78571-1.42623-3.07076-1.79946-6.53536-1.02724-9.53556.22324-.86732 1.66973-4.07726 3.21442-7.13319 4.565-9.03116 6.04225-14.31282 5.37212-19.20716-.35604-2.60035-1.15648-6.30322-2.76856-12.80743-1.28503-5.1847-2.06883-8.50101-3.97086-16.80104-.68362-2.98317-1.72118-7.26942-2.30568-9.525-.9538-3.68071-1.04667-4.31664-.90609-6.20459.19356-2.5995 1.19751-4.85808 3.59872-8.096 2.53479-3.41805 3.01538-4.63158 3.03352-7.65982.0133-2.21245-.0761-2.71956-.74575-4.23334-1.60207-3.62144-2.04519-5.22283-1.96289-7.09361l.0779-1.76993 1.25676 1.68275c.69123.9255 1.64373 2.41379 2.11667 3.30729.47295.8935 1.50316 2.27939 2.28935 3.07975 2.05471 2.09174 2.66716 3.5519 2.66343 6.35-.004 2.67487-.64455 4.7375-2.47773 7.97311l-1.20555 2.12785.58895.86507c.32392.4758 1.48192 1.84729 2.57333 3.04776 1.09141 1.20047 2.25459 2.61637 2.58486 3.14643 1.52981 2.45525 1.81122 5.79773.85105 10.10834-.89852 4.03383-2.5957 13.17465-2.89405 15.587-.1525 1.23311-.27728 5.39314-.27728 9.24451v7.0025l1.03744 1.73569c1.95415 3.26942 2.55473 7.15342 1.64451 10.63513-.5945 2.27403-1.94181 5.04911-3.3416 6.88277l-.93907 1.23012 1.27271.93425c3.9069 2.86793 5.60169 5.8474 6.12679 10.77101.16972 1.59131.52915 2.95544 1.21577 4.61414.53615 1.2952 1.4466 4.3862 2.02322 6.86888.92032 3.96248 1.06667 5.04736 1.19786 8.87961.21116 6.1681-.4309 10.70616-2.12373 15.01043-.50178 1.27587-1.2085 3.3318-1.57048 4.56873-.36198 1.23693-.81207 2.62072-1.00021 3.07509-.322.77766-.25521 1.01053 1.1383 3.96875.8142 1.72844 2.13449 4.69043 2.93398 6.5822.79949 1.89177 1.87582 4.33255 2.39185 5.42396l.93823 1.98437.0106-2.11666c.0184-3.69226 1.44736-10.67727 2.57463-12.58559.3769-.63803.33209-.89911-.69732-4.06326-1.71067-5.2582-1.71098-7.20799-.002-11.47648.44021-1.09937 1.09873-3.41192 1.46338-5.13899.36465-1.72706.92288-3.93834 1.2405-4.91394 1.12981-3.47024.72898-7.01551-1.80094-15.92903-.6815-2.40109-1.99321-7.34219-2.91491-10.98021-5.18656-20.47171-6.13798-28.36826-5.85993-48.63576.14065-10.25148.54309-17.33887 1.25719-22.14028.87743-5.89958 4.54317-18.59864 6.04229-20.93203.41013-.63837 1.45406-1.93458 2.31985-2.88047 2.37462-2.59431 4.22219-4.89312 5.0018-6.22343 1.80865-3.08623 2.70032-8.18238 1.96672-11.24037-.3968-1.65404-2.05869-5.99494-3.02576-7.90335-.37289-.736-.67803-1.39999-.67803-1.47554 0-.0756.68461.11769 1.52135.42944 3.82934 1.42673 4.57638 2.66365 4.76663 7.89242.0849 2.33437-.005 4.02729-.30569 5.75481-.59002 3.38953-.55284 3.91693.50737 7.19646 2.14264 6.62788 1.80753 12.22327-1.03668 17.30918-.57006 1.01938-2.29322 3.1548-4.19648 5.20052-1.77609 1.90903-3.84712 4.32557-4.60229 5.3701-1.87648 2.59549-3.39045 6.48088-4.38561 11.25502-.71466 3.42854-.81083 4.42013-.83747 8.63578-.0294 4.65247.14292 8.15378.63805 12.96459.13479 1.30968.37036 4.25956.52348 6.55527.27493 4.122.68835 7.71963 1.4307 12.4503.20936 1.33412.57761 4.03302.81833 5.99755.24073 1.96453.66924 4.64344.95226 5.95313.28301 1.30968.75097 3.84483 1.0399 5.63365.28893 1.78882 1.19457 5.89648 2.01253 9.12812.81797 3.23165 1.56104 6.35198 1.65128 6.93406.16099 1.03849.17005 1.02349.48352-.79987.17571-1.02201.80389-3.46279 1.39596-5.42396 1.84558-6.11319 2.42603-9.83923 2.57515-16.53034.14185-6.36457-.14257-9.53095-1.41409-15.7427-3.18817-15.57518-2.95978-22.35213.99715-29.58778 1.58301-2.89471 2.30697-3.90348 5.90788-8.23203 5.77106-6.93724 6.48425-8.12641 7.15219-11.92543.88165-5.01459-.399-10.78925-3.47247-15.65794-.34606-.5482-.6292-1.06651-.6292-1.15181 0-.46555 4.48241 4.04673 5.9259 5.9654 2.07196 2.75401 3.21035 4.98612 3.88171 7.61112 1.14172 4.46406.46879 7.23429-3.25834 13.41362-2.05864 3.41307-2.96518 5.68749-3.67372 9.21704-.35485 1.76764-.0008 3.96154.80656 4.9978 1.57986 2.02779 1.69271 3.45923.52674 6.68155-1.08823 3.00746-2.76344 5.71847-5.83393 9.44107-1.39531 1.69166-2.86437 3.745-3.26457 4.56298-.81482 1.66542-1.2626 4.65017-.92332 6.15449.11715.51941.1534 1.55748.0806 2.30683-.0728.74935.0484 4.75574.26945 8.90308.41002 7.69353.38795 11.17384-.10654 16.80105-.32931 3.74751-1.53195 9.99369-2.6745 13.89062-1.49757 5.10776-1.48937 4.35146-.0851 7.85552.68875 1.71858 1.94779 5.16489 2.79787 7.65847 1.47077 4.31428 1.57162 4.77926 2.08291 9.60347.58705 5.53917 1.83344 11.2037 3.19 14.49785.4331 1.05171.79814 2.12327.8112 2.38125.0131.25798.18822-.43967.38925-1.55034s.95181-4.08723 1.66839-6.61458c3.00193-10.58766 3.69001-17.33449 2.60033-25.49727-.5699-4.26911-.51949-4.03882-3.44572-15.7427-2.34044-9.36096-2.41471-9.75127-2.42058-12.71995l-.006-3.06265 1.1093-2.23868c.93098-1.87879 1.68151-2.84192 4.66875-5.99129 2.72677-2.87476 3.65667-4.03798 3.97508-4.97246l.41564-1.21983-1.81875-3.63056c-2.04015-4.07253-3.10423-7.23356-3.43856-10.21483-.2626-2.3416.13127-4.78282.95232-5.90248.50096-.68314 2.98441-2.53831 3.16124-2.36148.0466.0466-.2157.82829-.58282 1.73717-1.19302 2.95361-.9243 4.39255 1.66297 8.90516 2.39524 4.17767 3.31952 5.61238 6.05101 9.39271 3.30406 4.57275 4.24641 6.38681 4.59256 8.84089.27493 1.94921-.0956 4.76443-.93321 7.0908-.22455.62367-2.11719 7.9205-4.20585 16.21519-2.08866 8.29468-4.74952 18.83171-5.913 23.41562-1.16349 4.5839-2.19478 8.92968-2.29176 9.65729-.097.7276-.57218 3.76369-1.05601 6.74687-2.69444 16.61328-3.51723 24.35256-3.03792 28.575.14042 1.23693.33335 3.05263.42876 4.0349.16496 1.69851.62587 2.52624.62587 1.12398 0-.75176 1.00631-3.72963 2.63745-7.80471 1.37016-3.42308 4.87936-10.22169 7.37471-14.2875 1.94242-3.1649 2.11718-3.44378 5.75966-9.19121 1.22092-1.92646 2.21985-3.56014 2.21985-3.6304 0-.0702.53089-1.0257 1.17975-2.1232 3.78474-6.40161 6.1825-13.4724 6.78431-20.0063.32598-3.53922.19155-7.50472-.28782-8.48996-.28723-.59035-.27706-.58859.28666.0494.88357.99999 2.76943 5.13733 3.51095 7.70254.93584 3.23747 1.24538 5.8637 1.23881 10.51036-.007 4.69322-.46367 7.95549-1.56293 11.15584-1.53537 4.47008-1.87319 5.07954-8.50597 15.34583-5.79732 8.97315-7.85674 12.94039-9.7561 18.79405-4.73961 14.60702-6.55935 21.5848-6.24231 23.93616.0981.7276.2242 2.03729.28021 2.91042.056.87312.17048 2.09351.25436 2.71198l.1525 1.12448h-18.7486l-.164-.99219c-.33073-2.00091-.17423-12.17627.23533-15.30055.54706-4.17319 1.85736-10.51496 3.84969-18.63226 1.33928-5.45657 1.65511-7.15168 1.65146-8.86354-.008-3.76859-1.17849-5.80434-5.17208-8.99584-1.45674-1.16416-3.14652-2.55632-3.75507-3.09368l-1.10645-.97701-.49117 2.6968c-.36435 2.00051-.52146 4.43882-.60849 9.44368-.13283 7.6391.0758 9.77107 1.67718 17.14038.92232 4.24431.95464 4.5676.79911 7.99504-.0891 1.96453-.34222 4.88156-.5624 6.48229-.3346 2.43256-1.43494 12.24738-1.44605 12.89844-.002.10914-2.20604.19844-4.89817.19844-3.73953 0-4.89476-.078-4.89463-.33073.00009-.1819-.24452-2.77151-.54357-5.75469-.67672-6.75053-1.82065-13.88878-3.02911-18.90198-.50896-2.11141-.92539-4.07301-.92539-4.35911 0-.2861-.1031-.5839-.22911-.66178-.27459-.1697-1.01845 4.09543-1.44972 8.31245-.30327 2.96532-.29322 3.10729.39486 5.58165.85883 3.08835 2.34231 12.27025 2.34231 14.49754v1.61665H36.69014zm54.89154 2.98344c0-.069.34332-.99169.76293-2.05051 2.40675-6.07303 4.02203-12.31804 4.79895-18.55381 1.23584-9.91911 1.87567-12.70243 3.62813-15.78276 1.53133-2.69166 9.75746-9.96259 17.92978-15.84784 1.89177-1.36235 4.01206-2.95074 4.71174-3.52976.69968-.57901 1.31729-1.00761 1.37246-.95245.14773.14774-2.6291 3.84634-4.77894 6.36531-6.7148 7.86775-10.706 14.32154-11.99105 19.38954-.30471 1.20172-.60356 3.49028-.69101 5.29167-.31196 6.42629-.89569 10.66632-1.89401 13.75748-.81158 2.51297-2.51273 6.62395-3.85938 9.32657l-1.35132 2.71198h-4.31914c-2.37553 0-4.31914-.0564-4.31914-.12542zM53.87825 93.87927c-.0351-3.96161-.609-6.88749-1.74528-8.89833-.50551-.89458-2.26509-3.3106-3.9102-5.36893-4.67633-5.85099-6.90118-9.98593-8.1652-15.17528-.49928-2.04978-.61542-3.27021-.62948-6.61459-.0183-4.34195.31266-6.05471 1.49596-7.74292.28199-.4023.47359-.83272.42579-.95649-.0478-.12376-1.32067-1.15189-2.8286-2.28472-3.21924-2.41845-4.66508-4.22201-5.85205-7.29992-.67985-1.76291-.80871-2.43735-.74442-3.89634 0 0-.18435-1.0296.0777-1.7644.26205-.7348 1.74324-2.33587 1.74324-2.33587l.98406 2.17767 1.5988 3.35023c1.25419 2.6281 3.0601 3.79924 6.7864 6.86853 1.45521 1.19863 3.66022 3.23535 4.90003 4.52604 2.23056 2.3221 8.13776 9.41185 10.26264 12.31707 2.8483 3.89432 4.12059 7.48269 4.06772 11.47264-.0494 3.73091-.89043 6.06234-4.08346 11.32035-2.28067 3.75561-3.33129 6.54133-3.79334 10.05805-.21082 1.60454-.4242 2.95824-.47418 3.00822-.05.05-.10227-1.19247-.11617-2.76103z" style="fill:#f1f2da;fill-opacity:1;stroke-width:.264583" transform="translate(-1.3487601 -31.54148)"/></svg>